<?xml version="1.0" standalone="no"?>
<!DOCTYPE svg PUBLIC "-//W3C//DTD SVG 20010904//EN"
 "http://www.w3.org/TR/2001/REC-SVG-20010904/DTD/svg10.dtd">
<svg version="1.0" xmlns="http://www.w3.org/2000/svg"
 width="460.000000pt" height="460.000000pt" viewBox="0 0 460.000000 460.000000"
 preserveAspectRatio="xMidYMid meet">
<metadata>
Created by potrace 1.14, written by Peter Selinger 2001-2017
</metadata>
<g transform="translate(0.000000,460.000000) scale(0.100000,-0.100000)"
fill="#000000" stroke="none">
<path d="M710 4585 c-208 -25 -345 -89 -477 -223 -136 -139 -200 -280 -220
-492 -10 -110 -11 -3041 0 -3139 4 -40 12 -95 17 -121 41 -219 205 -423 422
-528 85 -41 144 -55 303 -70 108 -10 3008 -9 3115 1 217 20 358 86 503 232
111 112 170 227 204 402 16 81 18 209 19 1608 1 836 -2 1554 -6 1595 -17 139
-20 159 -44 230 -62 183 -230 366 -409 445 -56 24 -154 51 -227 61 -25 4 -731
8 -1570 9 -1185 2 -1548 0 -1630 -10z"/>
</g>
</svg>
