<svg width="104" height="104" viewBox="0 0 104 104" fill="none" xmlns="http://www.w3.org/2000/svg">
<rect width="104" height="104" rx="52" fill="#FF7676"/>
<path d="M73.3125 39.0056V31.8C73.3125 30.8044 72.5081 30 71.5125 30H33.4875C32.4919 30 31.6875 30.8044 31.6875 31.8V39.0056C30.7482 39.0619 30 39.8438 30 40.8V48.2081C29.9964 49.5696 30.2721 50.9174 30.81 52.1681C31.0519 52.7419 31.35 53.2819 31.6875 53.7937V73.2C31.6875 74.19 32.4919 75 33.4875 75H71.5125C72.5081 75 73.3125 74.1956 73.3125 73.2V53.7937C73.6553 53.2806 73.9491 52.7363 74.19 52.1681C74.7244 50.9137 75 49.5806 75 48.2081V40.8C75 39.8438 74.2519 39.0619 73.3125 39.0056ZM35.7375 34.05H69.2625V39H35.7375V34.05ZM56.1 70.9556H48.9V65.1H56.1V70.9556ZM69.2625 70.9556H59.7V63.3C59.7 62.3044 58.8956 61.5 57.9 61.5H47.1C46.1044 61.5 45.3 62.3044 45.3 63.3V70.9556H35.7375V57.3319C35.9007 57.4106 36.0694 57.4894 36.2438 57.5569C37.4982 58.0856 38.8313 58.35 40.2038 58.35C41.5763 58.35 42.9038 58.0856 44.1638 57.5569C44.94 57.2306 45.6713 56.8144 46.3406 56.3137C46.3519 56.3081 46.3631 56.3081 46.3744 56.3137C47.0459 56.8165 47.7771 57.2341 48.5513 57.5569C49.8056 58.0856 51.1388 58.35 52.5113 58.35C53.8838 58.35 55.2113 58.0856 56.4713 57.5569C57.2475 57.2306 57.9788 56.8144 58.6481 56.3137C58.6594 56.3081 58.6706 56.3081 58.6819 56.3137C59.3533 56.8165 60.0845 57.2341 60.8588 57.5569C62.1131 58.0856 63.4463 58.35 64.8188 58.35C66.1913 58.35 67.5188 58.0856 68.7788 57.5569C68.9475 57.4838 69.1163 57.4106 69.285 57.3319V70.9556H69.2625ZM70.95 48.2081C70.95 51.5719 68.1938 54.3 64.8019 54.3C62.5069 54.3 60.5044 53.0569 59.4469 51.2119C59.2838 50.9306 58.9913 50.7563 58.665 50.7563H58.6313C58.3106 50.7563 58.0125 50.9306 57.8494 51.2119C57.3097 52.153 56.5305 52.9345 55.5909 53.4769C54.6513 54.0193 53.5849 54.3033 52.5 54.3C50.2106 54.3 48.2138 53.0625 47.1563 51.2231C46.9875 50.9362 46.6838 50.7563 46.3519 50.7563C46.02 50.7563 45.7106 50.9362 45.5475 51.2231C45.0047 52.1607 44.2245 52.9387 43.2854 53.4788C42.3463 54.019 41.2815 54.3022 40.1982 54.3C36.8063 54.3 34.05 51.5719 34.05 48.2081V43.0781C34.05 43.0612 34.0613 43.05 34.0782 43.05H70.9219C70.9388 43.05 70.95 43.0612 70.95 43.0781V48.2081Z" fill="white"/>
</svg>
