<svg width="285" height="128" viewBox="0 0 285 128" fill="none" xmlns="http://www.w3.org/2000/svg">
<g clip-path="url(#clip0)">
<path d="M28.5256 44.5425L28.1432 44.8669L7.40997 63.1466L7.38164 44.5707H0.555542L0.598028 84.8255L7.42413 84.8114L7.40997 69.7899L13.0181 65.1212L28.0865 84.3882L28.4689 84.7973H36.9095L35.3092 83.0483L17.904 61.3976L34.7852 46.3761L36.9661 44.5425H28.5256Z" fill="#BEBEBE"/>
<path d="M30.3384 109.593C30.3526 117.985 27.1095 121.963 18.8247 121.977C10.5116 121.991 7.26846 118.014 7.26846 109.621L7.24014 87.3642H0.598145L0.626469 111.624C0.640631 121.737 7.09852 128 18.8388 127.986C30.565 127.972 37.0087 121.709 37.0087 111.596L36.9946 92.4983L49.1173 92.4842L49.1456 127.957H55.9151L55.8867 92.4842L67.5138 92.4701L67.5421 127.943H74.2974L74.2691 92.4701L83.8992 92.456V87.2795L30.3384 87.336V109.593Z" fill="#BEBEBE"/>
<path d="M75.0189 45.2193L61.8623 76.306L48.4509 45.2334L48.1252 44.5282L39.543 44.5423L39.5713 84.783H46.3266L46.2983 56.2069L58.5909 84.0636L58.8883 84.7688H64.6381L64.9497 84.0495L77.1007 56.2069L77.129 84.7547L83.8843 84.7406L83.856 44.5H75.3163L75.0189 45.2193Z" fill="#BEBEBE"/>
<path d="M78.2767 2.77862C78.2767 4.31603 77.0305 5.55725 75.501 5.55725C73.9715 5.55725 72.7252 4.31603 72.7252 2.77862C72.7252 1.24121 73.9715 0 75.501 0C77.0305 0 78.2767 1.24121 78.2767 2.77862Z" fill="#BEBEBE"/>
<path d="M78.291 11.1288C78.291 12.6662 77.0448 13.9074 75.5153 13.9215C73.9858 13.9215 72.7395 12.6803 72.7395 11.1429C72.7395 9.60545 73.9858 8.36424 75.5153 8.36424C77.0448 8.33603 78.291 9.59134 78.291 11.1288Z" fill="#BEBEBE"/>
<path d="M78.3054 27.8149C78.3054 29.3523 77.0592 30.5936 75.5297 30.6077C74.0002 30.6077 72.7539 29.3664 72.7539 27.829C72.7539 26.2916 74.0002 25.0504 75.5297 25.0504C77.0592 25.0363 78.3054 26.2775 78.3054 27.8149Z" fill="#BEBEBE"/>
<path d="M78.3054 36.164C78.3054 37.7014 77.0592 38.9426 75.5297 38.9426C74.0002 38.9426 72.7539 37.7014 72.7539 36.164C72.7539 34.6266 74.0002 33.3854 75.5297 33.3854C77.0592 33.3713 78.3054 34.6266 78.3054 36.164Z" fill="#BEBEBE"/>
<path d="M78.3193 19.4792C78.3193 21.0166 77.0731 22.2578 75.5294 22.2578C73.9858 22.2578 72.7395 21.0166 72.7395 19.4792C72.7395 17.9418 73.9858 16.7006 75.5294 16.7006C77.0589 16.6865 78.3193 17.9277 78.3193 19.4792Z" fill="#BEBEBE"/>
<path d="M69.9917 19.4785C69.9917 21.0159 68.7454 22.2571 67.2018 22.2571C65.6581 22.2571 64.4119 21.0159 64.4119 19.4785C64.4119 17.9411 65.6581 16.6999 67.2018 16.6858C68.7313 16.6999 69.9917 17.9411 69.9917 19.4785Z" fill="#BEBEBE"/>
<path d="M61.6505 19.4924C61.6505 21.0298 60.4043 22.2711 58.8606 22.2711C57.3169 22.2711 56.0707 21.0298 56.0707 19.4924C56.0707 17.955 57.3169 16.7138 58.8606 16.6997C60.4043 16.6997 61.6505 17.9409 61.6505 19.4924Z" fill="#BEBEBE"/>
<path d="M94.9739 19.45C94.9739 20.9874 93.7276 22.2286 92.184 22.2286C90.6403 22.2286 89.394 20.9874 89.394 19.45C89.394 17.9125 90.6403 16.6713 92.184 16.6572C93.7276 16.6713 94.9739 17.9125 94.9739 19.45Z" fill="#BEBEBE"/>
<path d="M94.9883 27.8004C94.9883 29.3378 93.742 30.579 92.1984 30.5931C90.6547 30.6072 89.4084 29.3519 89.4084 27.8145C89.4084 26.277 90.6547 25.0358 92.1984 25.0217C93.742 25.0217 94.9883 26.2629 94.9883 27.8004Z" fill="#BEBEBE"/>
<path d="M86.6463 19.4646C86.6463 21.002 85.4 22.2432 83.8563 22.2432C82.3127 22.2432 81.0664 21.002 81.0664 19.4646C81.0664 17.9272 82.3127 16.686 83.8563 16.6719C85.4 16.686 86.6463 17.9272 86.6463 19.4646Z" fill="#BEBEBE"/>
<path d="M103.329 36.1363C103.329 37.6737 102.083 38.9149 100.539 38.9149C98.9954 38.9149 97.7491 37.6737 97.7491 36.1363C97.7491 34.5989 98.9954 33.3577 100.539 33.3577C102.083 33.3577 103.329 34.5989 103.329 36.1363Z" fill="#BEBEBE"/>
<path d="M95.0026 36.1503C95.0026 37.6877 93.7563 38.9289 92.2127 38.9289C90.669 38.9289 89.4227 37.6877 89.4227 36.1503C89.4227 34.6129 90.669 33.3717 92.2127 33.3717C93.7421 33.3576 95.0026 34.6129 95.0026 36.1503Z" fill="#BEBEBE"/>
<path d="M86.6607 36.1502C86.6607 37.6876 85.4144 38.9288 83.8707 38.9288C82.3271 38.9288 81.0808 37.6876 81.0808 36.1502C81.0808 34.6128 82.3271 33.3716 83.8707 33.3716C85.4144 33.3716 86.6607 34.6128 86.6607 36.1502Z" fill="#BEBEBE"/>
<path d="M111.657 36.1224C111.657 37.6598 110.411 38.901 108.867 38.901C107.324 38.901 106.077 37.6598 106.077 36.1224C106.077 34.585 107.324 33.3438 108.867 33.3438C110.411 33.3438 111.657 34.5991 111.657 36.1224Z" fill="#BEBEBE"/>
<path d="M95.0026 44.4858C95.0026 46.0232 93.7563 47.2645 92.2127 47.2786C90.669 47.2786 89.4227 46.0373 89.4227 44.4999C89.4227 42.9625 90.669 41.7213 92.2127 41.7213C93.7563 41.7072 95.0026 42.9484 95.0026 44.4858Z" fill="#BEBEBE"/>
<path d="M95.016 52.836C95.016 54.3734 93.7698 55.6146 92.2261 55.6146C90.6824 55.6146 89.4362 54.3734 89.4362 52.836C89.4362 51.2986 90.6824 50.0574 92.2261 50.0574C93.7556 50.0574 95.016 51.2986 95.016 52.836Z" fill="#BEBEBE"/>
<path d="M137.719 60.452H134.815L130.015 53.5407L128.542 54.7396V60.4379H126.035V45.2048H128.542V52.4828C129.221 51.6507 129.901 50.8467 130.581 50.0709L134.716 45.2048H137.563C134.886 48.3361 132.96 50.5646 131.813 51.8905L137.719 60.452Z" fill="#BEBEBE"/>
<path d="M139.545 45.8682C139.545 45.4309 139.659 45.0924 139.914 44.8526C140.154 44.6128 140.494 44.5 140.947 44.5C141.386 44.5 141.712 44.6128 141.953 44.8526C142.194 45.0924 142.307 45.4309 142.307 45.8682C142.307 46.2772 142.18 46.6157 141.953 46.8555C141.712 47.0953 141.372 47.2081 140.947 47.2081C140.508 47.2081 140.154 47.0812 139.914 46.8555C139.659 46.6157 139.545 46.2772 139.545 45.8682ZM142.151 60.4524H139.687V48.9148H142.151V60.4524Z" fill="#BEBEBE"/>
<path d="M156.073 60.4523H153.609V53.3577C153.609 52.4691 153.425 51.8062 153.071 51.3689C152.716 50.9317 152.136 50.706 151.357 50.706C150.309 50.706 149.558 51.0163 149.063 51.6228C148.581 52.2434 148.34 53.2589 148.34 54.6976V60.4523H145.876V48.9147H147.802L148.142 50.4239H148.27C148.624 49.8738 149.119 49.4507 149.757 49.1545C150.394 48.8583 151.116 48.7031 151.895 48.7031C154.671 48.7031 156.059 50.1136 156.059 52.9204V60.4523H156.073Z" fill="#BEBEBE"/>
<path d="M169.498 48.9149V50.2548L167.515 50.6215C167.699 50.8613 167.855 51.1716 167.968 51.5101C168.082 51.8628 168.153 52.2436 168.153 52.6385C168.153 53.8233 167.742 54.7683 166.92 55.4454C166.099 56.1224 164.966 56.4609 163.522 56.4609C163.153 56.4609 162.813 56.4327 162.516 56.3763C161.978 56.7007 161.709 57.0815 161.709 57.5187C161.709 57.7867 161.836 57.9842 162.077 58.1111C162.318 58.2381 162.785 58.3086 163.451 58.3086H165.476C166.751 58.3086 167.714 58.5766 168.393 59.1267C169.059 59.6626 169.385 60.4525 169.385 61.4681C169.385 62.7798 168.846 63.7812 167.756 64.5006C166.68 65.2058 165.108 65.5725 163.068 65.5725C161.482 65.5725 160.278 65.2904 159.457 64.7403C158.622 64.1762 158.211 63.4004 158.211 62.3566C158.211 61.6514 158.437 61.059 158.891 60.5653C159.344 60.0858 159.967 59.7473 160.788 59.5639C160.463 59.4229 160.193 59.1972 159.981 58.8869C159.769 58.5766 159.655 58.2522 159.655 57.9137C159.655 57.4764 159.783 57.1097 160.024 56.8135C160.264 56.5173 160.633 56.2211 161.114 55.9249C160.519 55.671 160.024 55.2479 159.655 54.6696C159.287 54.0772 159.103 53.4002 159.103 52.6244C159.103 51.3691 159.5 50.41 160.293 49.7189C161.086 49.0277 162.219 48.6892 163.677 48.6892C164.003 48.6892 164.343 48.7174 164.711 48.7597C165.065 48.802 165.334 48.8444 165.518 48.9008H169.498V48.9149ZM160.406 62.2579C160.406 62.7798 160.647 63.1888 161.114 63.4709C161.596 63.753 162.261 63.8941 163.125 63.8941C164.47 63.8941 165.462 63.6966 166.127 63.3158C166.779 62.9349 167.105 62.4272 167.105 61.7925C167.105 61.2988 166.92 60.9321 166.566 60.7205C166.212 60.5089 165.533 60.4102 164.555 60.4102H162.686C161.978 60.4102 161.426 60.5795 161.001 60.9039C160.604 61.2424 160.406 61.6937 160.406 62.2579ZM161.454 52.6526C161.454 53.372 161.638 53.9361 162.006 54.317C162.374 54.6978 162.913 54.8953 163.621 54.8953C165.051 54.8953 165.759 54.1336 165.759 52.6244C165.759 51.8769 165.589 51.2986 165.235 50.8895C164.881 50.4805 164.343 50.283 163.621 50.283C162.913 50.283 162.374 50.4805 162.006 50.8895C161.638 51.2986 161.454 51.8769 161.454 52.6526Z" fill="#BEBEBE"/>
<path d="M184.538 60.452L180.091 47.7155H180.006C180.119 49.6055 180.176 51.3827 180.176 53.0329V60.452H177.91V45.2048H181.437L185.685 57.3349H185.742L190.118 45.2048H193.658V60.452H191.251V52.906C191.251 52.1443 191.265 51.157 191.307 49.944C191.35 48.731 191.378 47.9976 191.407 47.7296H191.322L186.719 60.452H184.538Z" fill="#BEBEBE"/>
<path d="M207.651 54.6696C207.651 56.5455 207.169 58.0265 206.192 59.0844C205.215 60.1422 203.87 60.6641 202.142 60.6641C201.066 60.6641 200.103 60.4243 199.281 59.9306C198.446 59.437 197.808 58.7458 197.355 57.829C196.916 56.9122 196.69 55.8685 196.69 54.6555C196.69 52.7796 197.171 51.3127 198.134 50.2689C199.097 49.2252 200.457 48.6892 202.213 48.6892C203.884 48.6892 205.215 49.2252 206.192 50.2971C207.155 51.3973 207.651 52.8501 207.651 54.6696ZM199.21 54.6696C199.21 57.3213 200.202 58.6612 202.184 58.6612C204.139 58.6612 205.116 57.3213 205.116 54.6696C205.116 52.032 204.125 50.7062 202.156 50.7062C201.122 50.7062 200.372 51.0447 199.904 51.7217C199.451 52.4128 199.21 53.4002 199.21 54.6696Z" fill="#BEBEBE"/>
<path d="M220.58 60.4523H218.102V53.3577C218.102 52.4691 217.932 51.8062 217.564 51.3689C217.21 50.9317 216.629 50.706 215.85 50.706C214.816 50.706 214.052 51.0163 213.57 51.6228C213.088 52.2434 212.848 53.2589 212.848 54.6976V60.4523H210.384V48.9147H212.31L212.664 50.4239H212.791C213.145 49.8738 213.641 49.4507 214.278 49.1545C214.915 48.8583 215.623 48.7031 216.417 48.7031C219.192 48.7031 220.58 50.1136 220.58 52.9204V60.4523Z" fill="#BEBEBE"/>
<path d="M234.233 48.9149V50.2548L232.25 50.6215C232.434 50.8613 232.59 51.1716 232.703 51.5101C232.817 51.8628 232.887 52.2436 232.887 52.6385C232.887 53.8233 232.477 54.7683 231.655 55.4454C230.834 56.1224 229.701 56.4609 228.256 56.4609C227.888 56.4609 227.548 56.4327 227.251 56.3763C226.713 56.7007 226.458 57.0815 226.458 57.5187C226.458 57.7867 226.585 57.9842 226.826 58.1111C227.067 58.2381 227.534 58.3086 228.186 58.3086H230.211C231.485 58.3086 232.448 58.5766 233.114 59.1267C233.78 59.6626 234.105 60.4525 234.105 61.4681C234.105 62.7798 233.567 63.7812 232.477 64.5006C231.4 65.2058 229.828 65.5725 227.789 65.5725C226.217 65.5725 224.999 65.2904 224.178 64.7403C223.342 64.1762 222.931 63.4004 222.931 62.3566C222.931 61.6514 223.158 61.059 223.611 60.5653C224.064 60.0858 224.702 59.7473 225.509 59.5639C225.183 59.4229 224.914 59.1972 224.702 58.8869C224.489 58.5766 224.376 58.2522 224.376 57.9137C224.376 57.4764 224.503 57.1097 224.73 56.8135C224.985 56.5173 225.339 56.2211 225.82 55.9249C225.226 55.671 224.73 55.2479 224.362 54.6696C223.994 54.0772 223.795 53.4002 223.795 52.6244C223.795 51.3691 224.192 50.41 224.985 49.7189C225.778 49.0277 226.911 48.6892 228.37 48.6892C228.695 48.6892 229.035 48.7174 229.403 48.7597C229.772 48.802 230.041 48.8444 230.211 48.9008H234.233V48.9149ZM225.141 62.2579C225.141 62.7798 225.381 63.1888 225.863 63.4709C226.33 63.753 227.01 63.8941 227.874 63.8941C229.219 63.8941 230.211 63.6966 230.876 63.3158C231.528 62.9349 231.868 62.4272 231.868 61.7925C231.868 61.2988 231.684 60.9321 231.33 60.7205C230.975 60.5089 230.296 60.4102 229.318 60.4102H227.463C226.755 60.4102 226.189 60.5795 225.778 60.9039C225.339 61.2424 225.141 61.6937 225.141 62.2579ZM226.189 52.6526C226.189 53.372 226.373 53.9361 226.755 54.317C227.123 54.6978 227.662 54.8953 228.355 54.8953C229.786 54.8953 230.494 54.1336 230.494 52.6244C230.494 51.8769 230.31 51.2986 229.956 50.8895C229.602 50.4805 229.064 50.283 228.355 50.283C227.647 50.283 227.109 50.4805 226.741 50.8895C226.373 51.2986 226.189 51.8769 226.189 52.6526Z" fill="#BEBEBE"/>
<path d="M239.572 54.3588L240.96 52.6239L244.458 48.9144H247.29L242.631 53.8651L247.588 60.452H244.699L240.988 55.3884L239.643 56.4886V60.4379H237.207V45.2048H239.643V52.1443L239.515 54.3729H239.572V54.3588Z" fill="#BEBEBE"/>
<path d="M257.841 60.4519L257.487 58.9427H257.36C257.02 59.4787 256.524 59.9018 255.901 60.198C255.264 60.5083 254.541 60.6494 253.734 60.6494C252.332 60.6494 251.284 60.3108 250.59 59.6056C249.896 58.9145 249.556 57.8566 249.556 56.4462V48.9001H252.035V56.0089C252.035 56.8975 252.219 57.5604 252.573 57.9977C252.941 58.4349 253.508 58.6606 254.287 58.6606C255.32 58.6606 256.071 58.3503 256.552 57.7438C257.034 57.1232 257.289 56.0935 257.289 54.6549V48.9001H259.753V60.4378H257.841V60.4519Z" fill="#BEBEBE"/>
<path d="M268.165 58.6888C268.76 58.6888 269.355 58.59 269.964 58.4067V60.2544C269.695 60.3672 269.341 60.466 268.916 60.5506C268.491 60.6352 268.038 60.6634 267.585 60.6634C265.248 60.6634 264.087 59.4363 264.087 56.9962V50.776H262.5V49.69L264.2 48.7873L265.035 46.3472H266.551V48.9142H269.851V50.776H266.551V56.9539C266.551 57.5463 266.707 57.9835 266.99 58.2656C267.301 58.5477 267.684 58.6888 268.165 58.6888Z" fill="#BEBEBE"/>
<path d="M274.468 45.2048L274.624 45.4305C274.255 46.8833 273.646 48.5476 272.783 50.4236H270.998C271.48 48.4207 271.819 46.6717 272.046 45.2048H274.468V45.2048Z" fill="#BEBEBE"/>
<path d="M284.635 57.1663C284.635 58.2947 284.225 59.155 283.403 59.7615C282.582 60.3539 281.407 60.6642 279.863 60.6642C278.319 60.6642 277.087 60.4386 276.152 59.9731V57.8574C277.512 58.478 278.787 58.8024 279.948 58.8024C281.463 58.8024 282.228 58.3511 282.228 57.4343C282.228 57.1381 282.143 56.8983 281.973 56.7008C281.803 56.5034 281.534 56.3059 281.152 56.1084C280.769 55.8969 280.231 55.6571 279.551 55.3891C278.22 54.8672 277.314 54.3595 276.846 53.8517C276.365 53.3439 276.138 52.6669 276.138 51.8488C276.138 50.8615 276.535 50.0857 277.342 49.5498C278.135 48.9997 279.226 48.7317 280.599 48.7317C281.959 48.7317 283.248 48.9997 284.465 49.5498L283.672 51.3975C282.426 50.8756 281.378 50.6217 280.528 50.6217C279.226 50.6217 278.574 50.9884 278.574 51.7219C278.574 52.0886 278.744 52.3989 279.084 52.6387C279.424 52.8926 280.16 53.2311 281.307 53.6683C282.256 54.035 282.964 54.3736 283.389 54.6698C283.828 54.9801 284.14 55.3327 284.352 55.7276C284.522 56.1366 284.635 56.6162 284.635 57.1663Z" fill="#BEBEBE"/>
<path d="M138.03 67.5046V77.3638C138.03 78.4921 137.79 79.4795 137.308 80.3257C136.827 81.172 136.118 81.8208 135.198 82.2722C134.277 82.7235 133.187 82.9492 131.898 82.9492C130 82.9492 128.528 82.4555 127.465 81.4541C126.417 80.4527 125.879 79.0704 125.879 77.3214V67.5046H128.386V77.1522C128.386 78.4075 128.683 79.3384 129.264 79.9308C129.845 80.5232 130.751 80.8335 131.969 80.8335C134.334 80.8335 135.509 79.5923 135.509 77.124V67.4905H138.03V67.5046Z" fill="#BEBEBE"/>
<path d="M152.094 82.7512H149.615V75.6565C149.615 74.7679 149.431 74.105 149.077 73.6677C148.723 73.2305 148.142 73.0048 147.363 73.0048C146.315 73.0048 145.565 73.3151 145.083 73.9216C144.602 74.5422 144.361 75.5578 144.361 76.9964V82.7512H141.911V71.2135H143.837L144.177 72.7227H144.304C144.658 72.1726 145.154 71.7495 145.791 71.4533C146.443 71.1571 147.151 71.002 147.93 71.002C150.706 71.002 152.094 72.4124 152.094 75.2193V82.7512Z" fill="#BEBEBE"/>
<path d="M155.591 68.1677C155.591 67.7305 155.719 67.392 155.959 67.1522C156.2 66.9124 156.54 66.7996 156.993 66.7996C157.432 66.7996 157.772 66.9124 158.013 67.1522C158.254 67.392 158.367 67.7305 158.367 68.1677C158.367 68.5768 158.254 68.9153 158.013 69.155C157.772 69.3948 157.432 69.5077 156.993 69.5077C156.54 69.5077 156.2 69.3807 155.959 69.155C155.719 68.9012 155.591 68.5768 155.591 68.1677ZM158.197 82.7519H155.733V71.2143H158.197V82.7519Z" fill="#BEBEBE"/>
<path d="M164.57 82.752L160.166 71.2144H162.757L165.108 77.9282C165.519 79.0566 165.76 79.9593 165.845 80.6645H165.93C165.986 80.1567 166.241 79.254 166.666 77.9282L169.017 71.2144H171.637L167.218 82.752H164.57Z" fill="#BEBEBE"/>
<path d="M178.689 82.9633C176.891 82.9633 175.475 82.4414 174.469 81.3977C173.449 80.3539 172.94 78.9011 172.94 77.0675C172.94 75.1775 173.407 73.6965 174.356 72.6245C175.29 71.5526 176.593 71.0166 178.236 71.0166C179.766 71.0166 180.969 71.4821 181.862 72.3989C182.754 73.3298 183.193 74.5992 183.193 76.2212V77.5471H175.475C175.503 78.6755 175.814 79.5359 176.395 80.1283C176.962 80.7348 177.769 81.031 178.817 81.031C179.497 81.031 180.148 80.9745 180.729 80.8476C181.309 80.7207 181.947 80.5091 182.626 80.1988V82.1875C182.017 82.4696 181.423 82.6671 180.799 82.794C180.176 82.9069 179.482 82.9633 178.689 82.9633ZM178.236 72.8643C177.457 72.8643 176.82 73.1041 176.353 73.6119C175.885 74.1055 175.602 74.8249 175.517 75.7699H180.771C180.757 74.8108 180.516 74.0914 180.077 73.6119C179.638 73.1041 179.015 72.8643 178.236 72.8643Z" fill="#BEBEBE"/>
<path d="M192.072 71.002C192.568 71.002 192.979 71.0302 193.305 71.1007L193.064 73.3856C192.71 73.301 192.356 73.2587 191.973 73.2587C190.982 73.2587 190.189 73.5831 189.58 74.2178C188.971 74.8525 188.659 75.6847 188.659 76.7144V82.7512H186.195V71.2135H188.121L188.447 73.2446H188.574C188.957 72.5535 189.467 72.0034 190.076 71.6085C190.699 71.2135 191.364 71.002 192.072 71.002Z" fill="#BEBEBE"/>
<path d="M203.459 79.4658C203.459 80.5942 203.048 81.4546 202.212 82.0611C201.391 82.6535 200.216 82.9638 198.672 82.9638C197.128 82.9638 195.896 82.7381 194.947 82.2727V80.157C196.307 80.7776 197.581 81.102 198.743 81.102C200.258 81.102 201.023 80.6506 201.023 79.7338C201.023 79.4376 200.938 79.1979 200.768 79.0004C200.598 78.8029 200.329 78.6055 199.946 78.408C199.564 78.1964 199.026 77.9566 198.346 77.6887C197.015 77.1668 196.109 76.659 195.641 76.1512C195.174 75.6435 194.933 74.9665 194.933 74.1484C194.933 73.1611 195.33 72.3853 196.123 71.8493C196.93 71.2992 198.006 71.0312 199.38 71.0312C200.74 71.0312 202.028 71.2992 203.246 71.8493L202.453 73.697C201.207 73.1752 200.145 72.9213 199.295 72.9213C197.992 72.9213 197.341 73.288 197.341 74.0214C197.341 74.3882 197.511 74.6985 197.851 74.9382C198.19 75.1921 198.927 75.5306 200.074 75.9679C201.023 76.3346 201.717 76.6731 202.156 76.9834C202.595 77.2937 202.906 77.6463 203.119 78.0413C203.345 78.4362 203.459 78.9158 203.459 79.4658Z" fill="#BEBEBE"/>
<path d="M206.178 68.1677C206.178 67.7305 206.292 67.392 206.532 67.1522C206.773 66.9124 207.127 66.7996 207.566 66.7996C208.005 66.7996 208.345 66.9124 208.586 67.1522C208.827 67.392 208.94 67.7305 208.94 68.1677C208.94 68.5768 208.827 68.9153 208.586 69.155C208.345 69.3948 208.005 69.5077 207.566 69.5077C207.127 69.5077 206.773 69.3807 206.532 69.155C206.292 68.9012 206.178 68.5768 206.178 68.1677ZM208.784 82.7519H206.32V71.2143H208.784V82.7519Z" fill="#BEBEBE"/>
<path d="M216.842 80.9891C217.437 80.9891 218.046 80.8903 218.641 80.707V82.5547C218.372 82.6675 218.018 82.7804 217.593 82.8509C217.154 82.9355 216.715 82.9637 216.247 82.9637C213.911 82.9637 212.749 81.7507 212.749 79.2965V73.0763H211.163V71.9903L212.863 71.0876L213.698 68.6475H215.214V71.2145H218.513V73.0763H215.214V79.2542C215.214 79.8466 215.369 80.2838 215.653 80.5518C215.964 80.8339 216.361 80.9891 216.842 80.9891Z" fill="#BEBEBE"/>
<path d="M219.405 71.2144H222.082L224.433 77.7589C224.787 78.6898 225.028 79.5643 225.141 80.3824H225.226C225.283 80.0016 225.41 79.5361 225.566 78.986C225.736 78.436 226.628 75.8548 228.228 71.2144H230.891L225.934 84.2894C225.028 86.6872 223.526 87.8861 221.43 87.8861C220.878 87.8861 220.354 87.8297 219.83 87.7027V85.7563C220.198 85.8409 220.623 85.8832 221.105 85.8832C222.294 85.8832 223.13 85.2062 223.611 83.8239L224.036 82.7379L219.405 71.2144Z" fill="#BEBEBE"/>
<path d="M248.947 76.9691C248.947 78.8451 248.465 80.326 247.488 81.3839C246.511 82.4417 245.166 82.9636 243.438 82.9636C242.362 82.9636 241.399 82.7238 240.563 82.2302C239.728 81.7365 239.09 81.0454 238.651 80.1286C238.198 79.2118 237.986 78.168 237.986 76.955C237.986 75.0791 238.467 73.6122 239.43 72.5685C240.393 71.5247 241.753 70.9888 243.509 70.9888C245.18 70.9888 246.511 71.5247 247.488 72.5967C248.465 73.6969 248.947 75.1496 248.947 76.9691ZM240.521 76.9691C240.521 79.6208 241.512 80.9608 243.48 80.9608C245.435 80.9608 246.412 79.6208 246.412 76.9691C246.412 74.3316 245.421 73.0057 243.452 73.0057C242.418 73.0057 241.668 73.3442 241.2 74.0213C240.747 74.7124 240.521 75.6997 240.521 76.9691Z" fill="#BEBEBE"/>
<path d="M257.799 73.0759H254.967V82.7517H252.488V73.0759H250.576V71.9334L252.488 71.1858V70.4383C252.488 69.0701 252.814 68.0687 253.451 67.4058C254.103 66.7429 255.08 66.4185 256.397 66.4185C257.261 66.4185 258.111 66.5595 258.946 66.8416L258.295 68.7034C257.686 68.5059 257.105 68.4072 256.553 68.4072C256 68.4072 255.59 68.5765 255.335 68.9291C255.08 69.2676 254.952 69.7895 254.952 70.4806V71.2282H257.785V73.0759H257.799Z" fill="#BEBEBE"/>
<path d="M132.904 104.825H130.397V91.7081H125.894V89.5642H137.407V91.7081H132.904V104.825V104.825Z" fill="#BEBEBE"/>
<path d="M144.021 105.037C142.223 105.037 140.807 104.515 139.787 103.471C138.781 102.427 138.272 100.975 138.272 99.1551C138.272 97.2651 138.739 95.7841 139.688 94.698C140.637 93.6261 141.925 93.0901 143.582 93.0901C145.112 93.0901 146.316 93.5555 147.208 94.4724C148.086 95.4033 148.539 96.6727 148.539 98.2947V99.6206H140.821C140.849 100.749 141.161 101.609 141.727 102.202C142.294 102.808 143.101 103.104 144.149 103.104C144.829 103.104 145.466 103.034 146.061 102.921C146.641 102.794 147.293 102.568 147.958 102.272V104.261C147.364 104.543 146.755 104.741 146.132 104.868C145.523 104.966 144.814 105.037 144.021 105.037ZM143.582 94.9378C142.803 94.9378 142.18 95.1776 141.699 95.6853C141.231 96.179 140.948 96.8984 140.849 97.8434H146.103C146.089 96.8843 145.862 96.1649 145.409 95.6853C144.97 95.1776 144.361 94.9378 143.582 94.9378Z" fill="#BEBEBE"/>
<path d="M156.214 105.037C154.458 105.037 153.127 104.529 152.221 103.513C151.314 102.498 150.861 101.031 150.861 99.1269C150.861 97.1804 151.328 95.6995 152.291 94.6557C153.24 93.612 154.628 93.0901 156.427 93.0901C157.645 93.0901 158.749 93.3158 159.726 93.7671L158.99 95.7418C157.956 95.3327 157.092 95.1353 156.413 95.1353C154.416 95.1353 153.41 96.4611 153.41 99.1128C153.41 100.41 153.651 101.384 154.161 102.032C154.656 102.681 155.393 103.006 156.356 103.006C157.46 103.006 158.494 102.738 159.472 102.188V104.332C159.032 104.585 158.565 104.769 158.069 104.882C157.531 104.98 156.922 105.037 156.214 105.037Z" fill="#BEBEBE"/>
<path d="M173.251 105.516H170.773V98.4216C170.773 97.533 170.589 96.87 170.235 96.4328C169.866 95.9955 169.3 95.7699 168.521 95.7699C167.487 95.7699 166.737 96.0802 166.241 96.6867C165.759 97.3073 165.519 98.3369 165.519 99.7756V105.502H163.055V90.269H165.519V93.4003C165.519 94.0632 165.476 94.7684 165.391 95.516H165.547C165.887 94.9659 166.354 94.5287 166.949 94.2184C167.544 93.9081 168.238 93.7529 169.031 93.7529C171.835 93.7529 173.237 95.1634 173.237 97.9702V105.516H173.251Z" fill="#BEBEBE"/>
<path d="M186.408 104.826H183.93V97.731C183.93 96.8424 183.746 96.1794 183.392 95.7422C183.024 95.305 182.457 95.0793 181.678 95.0793C180.644 95.0793 179.88 95.3896 179.398 95.9961C178.917 96.6026 178.676 97.6322 178.676 99.0709V104.826H176.212V93.288H178.138L178.478 94.7972H178.605C178.959 94.2471 179.455 93.824 180.092 93.5278C180.729 93.2316 181.452 93.0764 182.231 93.0764C185.006 93.0764 186.394 94.4869 186.394 97.2937V104.826H186.408Z" fill="#BEBEBE"/>
<path d="M200.315 99.0288C200.315 100.905 199.833 102.386 198.856 103.444C197.879 104.501 196.534 105.037 194.806 105.037C193.73 105.037 192.767 104.798 191.931 104.304C191.096 103.81 190.458 103.119 190.019 102.202C189.566 101.286 189.354 100.242 189.354 99.0288C189.354 97.1528 189.835 95.7001 190.798 94.6422C191.761 93.5985 193.121 93.0625 194.863 93.0625C196.548 93.0625 197.865 93.5985 198.842 94.6704C199.834 95.7706 200.315 97.2093 200.315 99.0288ZM191.889 99.0288C191.889 101.695 192.88 103.02 194.848 103.02C196.803 103.02 197.78 101.695 197.78 99.0288C197.78 96.3912 196.789 95.0795 194.82 95.0795C193.786 95.0795 193.036 95.418 192.568 96.095C192.115 96.7861 191.889 97.7593 191.889 99.0288Z" fill="#BEBEBE"/>
<path d="M205.824 104.825H203.36V89.5642H205.824V104.825Z" fill="#BEBEBE"/>
<path d="M219.83 99.0288C219.83 100.905 219.349 102.386 218.371 103.444C217.408 104.501 216.049 105.037 214.321 105.037C213.245 105.037 212.282 104.798 211.446 104.304C210.611 103.81 209.973 103.119 209.534 102.202C209.081 101.286 208.854 100.242 208.854 99.0288C208.854 97.1528 209.336 95.7001 210.299 94.6422C211.262 93.5985 212.622 93.0625 214.378 93.0625C216.049 93.0625 217.38 93.5985 218.357 94.6704C219.349 95.7706 219.83 97.2093 219.83 99.0288ZM211.404 99.0288C211.404 101.695 212.395 103.02 214.378 103.02C216.332 103.02 217.309 101.695 217.309 99.0288C217.309 96.3912 216.332 95.0795 214.349 95.0795C213.316 95.0795 212.565 95.418 212.098 96.095C211.63 96.7861 211.404 97.7593 211.404 99.0288Z" fill="#BEBEBE"/>
<path d="M232.661 93.288V94.6279L230.678 94.9947C230.862 95.2344 231.018 95.5447 231.131 95.8974C231.245 96.25 231.316 96.6308 231.316 97.0257C231.316 98.2105 230.905 99.1555 230.083 99.8326C229.262 100.51 228.129 100.848 226.685 100.848C226.316 100.848 225.976 100.82 225.679 100.763C225.141 101.088 224.886 101.469 224.886 101.906C224.886 102.174 225.013 102.371 225.254 102.498C225.509 102.625 225.962 102.696 226.628 102.696H228.653C229.928 102.696 230.905 102.964 231.57 103.514C232.222 104.05 232.562 104.84 232.562 105.855C232.562 107.167 232.024 108.168 230.933 108.888C229.857 109.593 228.285 109.946 226.246 109.946C224.659 109.946 223.47 109.664 222.634 109.113C221.799 108.563 221.388 107.759 221.388 106.744C221.388 106.039 221.615 105.432 222.054 104.953C222.507 104.473 223.13 104.134 223.951 103.951C223.626 103.81 223.356 103.584 223.144 103.274C222.932 102.964 222.818 102.639 222.818 102.301C222.818 101.864 222.946 101.497 223.187 101.201C223.427 100.905 223.795 100.608 224.277 100.312C223.668 100.044 223.187 99.6351 222.818 99.0568C222.45 98.4785 222.252 97.8015 222.252 97.0116C222.252 95.7563 222.648 94.7831 223.441 94.1061C224.235 93.4149 225.367 93.0764 226.826 93.0764C227.152 93.0764 227.492 93.0905 227.86 93.1469C228.214 93.1893 228.483 93.2316 228.667 93.288H232.661V93.288ZM223.555 106.617C223.555 107.139 223.795 107.548 224.277 107.83C224.758 108.112 225.424 108.253 226.288 108.253C227.633 108.253 228.625 108.056 229.29 107.675C229.942 107.294 230.268 106.786 230.268 106.151C230.268 105.644 230.083 105.291 229.729 105.08C229.375 104.868 228.696 104.769 227.718 104.769H225.849C225.141 104.769 224.589 104.938 224.164 105.263C223.767 105.601 223.555 106.053 223.555 106.617ZM224.617 97.0257C224.617 97.7451 224.801 98.3093 225.183 98.6901C225.552 99.085 226.09 99.2684 226.784 99.2684C228.214 99.2684 228.922 98.5067 228.922 96.9975C228.922 96.2359 228.738 95.6717 228.398 95.2626C228.044 94.8536 227.506 94.6561 226.784 94.6561C226.076 94.6561 225.523 94.8536 225.169 95.2626C224.801 95.6576 224.617 96.25 224.617 97.0257Z" fill="#BEBEBE"/>
<path d="M235.182 93.2874H237.859L240.21 99.8319C240.564 100.763 240.805 101.637 240.932 102.455H241.017C241.074 102.075 241.187 101.609 241.357 101.059C241.527 100.509 242.419 97.9278 244.019 93.2874H246.682L241.725 106.362C240.819 108.76 239.332 109.959 237.222 109.959C236.669 109.959 236.145 109.903 235.635 109.776V107.829C236.004 107.914 236.429 107.956 236.896 107.956C238.085 107.956 238.921 107.265 239.403 105.897L239.827 104.811L235.182 93.2874Z" fill="#BEBEBE"/>
<path d="M132.904 127.788H130.397V114.671H125.894V112.527H137.407V114.671H132.904V127.788V127.788Z" fill="#BEBEBE"/>
<path d="M149.898 127.789H147.42V120.694C147.42 119.805 147.235 119.143 146.881 118.705C146.527 118.268 145.947 118.042 145.168 118.042C144.134 118.042 143.369 118.353 142.888 118.959C142.406 119.58 142.165 120.609 142.165 122.048V127.775H139.701V112.542H142.165V115.673C142.165 116.336 142.123 117.041 142.038 117.788H142.194C142.534 117.238 142.987 116.801 143.596 116.491C144.191 116.181 144.885 116.025 145.692 116.025C148.496 116.025 149.898 117.436 149.898 120.243V127.789Z" fill="#BEBEBE"/>
<path d="M163.82 122.005C163.82 123.881 163.338 125.362 162.361 126.42C161.384 127.478 160.038 128.014 158.311 128.014C157.22 128.014 156.271 127.774 155.436 127.281C154.6 126.787 153.963 126.096 153.51 125.179C153.057 124.262 152.844 123.218 152.844 122.005C152.844 120.129 153.326 118.677 154.289 117.619C155.252 116.575 156.611 116.039 158.367 116.039C160.038 116.039 161.37 116.575 162.347 117.647C163.324 118.733 163.82 120.186 163.82 122.005ZM155.379 122.005C155.379 124.671 156.37 125.997 158.339 125.997C160.293 125.997 161.285 124.671 161.285 122.005C161.285 119.368 160.293 118.056 158.325 118.056C157.291 118.056 156.54 118.395 156.073 119.072C155.62 119.749 155.379 120.722 155.379 122.005Z" fill="#BEBEBE"/>
<path d="M177.046 127.788H174.568V120.694C174.568 119.805 174.384 119.142 174.03 118.705C173.676 118.268 173.095 118.042 172.316 118.042C171.282 118.042 170.518 118.352 170.036 118.959C169.555 119.565 169.314 120.595 169.314 122.034V127.788H166.85V116.251H168.776L169.116 117.76H169.243C169.597 117.21 170.093 116.787 170.73 116.49C171.367 116.194 172.09 116.039 172.869 116.039C175.658 116.039 177.046 117.45 177.046 120.256V127.788V127.788Z" fill="#BEBEBE"/>
<path d="M186.606 116.039C188.051 116.039 189.184 116.561 189.991 117.605C190.798 118.649 191.195 120.116 191.195 121.992C191.195 123.882 190.784 125.349 189.963 126.406C189.141 127.464 188.008 127.986 186.564 127.986C185.091 127.986 183.958 127.464 183.151 126.406H182.981L182.528 127.775H180.687V112.542H183.151V115.419C183.151 115.701 183.137 116.124 183.108 116.688C183.08 117.252 183.066 117.605 183.052 117.76H183.151C183.93 116.618 185.091 116.039 186.606 116.039ZM185.969 118.042C184.978 118.042 184.27 118.339 183.83 118.917C183.391 119.495 183.165 120.468 183.151 121.837V122.006C183.151 123.416 183.377 124.432 183.816 125.066C184.27 125.701 184.992 126.011 186.011 126.011C186.889 126.011 187.541 125.673 187.994 124.982C188.447 124.291 188.674 123.303 188.674 121.992C188.674 119.354 187.768 118.042 185.969 118.042Z" fill="#BEBEBE"/>
<path d="M202.439 127.789L202.099 126.279H201.972C201.632 126.815 201.15 127.238 200.513 127.535C199.876 127.845 199.168 128 198.36 128C196.958 128 195.91 127.648 195.216 126.956C194.523 126.251 194.183 125.207 194.183 123.797V116.251H196.661V123.36C196.661 124.248 196.845 124.911 197.199 125.348C197.567 125.786 198.134 126.011 198.913 126.011C199.947 126.011 200.711 125.701 201.193 125.08C201.674 124.46 201.915 123.43 201.915 121.992V116.237H204.393V127.774H202.439V127.789Z" fill="#BEBEBE"/>
<path d="M213.982 116.039C214.477 116.039 214.888 116.067 215.2 116.138L214.959 118.423C214.605 118.338 214.251 118.296 213.868 118.296C212.891 118.296 212.084 118.62 211.475 119.255C210.866 119.89 210.554 120.722 210.554 121.751V127.774H208.09V116.237H210.016L210.342 118.268H210.469C210.852 117.576 211.347 117.026 211.971 116.631C212.608 116.251 213.259 116.039 213.982 116.039Z" fill="#BEBEBE"/>
<path d="M217.423 113.19C217.423 112.753 217.536 112.414 217.777 112.175C218.017 111.935 218.371 111.822 218.81 111.822C219.249 111.822 219.575 111.949 219.816 112.175C220.057 112.414 220.184 112.753 220.184 113.19C220.184 113.613 220.057 113.938 219.816 114.177C219.575 114.417 219.235 114.544 218.81 114.544C218.371 114.544 218.017 114.417 217.777 114.177C217.536 113.938 217.423 113.613 217.423 113.19ZM220.028 127.789H217.564V116.251H220.028V127.789Z" fill="#BEBEBE"/>
</g>
<defs>
<clipPath id="clip0">
<rect width="284.444" height="128" fill="white" transform="translate(0.555542)"/>
</clipPath>
</defs>
</svg>
