<svg width="155" height="93" viewBox="0 0 155 93" fill="none" xmlns="http://www.w3.org/2000/svg">
<path d="M39.6733 56.3834C39.6733 62.5082 34.6804 67.4558 28.5903 67.4558C26.2677 67.4558 24.0802 66.7543 22.3281 65.53C21.977 66.5789 20.971 67.3681 19.786 67.3681C18.2973 67.3681 17.1157 66.1843 17.1157 64.7408V36.9098C17.1157 35.4663 18.2973 34.2421 19.786 34.2421C21.2309 34.2421 22.4125 35.4663 22.4125 36.9098V47.1492C24.2084 46.0126 26.3116 45.3111 28.587 45.3111C34.6804 45.3144 39.6733 50.2587 39.6733 56.3834ZM34.3732 56.3834C34.3732 53.1896 31.7468 50.6061 28.5903 50.6061C25.3934 50.6061 22.8075 53.1862 22.8075 56.3834C22.8075 59.5773 25.39 62.1608 28.5903 62.1608C31.7434 62.1608 34.3732 59.5773 34.3732 56.3834Z" fill="#D5D5D5"/>
<path d="M53.4409 67.214C47.7458 67.214 43.0601 62.2698 43.0601 56.2294V47.872C43.0601 46.4285 44.1538 45.248 45.5143 45.248C46.9153 45.248 48.2724 46.4285 48.2724 47.872V56.2294C48.2724 59.3794 50.8988 61.919 53.4409 61.919C56.4184 61.919 58.6532 59.3828 58.6532 56.2294V48.2227C58.6532 46.7354 60.1859 45.5988 61.3674 45.5988C62.7245 45.5988 63.8656 46.7354 63.8656 48.2227V56.2294C63.8656 62.2664 59.1799 67.214 53.4409 67.214Z" fill="#D5D5D5"/>
<path d="M89.8125 36.9098V64.7408C89.8125 66.1843 88.6309 67.3681 87.1388 67.3681C85.9572 67.3681 84.9478 66.6228 84.5967 65.53C82.8446 66.7543 80.6537 67.4558 78.3345 67.4558C72.2444 67.4558 67.2515 62.5115 67.2515 56.3834C67.2515 50.3026 72.2444 45.3111 78.3345 45.3111C80.6132 45.3111 82.713 46.0126 84.509 47.1492V36.9098C84.509 35.4663 85.6905 34.2421 87.1354 34.2421C88.6309 34.2421 89.8125 35.4663 89.8125 36.9098ZM84.1174 56.3834C84.1174 53.1896 81.5314 50.6061 78.3345 50.6061C75.1375 50.6061 72.5516 53.1896 72.5516 56.3834C72.5516 59.5773 75.1375 62.1608 78.3345 62.1608C81.5348 62.1608 84.1174 59.5773 84.1174 56.3834Z" fill="#D5D5D5"/>
<path d="M115.757 36.9098V64.7408C115.757 66.1843 114.576 67.3681 113.087 67.3681C111.905 67.3681 110.896 66.6228 110.545 65.53C108.793 66.7543 106.602 67.4558 104.283 67.4558C98.196 67.4558 93.1997 62.5115 93.1997 56.3834C93.1997 50.3026 98.1926 45.3111 104.283 45.3111C106.561 45.3111 108.661 46.0126 110.457 47.1492V36.9098C110.457 35.4663 111.639 34.2421 113.087 34.2421C114.572 34.2421 115.757 35.4663 115.757 36.9098ZM110.062 56.3834C110.062 53.1896 107.48 50.6061 104.279 50.6061C101.079 50.6061 98.4965 53.1896 98.4965 56.3834C98.4965 59.5773 101.079 62.1608 104.279 62.1608C107.48 62.1608 110.062 59.5773 110.062 56.3834Z" fill="#D5D5D5"/>
<path d="M139.7 47.872V66.9948C139.7 73.0757 134.839 78.0672 128.924 78.0672C125.771 78.0672 122.834 76.6676 120.778 74.2157C119.86 73.1229 119.988 71.4602 121.042 70.4956C122.095 69.5311 123.712 69.6626 124.633 70.8025C125.727 72.0707 127.307 72.816 128.928 72.816C132.037 72.816 134.579 70.1921 134.579 66.9948V65.2006C133.134 66.0303 131.426 66.5564 129.586 66.5564C124.066 66.5564 119.556 61.7436 119.556 55.7909V47.9597C119.556 46.56 120.694 45.3357 122.098 45.3357C123.499 45.3357 124.637 46.56 124.637 47.9597V55.7909C124.637 58.8094 126.872 61.3052 129.586 61.3052C132.344 61.3052 134.579 58.8094 134.579 55.7909V47.872C134.579 46.4285 135.76 45.2481 137.117 45.2481C138.562 45.2447 139.7 46.4285 139.7 47.872Z" fill="#D5D5D5"/>
<path d="M28.4053 83.7771C28.5835 83.8868 28.7206 84.0309 28.8165 84.2093C28.9262 84.3877 28.9811 84.5729 28.9811 84.765C28.9811 85.012 28.8988 85.2384 28.7343 85.4442C28.5286 85.6912 28.2133 85.8147 27.7884 85.8147C27.4593 85.8147 27.1577 85.7392 26.8835 85.5883C25.8965 85.0257 25.4029 83.88 25.4029 82.1511C25.4029 81.6571 25.2384 81.266 24.9094 80.9779C24.5941 80.6897 24.1348 80.5457 23.5316 80.5457H19.6862V84.5386C19.6862 84.9091 19.5834 85.2109 19.3777 85.4442C19.1858 85.6775 18.9253 85.7941 18.5963 85.7941C18.1988 85.7941 17.8492 85.6775 17.5476 85.4442C17.2597 85.1972 17.1157 84.8953 17.1157 84.5386V72.6421C17.1157 72.2854 17.2323 71.9904 17.4653 71.7571C17.7121 71.5101 18.0137 71.3866 18.3701 71.3866H24.2925C25.0054 71.3866 25.6771 71.5787 26.3078 71.9629C26.9384 72.3471 27.4388 72.8754 27.8089 73.5478C28.1928 74.2201 28.3847 74.9748 28.3847 75.8118C28.3847 76.4979 28.1996 77.1702 27.8295 77.8288C27.4593 78.4737 26.9795 78.9883 26.39 79.3725C27.2537 79.9762 27.7267 80.7858 27.8089 81.8012C27.85 82.0207 27.8706 82.2334 27.8706 82.4392C27.9254 82.8646 27.9803 83.1733 28.0351 83.3654C28.09 83.5438 28.2133 83.681 28.4053 83.7771ZM24.1897 78.4257C24.4364 78.4257 24.6764 78.3091 24.9094 78.0758C25.1425 77.8426 25.3344 77.5338 25.4852 77.1496C25.636 76.7517 25.7114 76.3263 25.7114 75.8735C25.7114 75.4893 25.636 75.1394 25.4852 74.8238C25.3344 74.4945 25.1425 74.2338 24.9094 74.0417C24.6764 73.8496 24.4364 73.7536 24.1897 73.7536H19.6862V78.4257H24.1897ZM40.7979 80.0311C40.7841 80.3604 40.6539 80.628 40.4071 80.8338C40.1604 81.0396 39.8725 81.1425 39.5435 81.1425H32.7574C32.9219 81.9521 33.2989 82.5902 33.8884 83.0567C34.4779 83.5095 35.1428 83.7359 35.8831 83.7359C36.4452 83.7359 36.8839 83.6879 37.1992 83.5918C37.5145 83.482 37.7613 83.3723 37.9395 83.2625C38.1314 83.139 38.2616 83.0567 38.3302 83.0155C38.577 82.892 38.81 82.8303 39.0294 82.8303C39.3173 82.8303 39.564 82.9332 39.7697 83.139C39.9753 83.3448 40.0781 83.585 40.0781 83.8594C40.0781 84.2299 39.8862 84.566 39.5023 84.8679C39.1185 85.1835 38.6044 85.4511 37.96 85.6706C37.3157 85.8901 36.6645 85.9999 36.0065 85.9999C34.8549 85.9999 33.8473 85.7598 32.9836 85.2795C32.1336 84.7993 31.4756 84.1407 31.0095 83.3037C30.5434 82.4529 30.3103 81.4993 30.3103 80.4428C30.3103 79.2627 30.5571 78.2267 31.0506 77.3349C31.5441 76.443 32.1953 75.7638 33.0042 75.2972C33.813 74.817 34.6767 74.5769 35.5952 74.5769C36.5 74.5769 37.35 74.8238 38.1451 75.3178C38.954 75.8118 39.5983 76.4773 40.0781 77.3143C40.5579 78.1513 40.7979 79.0569 40.7979 80.0311ZM35.5952 76.8409C34.0049 76.8409 33.0659 77.5887 32.778 79.0843H38.1657V78.9403C38.1108 78.364 37.8298 77.87 37.3226 77.4584C36.8153 77.0467 36.2395 76.8409 35.5952 76.8409ZM55.5232 74.7827C55.8522 74.7827 56.1264 74.9062 56.3458 75.1532C56.5788 75.3864 56.6953 75.6883 56.6953 76.0588C56.6953 76.1823 56.6679 76.3401 56.6131 76.5322L53.4668 85.012C53.3846 85.259 53.2338 85.4579 53.0144 85.6089C52.8088 85.7461 52.5826 85.8147 52.3358 85.8147L52.1713 85.7941C51.7052 85.7667 51.3556 85.5059 51.1225 85.012L49.3746 79.9488L47.7089 85.012C47.4759 85.5059 47.1263 85.7667 46.6602 85.7941L46.4957 85.8147C46.2489 85.8147 46.0159 85.7461 45.7965 85.6089C45.5909 85.4579 45.4469 85.259 45.3647 85.012L42.2184 76.5322C42.1636 76.3812 42.1361 76.2234 42.1361 76.0588C42.1361 75.7157 42.2458 75.4207 42.4652 75.1737C42.6982 74.913 42.9998 74.7827 43.37 74.7827C43.6442 74.7827 43.8772 74.8513 44.0691 74.9885C44.2748 75.112 44.4187 75.3041 44.501 75.5648L46.7219 81.5953L48.3464 77.1908C48.5658 76.6831 48.9428 76.4292 49.4774 76.4292C49.7653 76.4292 49.9847 76.491 50.1355 76.6145C50.3 76.738 50.4371 76.9301 50.5468 77.1908L52.1302 81.4924L54.3305 75.5648C54.4128 75.3041 54.5567 75.112 54.7623 74.9885C54.968 74.8513 55.2216 74.7827 55.5232 74.7827ZM67.6247 74.5769C67.9811 74.5769 68.2759 74.6935 68.5089 74.9268C68.742 75.16 68.8585 75.4619 68.8585 75.8324V84.5386C68.8585 84.8953 68.742 85.1972 68.5089 85.4442C68.2759 85.6775 67.9811 85.7941 67.6247 85.7941C67.2682 85.7941 66.9735 85.6775 66.7404 85.4442C66.5211 85.2109 66.4045 84.9159 66.3908 84.5592C66.0481 84.9571 65.582 85.3001 64.9925 85.5883C64.4167 85.8627 63.8067 85.9999 63.1623 85.9999C62.2164 85.9999 61.3596 85.7598 60.5918 85.2795C59.8241 84.7856 59.2141 84.1064 58.7617 83.2419C58.323 82.3775 58.1036 81.3964 58.1036 80.2987C58.1036 79.201 58.323 78.2199 58.7617 77.3554C59.2004 76.4773 59.7967 75.7981 60.5507 75.3178C61.3184 74.8238 62.1615 74.5769 63.0801 74.5769C63.7381 74.5769 64.355 74.7004 64.9308 74.9473C65.5066 75.1806 65.9933 75.4825 66.3908 75.8529V75.8324C66.3908 75.4756 66.5074 75.1806 66.7404 74.9473C66.9735 74.7004 67.2682 74.5769 67.6247 74.5769ZM63.4708 83.7359C64.3619 83.7359 65.0885 83.4134 65.6505 82.7685C66.2126 82.1099 66.4937 81.2866 66.4937 80.2987C66.4937 79.3107 66.2126 78.4875 65.6505 77.8288C65.0885 77.1702 64.3619 76.8409 63.4708 76.8409C62.5934 76.8409 61.8737 77.1702 61.3116 77.8288C60.7495 78.4875 60.4685 79.3107 60.4685 80.2987C60.4685 81.2866 60.7426 82.1099 61.291 82.7685C61.8531 83.4134 62.5797 83.7359 63.4708 83.7359ZM77.2497 74.5769C77.661 74.5769 78.0037 74.6935 78.2779 74.9268C78.5658 75.16 78.7097 75.4344 78.7097 75.75C78.7097 76.1754 78.6001 76.4979 78.3807 76.7174C78.1614 76.9232 77.9009 77.0261 77.5993 77.0261C77.3937 77.0261 77.1606 76.9781 76.9001 76.8821C76.859 76.8683 76.763 76.8409 76.6122 76.7997C76.4751 76.7586 76.3243 76.738 76.1598 76.738C75.8034 76.738 75.4607 76.8478 75.1316 77.0673C74.8026 77.2868 74.5282 77.623 74.3089 78.0758C74.1032 78.5149 74.0004 79.0432 74.0004 79.6606V84.5386C74.0004 84.8953 73.8839 85.1972 73.6508 85.4442C73.4178 85.6775 73.123 85.7941 72.7666 85.7941C72.4101 85.7941 72.1154 85.6775 71.8823 85.4442C71.6493 85.1972 71.5328 84.8953 71.5328 84.5386V76.0382C71.5328 75.6814 71.6493 75.3864 71.8823 75.1532C72.1154 74.9062 72.4101 74.7827 72.7666 74.7827C73.123 74.7827 73.4178 74.9062 73.6508 75.1532C73.8839 75.3864 74.0004 75.6814 74.0004 76.0382V76.3058C74.3157 75.7432 74.7683 75.3178 75.3578 75.0297C75.9473 74.7278 76.578 74.5769 77.2497 74.5769ZM88.8916 70.5634C89.248 70.5634 89.5428 70.68 89.7758 70.9133C90.0089 71.1465 90.1254 71.4484 90.1254 71.8189V84.5386C90.1254 84.8953 90.0089 85.1972 89.7758 85.4442C89.5428 85.6775 89.248 85.7941 88.8916 85.7941C88.5351 85.7941 88.2404 85.6775 88.0073 85.4442C87.788 85.2109 87.6715 84.9159 87.6578 84.5592C87.315 84.9571 86.8489 85.3001 86.2594 85.5883C85.6836 85.8627 85.0736 85.9999 84.4292 85.9999C83.4833 85.9999 82.6265 85.7598 81.8587 85.2795C81.091 84.7856 80.481 84.1064 80.0286 83.2419C79.5899 82.3775 79.3705 81.3964 79.3705 80.2987C79.3705 79.201 79.5899 78.2199 80.0286 77.3554C80.4673 76.4773 81.0636 75.7981 81.8176 75.3178C82.5853 74.8238 83.4285 74.5769 84.347 74.5769C85.005 74.5769 85.6219 74.7004 86.1977 74.9473C86.7735 75.1806 87.2602 75.4825 87.6578 75.8529V71.8189C87.6578 71.4621 87.7743 71.1671 88.0073 70.9338C88.2404 70.6868 88.5351 70.5634 88.8916 70.5634ZM84.7377 83.7359C85.6288 83.7359 86.3554 83.4134 86.9174 82.7685C87.4795 82.1099 87.7606 81.2866 87.7606 80.2987C87.7606 79.3107 87.4795 78.4875 86.9174 77.8288C86.3554 77.1702 85.6288 76.8409 84.7377 76.8409C83.8603 76.8409 83.1406 77.1702 82.5785 77.8288C82.0164 78.4875 81.7354 79.3107 81.7354 80.2987C81.7354 81.2866 82.0096 82.1099 82.5579 82.7685C83.12 83.4134 83.8466 83.7359 84.7377 83.7359ZM92.1619 84.0858C92.0385 83.9211 91.9768 83.7153 91.9768 83.4683C91.9768 83.1116 92.1551 82.8097 92.5115 82.5627C92.7034 82.4392 92.9022 82.3775 93.1078 82.3775C93.3957 82.3775 93.6699 82.5078 93.9304 82.7685C94.3417 83.1939 94.7667 83.5095 95.2054 83.7153C95.6578 83.9211 96.1993 84.024 96.8299 84.024C97.8992 83.9829 98.4339 83.5781 98.4339 82.8097C98.4339 82.4118 98.2488 82.1099 97.8787 81.9041C97.5222 81.6983 96.9601 81.4924 96.1924 81.2866C95.3973 81.0671 94.7461 80.8475 94.2389 80.628C93.7453 80.4085 93.3135 80.0791 92.9433 79.6401C92.5869 79.1872 92.4087 78.5835 92.4087 77.8288C92.4087 77.1702 92.5938 76.6008 92.9639 76.1205C93.3478 75.6265 93.8413 75.2492 94.4445 74.9885C95.0614 74.7141 95.7126 74.5769 96.3981 74.5769C97.0972 74.5769 97.7964 74.7072 98.4956 74.9679C99.1947 75.2286 99.7431 75.6128 100.141 76.1205C100.319 76.3401 100.408 76.587 100.408 76.8615C100.408 77.1771 100.278 77.4378 100.017 77.6436C99.8254 77.7945 99.606 77.87 99.3593 77.87C99.0577 77.87 98.8109 77.7739 98.619 77.5818C98.3722 77.28 98.05 77.0399 97.6525 76.8615C97.2686 76.6831 96.8299 76.5939 96.3364 76.5939C95.2945 76.5939 94.7735 76.9712 94.7735 77.7259C94.7735 78.0278 94.8695 78.2748 95.0614 78.4669C95.2533 78.6453 95.4933 78.7893 95.7812 78.8991C96.0828 78.9951 96.5009 79.1186 97.0355 79.2696C97.7758 79.4754 98.3927 79.6881 98.8863 79.9076C99.3798 80.1272 99.798 80.4633 100.141 80.9161C100.483 81.3689 100.655 81.9658 100.655 82.7068C100.655 83.3791 100.456 83.9692 100.058 84.4768C99.6609 84.9708 99.1468 85.3482 98.5161 85.6089C97.8992 85.8696 97.2617 85.9999 96.6037 85.9999C95.6989 85.9999 94.8558 85.849 94.0743 85.5471C93.2929 85.2452 92.6554 84.7581 92.1619 84.0858Z" fill="#D5D5D5"/>
<path d="M47.1689 17.6104V18.4453C47.2686 18.2871 47.3901 18.1479 47.5337 18.0278C47.6772 17.9048 47.8354 17.8022 48.0083 17.7202C48.1841 17.6353 48.3701 17.5723 48.5664 17.5312C48.7656 17.4873 48.9692 17.4653 49.1772 17.4653C49.4995 17.4653 49.7954 17.5078 50.0649 17.5928C50.3374 17.6777 50.582 17.7964 50.7988 17.9487C51.0156 18.0981 51.2061 18.2769 51.3701 18.4849C51.5342 18.6929 51.6704 18.9214 51.7788 19.1704C51.8901 19.4194 51.9722 19.6831 52.0249 19.9614C52.0806 20.2397 52.1084 20.5239 52.1084 20.814C52.1084 21.2739 52.0469 21.7061 51.9238 22.1104C51.8037 22.5146 51.6221 22.8677 51.3789 23.1694C51.1387 23.4712 50.8369 23.71 50.4736 23.8857C50.1133 24.0586 49.6929 24.145 49.2124 24.145C49.0571 24.145 48.8901 24.1304 48.7114 24.1011C48.5327 24.0747 48.3525 24.0264 48.1709 23.9561C47.9922 23.8857 47.8193 23.792 47.6523 23.6748C47.4854 23.5576 47.3389 23.4082 47.2129 23.2266V26.395H46.0967V17.6104H47.1689ZM50.9219 20.7437C50.9219 20.4595 50.8867 20.1812 50.8164 19.9087C50.7461 19.6333 50.6348 19.3887 50.4824 19.1748C50.3301 18.958 50.1338 18.7837 49.8936 18.6519C49.6562 18.52 49.3691 18.4541 49.0322 18.4541C48.6895 18.4541 48.3994 18.5229 48.1621 18.6606C47.9248 18.7983 47.7314 18.9785 47.582 19.2012C47.4326 19.4238 47.3242 19.6743 47.2568 19.9526C47.1924 20.231 47.1602 20.5122 47.1602 20.7964C47.1602 21.1011 47.1938 21.3955 47.2612 21.6797C47.3315 21.9639 47.4429 22.2158 47.5952 22.4355C47.7505 22.6523 47.9512 22.8267 48.1973 22.9585C48.4463 23.0874 48.748 23.1519 49.1025 23.1519C49.4482 23.1519 49.7368 23.0845 49.9683 22.9497C50.2026 22.812 50.3901 22.6318 50.5308 22.4092C50.6714 22.1836 50.771 21.9258 50.8296 21.6357C50.8911 21.3457 50.9219 21.0483 50.9219 20.7437ZM54.1475 20.814C54.1475 21.2007 54.1929 21.5435 54.2837 21.8423C54.3745 22.1382 54.5034 22.3887 54.6704 22.5938C54.8403 22.7959 55.0439 22.9497 55.2812 23.0552C55.5186 23.1577 55.7837 23.209 56.0767 23.209C56.355 23.209 56.6099 23.1577 56.8413 23.0552C57.0757 22.9497 57.2778 22.7959 57.4478 22.5938C57.6177 22.3887 57.7495 22.1382 57.8433 21.8423C57.937 21.5435 57.9839 21.2007 57.9839 20.814C57.9839 20.4419 57.937 20.1064 57.8433 19.8076C57.7495 19.5088 57.6177 19.2554 57.4478 19.0474C57.2778 18.8364 57.0757 18.6753 56.8413 18.564C56.6099 18.4526 56.355 18.397 56.0767 18.397C55.7837 18.397 55.5186 18.4526 55.2812 18.564C55.0439 18.6753 54.8403 18.8364 54.6704 19.0474C54.5034 19.2554 54.3745 19.5088 54.2837 19.8076C54.1929 20.1064 54.1475 20.4419 54.1475 20.814ZM52.9961 20.814C52.9961 20.3423 53.0562 19.8999 53.1763 19.4868C53.2993 19.0737 53.4868 18.7148 53.7388 18.4102C53.9937 18.1025 54.3145 17.8608 54.7012 17.6851C55.0879 17.5093 55.5464 17.4214 56.0767 17.4214C56.6011 17.4214 57.0566 17.5093 57.4434 17.6851C57.8301 17.8608 58.1494 18.1025 58.4014 18.4102C58.6562 18.7148 58.8452 19.0737 58.9683 19.4868C59.0913 19.8999 59.1528 20.3423 59.1528 20.814C59.1528 21.2769 59.0913 21.7134 58.9683 22.1235C58.8452 22.5337 58.6562 22.8926 58.4014 23.2002C58.1494 23.5049 57.8301 23.7466 57.4434 23.9253C57.0566 24.1011 56.6011 24.189 56.0767 24.189C55.5464 24.189 55.0879 24.1011 54.7012 23.9253C54.3145 23.7466 53.9937 23.5049 53.7388 23.2002C53.4868 22.8926 53.2993 22.5337 53.1763 22.1235C53.0562 21.7134 52.9961 21.2769 52.9961 20.814ZM62.9014 24H61.7148L59.7241 17.6104H60.9414L62.3257 22.6948L63.6572 17.6104H64.6855L66.0171 22.6948L67.4014 17.6104H68.6187L66.6279 24H65.4414L64.1714 19.2979L62.9014 24ZM74.9688 22.0312C74.9072 22.3506 74.7974 22.6406 74.6392 22.9014C74.481 23.1592 74.2832 23.3804 74.0459 23.5649C73.8115 23.7495 73.542 23.8931 73.2373 23.9956C72.9326 24.0952 72.603 24.145 72.2485 24.145C71.7388 24.145 71.2935 24.0615 70.9126 23.8945C70.5317 23.7275 70.2139 23.4946 69.959 23.1958C69.707 22.897 69.5181 22.5425 69.3921 22.1323C69.2661 21.7192 69.2031 21.2681 69.2031 20.7788C69.2031 20.3013 69.2749 19.8604 69.4185 19.4561C69.562 19.0518 69.7642 18.7031 70.0249 18.4102C70.2886 18.1143 70.6021 17.8828 70.9653 17.7158C71.3315 17.5488 71.7344 17.4653 72.1738 17.4653C72.5576 17.4653 72.896 17.521 73.189 17.6323C73.4819 17.7437 73.7354 17.8945 73.9492 18.085C74.166 18.2725 74.3462 18.4893 74.4897 18.7354C74.6362 18.9814 74.752 19.2407 74.8369 19.5132C74.9219 19.7856 74.9805 20.0625 75.0127 20.3438C75.0479 20.6221 75.0625 20.8872 75.0566 21.1392H70.3545C70.3545 21.4146 70.3926 21.6738 70.4688 21.917C70.5479 22.1602 70.6665 22.374 70.8247 22.5586C70.9858 22.7402 71.1865 22.8853 71.4268 22.9937C71.6699 23.0991 71.9556 23.1519 72.2837 23.1519C72.48 23.1519 72.6631 23.1255 72.833 23.0728C73.0059 23.02 73.1597 22.9453 73.2944 22.8486C73.4321 22.752 73.5508 22.6348 73.6504 22.4971C73.75 22.3594 73.8262 22.2041 73.8789 22.0312H74.9688ZM72.1211 18.4541C71.8604 18.4541 71.623 18.501 71.4092 18.5947C71.1982 18.6855 71.0166 18.8115 70.8643 18.9727C70.7119 19.1338 70.5903 19.3213 70.4995 19.5352C70.4116 19.749 70.3618 19.979 70.3501 20.2251H73.8877C73.873 19.9761 73.8188 19.7432 73.7251 19.5264C73.6343 19.3096 73.5098 19.1221 73.3516 18.9639C73.1963 18.8057 73.0132 18.6812 72.8022 18.5903C72.5942 18.4995 72.3672 18.4541 72.1211 18.4541ZM77.1484 17.6104V18.9639C77.2305 18.7207 77.3447 18.5054 77.4912 18.3179C77.6406 18.1274 77.8164 17.9692 78.0186 17.8433C78.2207 17.7144 78.4463 17.6191 78.6953 17.5576C78.9443 17.4932 79.2109 17.4624 79.4951 17.4653V18.6343C79.0938 18.6343 78.748 18.6914 78.458 18.8057C78.1709 18.917 77.9336 19.0737 77.7461 19.2759C77.5615 19.478 77.4238 19.7183 77.333 19.9966C77.2451 20.2749 77.2012 20.5781 77.2012 20.9062V24H76.1025V17.6104H77.1484ZM85.6914 22.0312C85.6299 22.3506 85.52 22.6406 85.3618 22.9014C85.2036 23.1592 85.0059 23.3804 84.7686 23.5649C84.5342 23.7495 84.2646 23.8931 83.96 23.9956C83.6553 24.0952 83.3257 24.145 82.9712 24.145C82.4614 24.145 82.0161 24.0615 81.6353 23.8945C81.2544 23.7275 80.9365 23.4946 80.6816 23.1958C80.4297 22.897 80.2407 22.5425 80.1147 22.1323C79.9888 21.7192 79.9258 21.2681 79.9258 20.7788C79.9258 20.3013 79.9976 19.8604 80.1411 19.4561C80.2847 19.0518 80.4868 18.7031 80.7476 18.4102C81.0112 18.1143 81.3247 17.8828 81.688 17.7158C82.0542 17.5488 82.457 17.4653 82.8965 17.4653C83.2803 17.4653 83.6187 17.521 83.9116 17.6323C84.2046 17.7437 84.458 17.8945 84.6719 18.085C84.8887 18.2725 85.0688 18.4893 85.2124 18.7354C85.3589 18.9814 85.4746 19.2407 85.5596 19.5132C85.6445 19.7856 85.7031 20.0625 85.7354 20.3438C85.7705 20.6221 85.7852 20.8872 85.7793 21.1392H81.0771C81.0771 21.4146 81.1152 21.6738 81.1914 21.917C81.2705 22.1602 81.3892 22.374 81.5474 22.5586C81.7085 22.7402 81.9092 22.8853 82.1494 22.9937C82.3926 23.0991 82.6782 23.1519 83.0063 23.1519C83.2026 23.1519 83.3857 23.1255 83.5557 23.0728C83.7285 23.02 83.8823 22.9453 84.0171 22.8486C84.1548 22.752 84.2734 22.6348 84.373 22.4971C84.4727 22.3594 84.5488 22.2041 84.6016 22.0312H85.6914ZM82.8438 18.4541C82.583 18.4541 82.3457 18.501 82.1318 18.5947C81.9209 18.6855 81.7393 18.8115 81.5869 18.9727C81.4346 19.1338 81.313 19.3213 81.2222 19.5352C81.1343 19.749 81.0845 19.979 81.0728 20.2251H84.6104C84.5957 19.9761 84.5415 19.7432 84.4478 19.5264C84.3569 19.3096 84.2324 19.1221 84.0742 18.9639C83.9189 18.8057 83.7358 18.6812 83.5249 18.5903C83.3169 18.4995 83.0898 18.4541 82.8438 18.4541ZM92.4941 15.2153V24H91.3779V23.2266C91.252 23.4082 91.1055 23.5576 90.9385 23.6748C90.7715 23.792 90.5972 23.8857 90.4155 23.9561C90.2368 24.0264 90.0566 24.0747 89.875 24.1011C89.6963 24.1304 89.5308 24.145 89.3784 24.145C88.8979 24.145 88.4761 24.0586 88.1128 23.8857C87.7524 23.71 87.4507 23.4712 87.2075 23.1694C86.9673 22.8677 86.7856 22.5146 86.6626 22.1104C86.5425 21.7061 86.4824 21.2739 86.4824 20.814C86.4824 20.5239 86.5088 20.2397 86.5615 19.9614C86.6172 19.6831 86.6992 19.4194 86.8076 19.1704C86.9189 18.9214 87.0566 18.6929 87.2207 18.4849C87.3848 18.2769 87.5752 18.0981 87.792 17.9487C88.0088 17.7964 88.252 17.6777 88.5215 17.5928C88.791 17.5078 89.0884 17.4653 89.4136 17.4653C89.8325 17.4653 90.2104 17.543 90.5474 17.6982C90.8843 17.8535 91.1611 18.0938 91.3779 18.4189V15.2153H92.4941ZM87.6689 20.7437C87.6689 20.9487 87.6807 21.1509 87.7041 21.3501C87.7305 21.5464 87.7729 21.7339 87.8315 21.9126C87.8901 22.0913 87.9648 22.2568 88.0557 22.4092C88.1494 22.5586 88.2637 22.689 88.3984 22.8003C88.5332 22.9087 88.6899 22.9951 88.8687 23.0596C89.0503 23.1211 89.2568 23.1519 89.4883 23.1519C89.8428 23.1519 90.1431 23.0874 90.3892 22.9585C90.6382 22.8267 90.8389 22.6523 90.9912 22.4355C91.1465 22.2158 91.2578 21.9639 91.3252 21.6797C91.3955 21.3955 91.4307 21.1011 91.4307 20.7964C91.4307 20.5122 91.397 20.231 91.3296 19.9526C91.2651 19.6743 91.1582 19.4238 91.0088 19.2012C90.8594 18.9785 90.666 18.7983 90.4287 18.6606C90.1914 18.5229 89.9014 18.4541 89.5586 18.4541C89.2217 18.4541 88.9331 18.52 88.6929 18.6519C88.4556 18.7837 88.2607 18.958 88.1084 19.1748C87.9561 19.3887 87.8447 19.6333 87.7744 19.9087C87.7041 20.1812 87.6689 20.4595 87.6689 20.7437ZM98.2246 15.2153V18.4233C98.4414 18.0981 98.7183 17.8579 99.0552 17.7026C99.3921 17.5474 99.77 17.4697 100.189 17.4697C100.511 17.4697 100.807 17.5122 101.077 17.5972C101.349 17.6821 101.594 17.8008 101.811 17.9531C102.027 18.1025 102.218 18.2812 102.382 18.4893C102.546 18.6973 102.682 18.9258 102.791 19.1748C102.902 19.4238 102.984 19.6875 103.037 19.9658C103.092 20.2441 103.12 20.5283 103.12 20.8184C103.12 21.2783 103.059 21.7104 102.936 22.1147C102.815 22.519 102.634 22.8721 102.391 23.1738C102.15 23.4756 101.849 23.7144 101.485 23.8901C101.125 24.063 100.705 24.1494 100.224 24.1494C100.069 24.1494 99.9019 24.1348 99.7231 24.1055C99.5444 24.0791 99.3643 24.0308 99.1826 23.9604C99.0039 23.8901 98.8311 23.7964 98.6641 23.6792C98.4971 23.562 98.3506 23.4126 98.2246 23.231V24.0044H97.1084V15.2153H98.2246ZM101.934 20.7437C101.934 20.4595 101.898 20.1812 101.828 19.9087C101.758 19.6333 101.646 19.3887 101.494 19.1748C101.342 18.958 101.146 18.7837 100.905 18.6519C100.668 18.52 100.381 18.4541 100.044 18.4541C99.7012 18.4541 99.4111 18.5229 99.1738 18.6606C98.9365 18.7983 98.7432 18.9785 98.5938 19.2012C98.4443 19.4238 98.3359 19.6743 98.2686 19.9526C98.2041 20.231 98.1719 20.5122 98.1719 20.7964C98.1719 21.1011 98.2056 21.3955 98.2729 21.6797C98.3433 21.9639 98.4546 22.2158 98.6069 22.4355C98.7622 22.6523 98.9629 22.8267 99.209 22.9585C99.458 23.0874 99.7598 23.1519 100.114 23.1519C100.46 23.1519 100.749 23.0845 100.98 22.9497C101.214 22.812 101.402 22.6318 101.542 22.4092C101.683 22.1836 101.783 21.9258 101.841 21.6357C101.903 21.3457 101.934 21.0483 101.934 20.7437ZM106.873 24.8262C106.756 25.1279 106.634 25.3857 106.508 25.5996C106.385 25.8135 106.25 25.9878 106.104 26.1226C105.958 26.2603 105.795 26.3599 105.616 26.4214C105.44 26.4858 105.241 26.5181 105.019 26.5181C104.872 26.5181 104.733 26.5078 104.601 26.4873C104.472 26.4697 104.354 26.439 104.245 26.395V25.3667C104.362 25.4136 104.477 25.4487 104.588 25.4722C104.699 25.4985 104.8 25.5117 104.891 25.5117C105.082 25.5117 105.249 25.4663 105.392 25.3755C105.539 25.2876 105.647 25.1528 105.717 24.9712L106.135 23.9121L103.647 17.6104H104.891L106.671 22.6157L108.438 17.6104H109.606L106.873 24.8262Z" fill="#D5D5D5"/>
</svg>
