<svg width="350" height="66" viewBox="0 0 350 66" fill="none" xmlns="http://www.w3.org/2000/svg">
<path d="M28.7647 28.234C28.7647 36.044 22.3979 42.3531 14.6321 42.3531C11.6703 42.3531 8.88082 41.4586 6.64663 39.8974C6.19893 41.2349 4.91609 42.2413 3.40511 42.2413C1.50668 42.2413 0 40.7318 0 38.8911V3.40184C0 1.56115 1.50668 0 3.40511 0C5.24756 0 6.75425 1.56115 6.75425 3.40184V16.4587C9.04441 15.0094 11.7263 14.1148 14.6277 14.1148C22.3979 14.1191 28.7647 20.4239 28.7647 28.234ZM22.0062 28.234C22.0062 24.1612 18.657 20.8669 14.6321 20.8669C10.5554 20.8669 7.25791 24.1569 7.25791 28.234C7.25791 32.3067 10.5511 35.601 14.6321 35.601C18.6527 35.601 22.0062 32.3067 22.0062 28.234Z" fill="url(#paint0_linear)"/>
<path d="M46.3203 42.0448C39.0581 42.0448 33.083 35.74 33.083 28.0374V17.3804C33.083 15.5397 34.4778 14.0344 36.2126 14.0344C37.9991 14.0344 39.7296 15.5397 39.7296 17.3804V28.0374C39.7296 32.0543 43.0788 35.2927 46.3203 35.2927C50.1171 35.2927 52.9669 32.0586 52.9669 28.0374V17.8276C52.9669 15.931 54.9213 14.4817 56.428 14.4817C58.1585 14.4817 59.6136 15.931 59.6136 17.8276V28.0374C59.6136 35.7357 53.6385 42.0448 46.3203 42.0448Z" fill="url(#paint1_linear)"/>
<path d="M92.7007 3.40184V38.8911C92.7007 40.7318 91.194 42.2413 89.2913 42.2413C87.7846 42.2413 86.4975 41.2908 86.0498 39.8974C83.8156 41.4586 81.0217 42.3531 78.0643 42.3531C70.2985 42.3531 63.9316 36.0483 63.9316 28.234C63.9316 20.4798 70.2985 14.1148 78.0643 14.1148C80.9701 14.1148 83.6477 15.0094 85.9378 16.4587V3.40184C85.9378 1.56115 87.4445 0 89.287 0C91.194 0 92.7007 1.56115 92.7007 3.40184ZM85.4385 28.234C85.4385 24.1612 82.141 20.8669 78.0643 20.8669C73.9877 20.8669 70.6902 24.1612 70.6902 28.234C70.6902 32.3067 73.9877 35.601 78.0643 35.601C82.1453 35.601 85.4385 32.3067 85.4385 28.234Z" fill="url(#paint2_linear)"/>
<path d="M125.784 3.40184V38.8911C125.784 40.7318 124.278 42.2413 122.379 42.2413C120.872 42.2413 119.585 41.2908 119.138 39.8974C116.903 41.4586 114.11 42.3531 111.152 42.3531C103.391 42.3531 97.0195 36.0483 97.0195 28.234C97.0195 20.4798 103.386 14.1148 111.152 14.1148C114.058 14.1148 116.736 15.0094 119.026 16.4587V3.40184C119.026 1.56115 120.532 0 122.379 0C124.273 0 125.784 1.56115 125.784 3.40184ZM118.522 28.234C118.522 24.1612 115.229 20.8669 111.148 20.8669C107.067 20.8669 103.774 24.1612 103.774 28.234C103.774 32.3067 107.067 35.601 111.148 35.601C115.229 35.601 118.522 32.3067 118.522 28.234Z" fill="url(#paint3_linear)"/>
<path d="M156.316 17.3804V41.7652C156.316 49.5194 150.117 55.8844 142.575 55.8844C138.554 55.8844 134.809 54.0996 132.187 50.973C131.016 49.5796 131.18 47.4593 132.523 46.2293C133.866 44.9993 135.928 45.1671 137.103 46.6207C138.498 48.2377 140.513 49.1882 142.579 49.1882C146.544 49.1882 149.785 45.8423 149.785 41.7652V39.4773C147.943 40.5352 145.765 41.2061 143.419 41.2061C136.38 41.2061 130.629 35.0691 130.629 27.4784V17.4922C130.629 15.7074 132.08 14.1462 133.87 14.1462C135.657 14.1462 137.108 15.7074 137.108 17.4922V27.4784C137.108 31.3275 139.957 34.51 143.419 34.51C146.936 34.51 149.785 31.3275 149.785 27.4784V17.3804C149.785 15.5397 151.292 14.0344 153.023 14.0344C154.865 14.0301 156.316 15.5397 156.316 17.3804Z" fill="url(#paint4_linear)"/>
<path d="M14.3961 63.1654C14.6233 63.3053 14.7981 63.4891 14.9205 63.7165C15.0604 63.944 15.1303 64.1802 15.1303 64.4251C15.1303 64.7401 15.0254 65.0288 14.8156 65.2912C14.5534 65.6062 14.1513 65.7637 13.6094 65.7637C13.1898 65.7637 12.8052 65.6674 12.4556 65.475C11.1969 64.7576 10.5676 63.2966 10.5676 61.092C10.5676 60.4621 10.3578 59.9634 9.93827 59.596C9.53619 59.2285 8.95056 59.0448 8.18137 59.0448H3.27779V64.1364C3.27779 64.6089 3.14668 64.9938 2.88446 65.2912C2.63971 65.5887 2.30757 65.7374 1.88801 65.7374C1.38104 65.7374 0.935264 65.5887 0.55067 65.2912C0.183557 64.9763 0 64.5914 0 64.1364V48.9665C0 48.5116 0.148593 48.1354 0.44578 47.8379C0.760448 47.523 1.14504 47.3655 1.59956 47.3655H9.15159C10.0606 47.3655 10.9172 47.6105 11.7214 48.1004C12.5255 48.5903 13.1636 49.2639 13.6356 50.1213C14.1251 50.9786 14.3698 51.941 14.3698 53.0083C14.3698 53.8832 14.1338 54.7405 13.6618 55.5804C13.1898 56.4027 12.578 57.0589 11.8263 57.5488C12.9276 58.3187 13.5307 59.351 13.6356 60.6458C13.6881 60.9257 13.7143 61.1969 13.7143 61.4594C13.7842 62.0018 13.8541 62.3955 13.9241 62.6404C13.994 62.8679 14.1513 63.0429 14.3961 63.1654ZM9.02048 56.3415C9.33515 56.3415 9.64108 56.1928 9.93827 55.8953C10.2355 55.5979 10.4802 55.2042 10.6725 54.7143C10.8648 54.2069 10.9609 53.6644 10.9609 53.087C10.9609 52.5971 10.8648 52.1509 10.6725 51.7485C10.4802 51.3286 10.2355 50.9961 9.93827 50.7512C9.64108 50.5062 9.33515 50.3837 9.02048 50.3837H3.27779V56.3415H9.02048ZM30.1987 58.3887C30.1812 58.8086 30.0151 59.1498 29.7005 59.4122C29.3858 59.6747 29.0187 59.8059 28.5991 59.8059H19.9458C20.1555 60.8382 20.6363 61.6519 21.388 62.2468C22.1397 62.8242 22.9875 63.1129 23.9316 63.1129C24.6483 63.1129 25.2077 63.0516 25.6098 62.9291C26.0119 62.7892 26.3265 62.6492 26.5538 62.5092C26.7985 62.3517 26.9646 62.2468 27.052 62.1943C27.3667 62.0368 27.6639 61.9581 27.9436 61.9581C28.3107 61.9581 28.6254 62.0893 28.8876 62.3517C29.1498 62.6142 29.2809 62.9204 29.2809 63.2703C29.2809 63.7428 29.0362 64.1714 28.5467 64.5564C28.0572 64.9588 27.4016 65.3 26.58 65.58C25.7584 65.8599 24.928 65.9999 24.0889 65.9999C22.6204 65.9999 21.3355 65.6937 20.2342 65.0813C19.1503 64.4689 18.3112 63.629 17.7169 62.5617C17.1225 61.4769 16.8253 60.2608 16.8253 58.9136C16.8253 57.4088 17.14 56.0878 17.7693 54.9505C18.3986 53.8132 19.229 52.9471 20.2604 52.3522C21.2918 51.7398 22.3932 51.4336 23.5644 51.4336C24.7182 51.4336 25.8021 51.7485 26.816 52.3784C27.8474 53.0083 28.6691 53.8569 29.2809 54.9242C29.8928 55.9916 30.1987 57.1464 30.1987 58.3887ZM23.5644 54.3206C21.5366 54.3206 20.3391 55.2742 19.972 57.1814H26.8422V56.9976C26.7723 56.2628 26.4139 55.6329 25.7671 55.108C25.1203 54.583 24.3861 54.3206 23.5644 54.3206ZM48.976 51.696C49.3955 51.696 49.7452 51.8535 50.0249 52.1684C50.3221 52.4659 50.4707 52.8508 50.4707 53.3233C50.4707 53.4807 50.4357 53.6819 50.3658 53.9269L46.3537 64.7401C46.2489 65.055 46.0566 65.3088 45.7769 65.5012C45.5146 65.6762 45.2262 65.7637 44.9115 65.7637L44.7017 65.7374C44.1074 65.7024 43.6616 65.37 43.3644 64.7401L41.1355 58.2837L39.0115 64.7401C38.7143 65.37 38.2685 65.7024 37.6742 65.7374L37.4644 65.7637C37.1497 65.7637 36.8525 65.6762 36.5728 65.5012C36.3106 65.3088 36.127 65.055 36.0221 64.7401L32.0101 53.9269C31.9402 53.7344 31.9052 53.5332 31.9052 53.3233C31.9052 52.8858 32.0451 52.5096 32.3248 52.1947C32.622 51.8622 33.0066 51.696 33.4786 51.696C33.8282 51.696 34.1254 51.7835 34.3701 51.9585C34.6324 52.116 34.8159 52.3609 34.9208 52.6934L37.7528 60.3833L39.8244 54.7668C40.1041 54.1194 40.5848 53.7957 41.2666 53.7957C41.6337 53.7957 41.9134 53.8744 42.1057 54.0319C42.3155 54.1894 42.4903 54.4343 42.6302 54.7668L44.6493 60.2521L47.4551 52.6934C47.56 52.3609 47.7435 52.116 48.0058 51.9585C48.268 51.7835 48.5914 51.696 48.976 51.696ZM64.4074 51.4336C64.8619 51.4336 65.2378 51.5823 65.535 51.8797C65.8321 52.1772 65.9807 52.5621 65.9807 53.0346V64.1364C65.9807 64.5914 65.8321 64.9763 65.535 65.2912C65.2378 65.5887 64.8619 65.7374 64.4074 65.7374C63.9529 65.7374 63.577 65.5887 63.2798 65.2912C63.0001 64.9938 62.8515 64.6176 62.834 64.1627C62.397 64.6701 61.8026 65.1075 61.0509 65.475C60.3167 65.8249 59.5388 65.9999 58.7171 65.9999C57.5109 65.9999 56.4183 65.6937 55.4393 65.0813C54.4604 64.4514 53.6825 63.5853 53.1056 62.483C52.5462 61.3807 52.2664 60.1296 52.2664 58.7298C52.2664 57.3301 52.5462 56.079 53.1056 54.9767C53.665 53.8569 54.4254 52.9908 55.3869 52.3784C56.3659 51.7485 57.441 51.4336 58.6123 51.4336C59.4514 51.4336 60.238 51.591 60.9723 51.906C61.7065 52.2034 62.3271 52.5884 62.834 53.0608V53.0346C62.834 52.5796 62.9826 52.2034 63.2798 51.906C63.577 51.591 63.9529 51.4336 64.4074 51.4336ZM59.1105 63.1129C60.2468 63.1129 61.1733 62.7017 61.89 61.8793C62.6068 61.0395 62.9652 59.9896 62.9652 58.7298C62.9652 57.4701 62.6068 56.4202 61.89 55.5804C61.1733 54.7405 60.2468 54.3206 59.1105 54.3206C57.9917 54.3206 57.0739 54.7405 56.3571 55.5804C55.6404 56.4202 55.282 57.4701 55.282 58.7298C55.282 59.9896 55.6316 61.0395 56.3309 61.8793C57.0477 62.7017 57.9742 63.1129 59.1105 63.1129ZM76.6809 51.4336C77.2054 51.4336 77.6424 51.5823 77.992 51.8797C78.3591 52.1772 78.5427 52.5271 78.5427 52.9296C78.5427 53.472 78.4029 53.8832 78.1232 54.1631C77.8435 54.4256 77.5113 54.5568 77.1267 54.5568C76.8645 54.5568 76.5673 54.4956 76.2351 54.3731C76.1827 54.3556 76.0603 54.3206 75.868 54.2681C75.6932 54.2156 75.5009 54.1894 75.2911 54.1894C74.8366 54.1894 74.3996 54.3293 73.98 54.6093C73.5605 54.8892 73.2106 55.3179 72.9309 55.8953C72.6686 56.4552 72.5375 57.1289 72.5375 57.9162V64.1364C72.5375 64.5914 72.3889 64.9763 72.0917 65.2912C71.7946 65.5887 71.4187 65.7374 70.9642 65.7374C70.5097 65.7374 70.1338 65.5887 69.8366 65.2912C69.5395 64.9763 69.3908 64.5914 69.3908 64.1364V53.297C69.3908 52.8421 69.5395 52.4659 69.8366 52.1684C70.1338 51.8535 70.5097 51.696 70.9642 51.696C71.4187 51.696 71.7946 51.8535 72.0917 52.1684C72.3889 52.4659 72.5375 52.8421 72.5375 53.297V53.6382C72.9396 52.9208 73.5168 52.3784 74.2685 52.011C75.0202 51.626 75.8243 51.4336 76.6809 51.4336ZM91.5263 46.3157C91.9808 46.3157 92.3566 46.4644 92.6538 46.7619C92.951 47.0593 93.0996 47.4442 93.0996 47.9167V64.1364C93.0996 64.5914 92.951 64.9763 92.6538 65.2912C92.3566 65.5887 91.9808 65.7374 91.5263 65.7374C91.0717 65.7374 90.6959 65.5887 90.3987 65.2912C90.119 64.9938 89.9704 64.6176 89.9529 64.1627C89.5159 64.6701 88.9215 65.1075 88.1698 65.475C87.4356 65.8249 86.6576 65.9999 85.836 65.9999C84.6298 65.9999 83.5372 65.6937 82.5582 65.0813C81.5793 64.4514 80.8013 63.5853 80.2244 62.483C79.665 61.3807 79.3853 60.1296 79.3853 58.7298C79.3853 57.3301 79.665 56.079 80.2244 54.9767C80.7838 53.8569 81.5443 52.9908 82.5058 52.3784C83.4847 51.7485 84.5599 51.4336 85.7311 51.4336C86.5702 51.4336 87.3569 51.591 88.0911 51.906C88.8254 52.2034 89.446 52.5884 89.9529 53.0608V47.9167C89.9529 47.4617 90.1015 47.0855 90.3987 46.7881C90.6959 46.4731 91.0717 46.3157 91.5263 46.3157ZM86.2293 63.1129C87.3656 63.1129 88.2922 62.7017 89.0089 61.8793C89.7257 61.0395 90.084 59.9896 90.084 58.7298C90.084 57.4701 89.7257 56.4202 89.0089 55.5804C88.2922 54.7405 87.3656 54.3206 86.2293 54.3206C85.1105 54.3206 84.1927 54.7405 83.476 55.5804C82.7593 56.4202 82.4009 57.4701 82.4009 58.7298C82.4009 59.9896 82.7505 61.0395 83.4498 61.8793C84.1665 62.7017 85.093 63.1129 86.2293 63.1129ZM95.6965 63.559C95.5392 63.3491 95.4605 63.0866 95.4605 62.7717C95.4605 62.3167 95.6877 61.9318 96.1423 61.6169C96.387 61.4594 96.6405 61.3807 96.9027 61.3807C97.2698 61.3807 97.6195 61.5469 97.9516 61.8793C98.4761 62.4217 99.018 62.8242 99.5774 63.0866C100.154 63.3491 100.845 63.4803 101.649 63.4803C103.013 63.4278 103.694 62.9116 103.694 61.9318C103.694 61.4244 103.458 61.0395 102.986 60.777C102.532 60.5146 101.815 60.2521 100.836 59.9896C99.8221 59.7097 98.9918 59.4297 98.3449 59.1498C97.7156 58.8698 97.1649 58.4499 96.6929 57.89C96.2384 57.3126 96.0112 56.5427 96.0112 55.5804C96.0112 54.7405 96.2472 54.0144 96.7192 53.402C97.2086 52.7721 97.838 52.2909 98.6072 51.9585C99.3938 51.6085 100.224 51.4336 101.098 51.4336C101.99 51.4336 102.881 51.5998 103.773 51.9322C104.665 52.2647 105.364 52.7546 105.871 53.402C106.098 53.6819 106.212 53.9969 106.212 54.3468C106.212 54.7493 106.046 55.0817 105.713 55.3442C105.469 55.5366 105.189 55.6329 104.874 55.6329C104.49 55.6329 104.175 55.5104 103.93 55.2654C103.616 54.8805 103.205 54.5743 102.698 54.3468C102.208 54.1194 101.649 54.0056 101.02 54.0056C99.691 54.0056 99.0267 54.4868 99.0267 55.4491C99.0267 55.8341 99.1491 56.149 99.3938 56.394C99.6386 56.6215 99.9445 56.8052 100.312 56.9451C100.696 57.0676 101.229 57.2251 101.911 57.4176C102.855 57.68 103.642 57.9512 104.271 58.2312C104.901 58.5111 105.434 58.9398 105.871 59.5172C106.308 60.0946 106.526 60.8557 106.526 61.8006C106.526 62.6579 106.273 63.4103 105.766 64.0577C105.259 64.6876 104.603 65.1688 103.799 65.5012C103.013 65.8337 102.2 65.9999 101.361 65.9999C100.207 65.9999 99.1316 65.8074 98.1352 65.4225C97.1387 65.0375 96.3258 64.4164 95.6965 63.559Z" fill="#575757"/>
<path d="M334.313 45H244.687C236.023 45 229 38.061 229 29.5C229 20.939 236.023 14 244.687 14H334.313C342.977 14 350 20.939 350 29.5C350 38.061 342.977 45 334.313 45Z" fill="#EFEFEF"/>
<path d="M271.313 45H181.687C173.023 45 166 38.061 166 29.5C166 20.939 173.023 14 181.687 14H271.313C279.977 14 287 20.939 287 29.5C287 38.061 279.977 45 271.313 45Z" fill="#59DD9A"/>
<path d="M190.683 30.4878C190.683 30.5347 190.683 30.5563 190.683 30.5815V36.1759C190.683 36.9617 190.074 37.5637 189.301 37.5637C188.527 37.5637 187.874 36.9617 187.874 36.1759V30.5779V30.4842C187.874 30.4626 187.874 30.4373 187.874 30.4157C187.874 29.5145 187.053 28.8188 186.094 28.8188C185.065 28.8188 184.244 29.5145 184.244 30.4157V30.4842C184.244 30.531 184.244 30.5527 184.244 30.5779V36.1759C184.244 36.9617 183.613 37.5637 182.862 37.5637C182.066 37.5637 181.457 36.9617 181.457 36.1759V30.5779V30.4842C181.457 30.4626 181.457 30.4373 181.457 30.4157C181.457 29.5145 180.636 28.8188 179.633 28.8188C178.626 28.8188 177.809 29.5145 177.809 30.4157V36.2444C177.809 36.9834 177.2 37.6106 176.405 37.6106C175.657 37.6106 175 36.987 175 36.2444V27.4094C175 26.6452 175.657 26 176.405 26C176.85 26 177.269 26.2307 177.481 26.5551C178.137 26.2307 178.863 26.0469 179.633 26.0469C180.873 26.0469 181.997 26.5083 182.862 27.2941C183.682 26.5083 184.806 26.0469 186.09 26.0469C188.596 26.0469 190.68 28.0114 190.68 30.4193V30.4878H190.683Z" fill="white"/>
<path d="M202.77 32.5208H195.561C195.89 33.8401 197.083 34.8566 198.535 34.8566C199.283 34.8566 200.384 34.5574 200.993 33.9771C201.555 33.4436 202.445 33.4436 202.982 33.9987C203.543 34.5322 203.522 35.4334 202.96 35.9633C201.672 37.1888 199.87 37.607 198.535 37.607C195.281 37.607 192.683 35.0152 192.683 31.8035C192.683 28.635 195.281 26 198.535 26C198.885 26 199.213 26.0216 199.563 26.0937C201.154 26.3929 202.511 27.3662 203.354 28.754C203.73 29.4028 204.149 30.2571 204.102 31.0213C204.102 31.2303 204.007 31.461 203.916 31.6917C203.73 32.1279 203.332 32.5208 202.77 32.5208ZM195.959 30.185H200.92C200.454 29.3055 199.585 28.7972 198.535 28.7972C197.455 28.7972 196.521 29.3271 195.959 30.185Z" fill="white"/>
<path d="M215.646 29.5614C215.106 30.1165 214.241 30.1634 213.657 29.6299C213.143 29.1433 212.439 28.8657 211.713 28.8657C210.122 28.8657 208.809 30.2066 208.809 31.8503V36.2228C208.809 36.987 208.178 37.6106 207.405 37.6106C206.631 37.6106 206 36.987 206 36.2228V27.3662C206 26.602 206.631 26 207.405 26C208.036 26 208.55 26.3929 208.74 26.948C209.604 26.4145 210.637 26.0937 211.713 26.0937C213.165 26.0937 214.522 26.6488 215.576 27.6185C216.138 28.1267 216.182 29.0063 215.646 29.5614Z" fill="white"/>
<path d="M224.007 37.5859C222.46 37.5859 221.033 37.0092 219.932 35.9674C218.808 34.8788 218.177 33.4478 218.13 31.8978C218.108 30.373 218.669 28.8915 219.793 27.7813C220.869 26.6711 222.321 26.0474 223.89 26.0006C225.459 25.979 226.932 26.5557 228.056 27.6443C228.618 28.1526 228.64 29.0537 228.103 29.5872C227.563 30.1423 226.677 30.164 226.115 29.6341C225.532 29.079 224.758 28.7798 223.937 28.7798C223.116 28.7798 222.369 29.1258 221.785 29.7062C221.245 30.2829 220.92 31.0471 220.942 31.8581C220.942 32.644 221.292 33.4298 221.88 33.9633C222.463 34.54 223.237 34.8428 224.032 34.8176C224.806 34.8176 225.532 34.5184 226.093 34.0065C226.633 33.473 227.545 33.5199 228.06 34.075C228.6 34.6301 228.552 35.5097 227.99 36.0395C226.936 37.0092 225.557 37.5643 224.105 37.5895H224.007V37.5859Z" fill="white"/>
<path d="M240.999 36.1633C240.999 36.9274 240.368 37.551 239.594 37.551C238.799 37.551 238.168 36.9274 238.168 36.1633V31.0987C238.168 29.7794 237.092 28.716 235.756 28.716C234.421 28.716 233.345 29.7794 233.345 31.0987V36.1633C233.345 36.9274 232.714 37.551 231.919 37.551C231.145 37.551 230.492 36.9274 230.492 36.1633V21.4094C230.492 20.6452 231.149 20 231.919 20C232.714 20 233.345 20.6488 233.345 21.4094V26.4992C234.071 26.1279 234.888 25.9224 235.756 25.9224C238.66 25.9224 240.999 28.2366 240.999 31.1023V36.1633Z" fill="white"/>
<path d="M254.844 27.3193V36.1759C254.844 36.8933 254.26 37.4952 253.487 37.4952C252.713 37.4952 252.246 36.8933 252.246 36.1759V35.8984C251.24 36.7527 250.069 37.2645 248.664 37.2645C245.527 37.2645 242.999 34.7665 242.999 31.6917C242.999 28.617 245.527 26.0937 248.664 26.0937C250.069 26.0937 251.24 26.6272 252.246 27.4347V27.3193C252.246 26.602 252.713 26 253.487 26C254.26 26 254.844 26.602 254.844 27.3193ZM251.593 31.6881C251.593 30.0913 250.258 28.7972 248.668 28.7972C247.052 28.7972 245.72 30.0913 245.72 31.6881C245.72 33.285 247.055 34.5574 248.668 34.5574C250.258 34.5574 251.593 33.285 251.593 31.6881Z" fill="white"/>
<path d="M267.894 31.854V36.2264C267.894 36.9906 267.285 37.6142 266.511 37.6142C265.716 37.6142 265.107 36.9906 265.107 36.2264V31.854C265.107 30.2102 263.888 28.8945 262.414 28.8945C260.59 28.8945 259.653 30.6969 259.653 32.2937V36.2264C259.653 36.9906 259.022 37.6142 258.248 37.6142C257.475 37.6142 256.844 36.9906 256.844 36.2264V27.3878C256.844 26.6236 257.475 26 258.248 26C258.857 26 259.372 26.3929 259.558 26.948C260.401 26.4145 261.36 26.1154 262.414 26.1154C265.435 26.1154 267.894 28.6819 267.894 31.854Z" fill="white"/>
<path d="M277.176 36.1669C277.176 36.9527 276.545 37.5547 275.771 37.5547C275.56 37.5547 275.373 37.5547 275.162 37.533C274.389 37.4177 273.641 37.0933 273.101 36.4913C272.634 35.9578 272.305 35.1251 272.305 34.4114V28.5791H271.299C270.525 28.5791 269.894 27.9555 269.894 27.1913C269.894 26.4271 270.525 25.8035 271.299 25.8035H272.305V21.3878C272.305 20.6236 272.937 20 273.71 20C274.483 20 275.114 20.6236 275.114 21.3878V25.8035H275.888C276.661 25.8035 277.292 26.4271 277.292 27.1913C277.292 27.9555 276.661 28.5791 275.888 28.5791H275.114V34.0834C275.162 34.2672 275.114 34.5448 275.279 34.6853C275.395 34.8007 275.607 34.7791 275.771 34.7791C276.545 34.7791 277.176 35.4027 277.176 36.1669Z" fill="white"/>
<path d="M305.065 31.9523C305.065 35.246 302.396 37.9046 299.139 37.9046C297.897 37.9046 296.727 37.528 295.79 36.8703C295.602 37.4351 295.062 37.8594 294.43 37.8594C293.632 37.8569 293 37.2217 293 36.446V21.4811C293 20.7054 293.632 20.0452 294.43 20.0452C295.202 20.0452 295.835 20.7029 295.835 21.4811V26.9866C296.794 26.374 297.919 25.9975 299.136 25.9975C302.393 26 305.065 28.6586 305.065 31.9523ZM302.231 31.9523C302.231 30.2351 300.826 28.8468 299.139 28.8468C297.429 28.8468 296.047 30.2351 296.047 31.9523C296.047 33.6694 297.429 35.0577 299.139 35.0577C300.824 35.0577 302.231 33.6694 302.231 31.9523Z" fill="#BBBBBB"/>
<path d="M316.096 32.8236H308.883C309.21 34.1641 310.405 35.201 311.857 35.201C312.607 35.201 313.707 34.8947 314.317 34.3072C314.879 33.765 315.769 33.765 316.309 34.3298C316.871 34.8721 316.849 35.7884 316.286 36.3307C314.996 37.5759 313.192 38.0001 311.857 38.0001C308.6 38.0001 306 35.3641 306 32.0955C306 28.8721 308.6 26.1909 311.857 26.1909C312.209 26.1909 312.537 26.2135 312.887 26.2863C314.479 26.5926 315.839 27.5792 316.681 28.9926C317.056 29.6503 317.479 30.5215 317.431 31.2972C317.431 31.5081 317.336 31.7441 317.244 31.98C317.059 32.4219 316.659 32.8236 316.096 32.8236ZM309.28 30.4461H314.247C313.777 29.5524 312.912 29.0353 311.857 29.0353C310.78 29.0353 309.842 29.575 309.28 30.4461Z" fill="#BBBBBB"/>
<path d="M324.975 36.446C324.975 37.2469 324.342 37.8569 323.57 37.8569C323.36 37.8569 323.173 37.8569 322.96 37.8343C322.188 37.7163 321.438 37.3875 320.898 36.7749C320.428 36.2326 320.101 35.3866 320.101 34.6586V28.7289H319.093C318.321 28.7289 317.688 28.0937 317.688 27.318C317.688 26.5423 318.321 25.9071 319.093 25.9071H320.101V21.4109C320.101 20.6351 320.733 20 321.505 20C322.278 20 322.91 20.6351 322.91 21.4109V25.9046H323.682C324.455 25.9046 325.087 26.5397 325.087 27.3155C325.087 28.0912 324.455 28.7264 323.682 28.7264H322.91V34.3272C322.958 34.5155 322.91 34.7967 323.075 34.9398C323.193 35.0577 323.403 35.0351 323.568 35.0351C324.342 35.0351 324.975 35.6703 324.975 36.446Z" fill="#BBBBBB"/>
<path d="M338 27.5061V36.5162C338 37.2467 337.415 37.8567 336.64 37.8567C335.865 37.8567 335.398 37.2442 335.398 36.5162V36.235C334.391 37.1061 333.218 37.6233 331.814 37.6233C328.674 37.6233 326.145 35.0827 326.145 31.9521C326.145 28.8216 328.674 26.2584 331.814 26.2584C333.218 26.2584 334.391 26.8007 335.398 27.6241V27.5061C335.398 26.7756 335.865 26.1655 336.64 26.1655C337.415 26.1655 338 26.7756 338 27.5061ZM334.743 31.9521C334.743 30.3279 333.408 29.0124 331.816 29.0124C330.199 29.0124 328.864 30.3304 328.864 31.9521C328.864 33.5739 330.199 34.8693 331.816 34.8693C333.408 34.8693 334.743 33.5764 334.743 31.9521Z" fill="#BBBBBB"/>
<defs>
<linearGradient id="paint0_linear" x1="14.3824" y1="0" x2="14.3824" y2="42.3531" gradientUnits="userSpaceOnUse">
<stop stop-color="#F7931E"/>
<stop offset="1" stop-color="#FF7676"/>
</linearGradient>
<linearGradient id="paint1_linear" x1="46.3483" y1="14.0344" x2="46.3483" y2="42.0448" gradientUnits="userSpaceOnUse">
<stop stop-color="#F7931E"/>
<stop offset="1" stop-color="#FF7676"/>
</linearGradient>
<linearGradient id="paint2_linear" x1="78.3162" y1="0" x2="78.3162" y2="42.3531" gradientUnits="userSpaceOnUse">
<stop stop-color="#F7931E"/>
<stop offset="1" stop-color="#FF7676"/>
</linearGradient>
<linearGradient id="paint3_linear" x1="111.402" y1="0" x2="111.402" y2="42.3531" gradientUnits="userSpaceOnUse">
<stop stop-color="#F7931E"/>
<stop offset="1" stop-color="#FF7676"/>
</linearGradient>
<linearGradient id="paint4_linear" x1="143.472" y1="14.0344" x2="143.472" y2="55.8844" gradientUnits="userSpaceOnUse">
<stop stop-color="#F7931E"/>
<stop offset="1" stop-color="#FF7676"/>
</linearGradient>
</defs>
</svg>
