<svg width="287" height="100" viewBox="0 0 287 100" fill="none" xmlns="http://www.w3.org/2000/svg">
<path d="M28.7647 62.234C28.7647 70.044 22.3979 76.3531 14.6321 76.3531C11.6703 76.3531 8.88082 75.4586 6.64663 73.8974C6.19893 75.2349 4.91609 76.2413 3.40511 76.2413C1.50668 76.2413 0 74.7318 0 72.8911V37.4018C0 35.5611 1.50668 34 3.40511 34C5.24756 34 6.75425 35.5611 6.75425 37.4018V50.4587C9.04441 49.0094 11.7263 48.1148 14.6277 48.1148C22.3979 48.1191 28.7647 54.4239 28.7647 62.234ZM22.0062 62.234C22.0062 58.1612 18.657 54.8669 14.6321 54.8669C10.5554 54.8669 7.25791 58.1569 7.25791 62.234C7.25791 66.3067 10.5511 69.601 14.6321 69.601C18.6527 69.601 22.0062 66.3067 22.0062 62.234Z" fill="#D5D5D5"/>
<path d="M46.3203 76.0448C39.0581 76.0448 33.083 69.74 33.083 62.0374V51.3804C33.083 49.5397 34.4778 48.0344 36.2126 48.0344C37.9991 48.0344 39.7296 49.5397 39.7296 51.3804V62.0374C39.7296 66.0543 43.0788 69.2927 46.3203 69.2927C50.1171 69.2927 52.9669 66.0586 52.9669 62.0374V51.8276C52.9669 49.931 54.9213 48.4817 56.428 48.4817C58.1585 48.4817 59.6136 49.931 59.6136 51.8276V62.0374C59.6136 69.7357 53.6385 76.0448 46.3203 76.0448Z" fill="#D5D5D5"/>
<path d="M92.7007 37.4018V72.8911C92.7007 74.7318 91.194 76.2413 89.2913 76.2413C87.7846 76.2413 86.4975 75.2908 86.0498 73.8974C83.8156 75.4586 81.0217 76.3531 78.0643 76.3531C70.2985 76.3531 63.9316 70.0483 63.9316 62.234C63.9316 54.4798 70.2985 48.1148 78.0643 48.1148C80.9701 48.1148 83.6477 49.0094 85.9378 50.4587V37.4018C85.9378 35.5611 87.4445 34 89.287 34C91.194 34 92.7007 35.5611 92.7007 37.4018ZM85.4385 62.234C85.4385 58.1612 82.141 54.8669 78.0643 54.8669C73.9877 54.8669 70.6902 58.1612 70.6902 62.234C70.6902 66.3067 73.9877 69.601 78.0643 69.601C82.1453 69.601 85.4385 66.3067 85.4385 62.234Z" fill="#D5D5D5"/>
<path d="M125.784 37.4018V72.8911C125.784 74.7318 124.278 76.2413 122.379 76.2413C120.872 76.2413 119.585 75.2908 119.138 73.8974C116.903 75.4586 114.11 76.3531 111.152 76.3531C103.391 76.3531 97.0195 70.0483 97.0195 62.234C97.0195 54.4798 103.386 48.1148 111.152 48.1148C114.058 48.1148 116.736 49.0094 119.026 50.4587V37.4018C119.026 35.5611 120.532 34 122.379 34C124.273 34 125.784 35.5611 125.784 37.4018ZM118.522 62.234C118.522 58.1612 115.229 54.8669 111.148 54.8669C107.067 54.8669 103.774 58.1612 103.774 62.234C103.774 66.3067 107.067 69.601 111.148 69.601C115.229 69.601 118.522 66.3067 118.522 62.234Z" fill="#D5D5D5"/>
<path d="M156.316 51.3804V75.7652C156.316 83.5194 150.117 89.8844 142.575 89.8844C138.554 89.8844 134.809 88.0996 132.187 84.973C131.016 83.5796 131.18 81.4593 132.523 80.2293C133.866 78.9993 135.928 79.1671 137.103 80.6207C138.498 82.2377 140.513 83.1882 142.579 83.1882C146.544 83.1882 149.785 79.8423 149.785 75.7652V73.4773C147.943 74.5352 145.765 75.2061 143.419 75.2061C136.38 75.2061 130.629 69.0691 130.629 61.4784V51.4922C130.629 49.7074 132.08 48.1462 133.87 48.1462C135.657 48.1462 137.108 49.7074 137.108 51.4922V61.4784C137.108 65.3275 139.957 68.51 143.419 68.51C146.936 68.51 149.785 65.3275 149.785 61.4784V51.3804C149.785 49.5397 151.292 48.0344 153.023 48.0344C154.865 48.0301 156.316 49.5397 156.316 51.3804Z" fill="#D5D5D5"/>
<path d="M14.3961 97.1654C14.6233 97.3053 14.7981 97.4891 14.9205 97.7165C15.0604 97.944 15.1303 98.1802 15.1303 98.4251C15.1303 98.7401 15.0254 99.0288 14.8156 99.2912C14.5534 99.6062 14.1513 99.7637 13.6094 99.7637C13.1898 99.7637 12.8052 99.6674 12.4556 99.475C11.1969 98.7576 10.5676 97.2966 10.5676 95.092C10.5676 94.4621 10.3578 93.9634 9.93827 93.596C9.53619 93.2285 8.95056 93.0448 8.18137 93.0448H3.27779V98.1364C3.27779 98.6089 3.14668 98.9938 2.88446 99.2912C2.63971 99.5887 2.30757 99.7374 1.88801 99.7374C1.38104 99.7374 0.935264 99.5887 0.55067 99.2912C0.183557 98.9763 0 98.5914 0 98.1364V82.9665C0 82.5116 0.148593 82.1354 0.44578 81.8379C0.760448 81.523 1.14504 81.3655 1.59956 81.3655H9.15159C10.0606 81.3655 10.9172 81.6105 11.7214 82.1004C12.5255 82.5903 13.1636 83.2639 13.6356 84.1213C14.1251 84.9786 14.3698 85.941 14.3698 87.0083C14.3698 87.8832 14.1338 88.7405 13.6618 89.5804C13.1898 90.4027 12.578 91.0589 11.8263 91.5488C12.9276 92.3187 13.5307 93.351 13.6356 94.6458C13.6881 94.9257 13.7143 95.1969 13.7143 95.4594C13.7842 96.0018 13.8541 96.3955 13.9241 96.6404C13.994 96.8679 14.1513 97.0429 14.3961 97.1654ZM9.02048 90.3415C9.33515 90.3415 9.64108 90.1928 9.93827 89.8953C10.2355 89.5979 10.4802 89.2042 10.6725 88.7143C10.8648 88.2069 10.9609 87.6644 10.9609 87.087C10.9609 86.5971 10.8648 86.1509 10.6725 85.7485C10.4802 85.3286 10.2355 84.9961 9.93827 84.7512C9.64108 84.5062 9.33515 84.3837 9.02048 84.3837H3.27779V90.3415H9.02048ZM30.1987 92.3887C30.1812 92.8086 30.0151 93.1498 29.7005 93.4122C29.3858 93.6747 29.0187 93.8059 28.5991 93.8059H19.9458C20.1555 94.8382 20.6363 95.6519 21.388 96.2468C22.1397 96.8242 22.9875 97.1129 23.9316 97.1129C24.6483 97.1129 25.2077 97.0516 25.6098 96.9291C26.0119 96.7892 26.3265 96.6492 26.5538 96.5092C26.7985 96.3517 26.9646 96.2468 27.052 96.1943C27.3667 96.0368 27.6639 95.9581 27.9436 95.9581C28.3107 95.9581 28.6254 96.0893 28.8876 96.3517C29.1498 96.6142 29.2809 96.9204 29.2809 97.2703C29.2809 97.7428 29.0362 98.1714 28.5467 98.5564C28.0572 98.9588 27.4016 99.3 26.58 99.58C25.7584 99.8599 24.928 99.9999 24.0889 99.9999C22.6204 99.9999 21.3355 99.6937 20.2342 99.0813C19.1503 98.4689 18.3112 97.629 17.7169 96.5617C17.1225 95.4769 16.8253 94.2608 16.8253 92.9136C16.8253 91.4088 17.14 90.0878 17.7693 88.9505C18.3986 87.8132 19.229 86.9471 20.2604 86.3522C21.2918 85.7398 22.3932 85.4336 23.5644 85.4336C24.7182 85.4336 25.8021 85.7485 26.816 86.3784C27.8474 87.0083 28.6691 87.8569 29.2809 88.9242C29.8928 89.9916 30.1987 91.1464 30.1987 92.3887ZM23.5644 88.3206C21.5366 88.3206 20.3391 89.2742 19.972 91.1814H26.8422V90.9976C26.7723 90.2628 26.4139 89.6329 25.7671 89.108C25.1203 88.583 24.3861 88.3206 23.5644 88.3206ZM48.976 85.696C49.3955 85.696 49.7452 85.8535 50.0249 86.1684C50.3221 86.4659 50.4707 86.8508 50.4707 87.3233C50.4707 87.4807 50.4357 87.6819 50.3658 87.9269L46.3537 98.7401C46.2489 99.055 46.0566 99.3088 45.7769 99.5012C45.5146 99.6762 45.2262 99.7637 44.9115 99.7637L44.7017 99.7374C44.1074 99.7024 43.6616 99.37 43.3644 98.7401L41.1355 92.2837L39.0115 98.7401C38.7143 99.37 38.2685 99.7024 37.6742 99.7374L37.4644 99.7637C37.1497 99.7637 36.8525 99.6762 36.5728 99.5012C36.3106 99.3088 36.127 99.055 36.0221 98.7401L32.0101 87.9269C31.9402 87.7344 31.9052 87.5332 31.9052 87.3233C31.9052 86.8858 32.0451 86.5096 32.3248 86.1947C32.622 85.8622 33.0066 85.696 33.4786 85.696C33.8282 85.696 34.1254 85.7835 34.3701 85.9585C34.6324 86.116 34.8159 86.3609 34.9208 86.6934L37.7528 94.3833L39.8244 88.7668C40.1041 88.1194 40.5848 87.7957 41.2666 87.7957C41.6337 87.7957 41.9134 87.8744 42.1057 88.0319C42.3155 88.1894 42.4903 88.4343 42.6302 88.7668L44.6493 94.2521L47.4551 86.6934C47.56 86.3609 47.7435 86.116 48.0058 85.9585C48.268 85.7835 48.5914 85.696 48.976 85.696ZM64.4074 85.4336C64.8619 85.4336 65.2378 85.5823 65.535 85.8797C65.8321 86.1772 65.9807 86.5621 65.9807 87.0346V98.1364C65.9807 98.5914 65.8321 98.9763 65.535 99.2912C65.2378 99.5887 64.8619 99.7374 64.4074 99.7374C63.9529 99.7374 63.577 99.5887 63.2798 99.2912C63.0001 98.9938 62.8515 98.6176 62.834 98.1627C62.397 98.6701 61.8026 99.1075 61.0509 99.475C60.3167 99.8249 59.5388 99.9999 58.7171 99.9999C57.5109 99.9999 56.4183 99.6937 55.4393 99.0813C54.4604 98.4514 53.6825 97.5853 53.1056 96.483C52.5462 95.3807 52.2664 94.1296 52.2664 92.7298C52.2664 91.3301 52.5462 90.079 53.1056 88.9767C53.665 87.8569 54.4254 86.9908 55.3869 86.3784C56.3659 85.7485 57.441 85.4336 58.6123 85.4336C59.4514 85.4336 60.238 85.591 60.9723 85.906C61.7065 86.2034 62.3271 86.5884 62.834 87.0608V87.0346C62.834 86.5796 62.9826 86.2034 63.2798 85.906C63.577 85.591 63.9529 85.4336 64.4074 85.4336ZM59.1105 97.1129C60.2468 97.1129 61.1733 96.7017 61.89 95.8793C62.6068 95.0395 62.9652 93.9896 62.9652 92.7298C62.9652 91.4701 62.6068 90.4202 61.89 89.5804C61.1733 88.7405 60.2468 88.3206 59.1105 88.3206C57.9917 88.3206 57.0739 88.7405 56.3571 89.5804C55.6404 90.4202 55.282 91.4701 55.282 92.7298C55.282 93.9896 55.6316 95.0395 56.3309 95.8793C57.0477 96.7017 57.9742 97.1129 59.1105 97.1129ZM76.6809 85.4336C77.2054 85.4336 77.6424 85.5823 77.992 85.8797C78.3591 86.1772 78.5427 86.5271 78.5427 86.9296C78.5427 87.472 78.4029 87.8832 78.1232 88.1631C77.8435 88.4256 77.5113 88.5568 77.1267 88.5568C76.8645 88.5568 76.5673 88.4956 76.2351 88.3731C76.1827 88.3556 76.0603 88.3206 75.868 88.2681C75.6932 88.2156 75.5009 88.1894 75.2911 88.1894C74.8366 88.1894 74.3996 88.3293 73.98 88.6093C73.5605 88.8892 73.2106 89.3179 72.9309 89.8953C72.6686 90.4552 72.5375 91.1289 72.5375 91.9162V98.1364C72.5375 98.5914 72.3889 98.9763 72.0917 99.2912C71.7946 99.5887 71.4187 99.7374 70.9642 99.7374C70.5097 99.7374 70.1338 99.5887 69.8366 99.2912C69.5395 98.9763 69.3908 98.5914 69.3908 98.1364V87.297C69.3908 86.8421 69.5395 86.4659 69.8366 86.1684C70.1338 85.8535 70.5097 85.696 70.9642 85.696C71.4187 85.696 71.7946 85.8535 72.0917 86.1684C72.3889 86.4659 72.5375 86.8421 72.5375 87.297V87.6382C72.9396 86.9208 73.5168 86.3784 74.2685 86.011C75.0202 85.626 75.8243 85.4336 76.6809 85.4336ZM91.5263 80.3157C91.9808 80.3157 92.3566 80.4644 92.6538 80.7619C92.951 81.0593 93.0996 81.4442 93.0996 81.9167V98.1364C93.0996 98.5914 92.951 98.9763 92.6538 99.2912C92.3566 99.5887 91.9808 99.7374 91.5263 99.7374C91.0718 99.7374 90.6959 99.5887 90.3987 99.2912C90.119 98.9938 89.9704 98.6176 89.9529 98.1627C89.5159 98.6701 88.9215 99.1075 88.1698 99.475C87.4356 99.8249 86.6576 99.9999 85.836 99.9999C84.6298 99.9999 83.5372 99.6937 82.5582 99.0813C81.5793 98.4514 80.8013 97.5853 80.2244 96.483C79.665 95.3807 79.3853 94.1296 79.3853 92.7298C79.3853 91.3301 79.665 90.079 80.2244 88.9767C80.7838 87.8569 81.5443 86.9908 82.5058 86.3784C83.4847 85.7485 84.5599 85.4336 85.7311 85.4336C86.5702 85.4336 87.3569 85.591 88.0911 85.906C88.8254 86.2034 89.446 86.5884 89.9529 87.0608V81.9167C89.9529 81.4617 90.1015 81.0855 90.3987 80.7881C90.6959 80.4731 91.0718 80.3157 91.5263 80.3157ZM86.2293 97.1129C87.3656 97.1129 88.2922 96.7017 89.0089 95.8793C89.7257 95.0395 90.084 93.9896 90.084 92.7298C90.084 91.4701 89.7257 90.4202 89.0089 89.5804C88.2922 88.7405 87.3656 88.3206 86.2293 88.3206C85.1105 88.3206 84.1927 88.7405 83.476 89.5804C82.7593 90.4202 82.4009 91.4701 82.4009 92.7298C82.4009 93.9896 82.7505 95.0395 83.4498 95.8793C84.1665 96.7017 85.093 97.1129 86.2293 97.1129ZM95.6965 97.559C95.5392 97.3491 95.4605 97.0866 95.4605 96.7717C95.4605 96.3167 95.6877 95.9318 96.1423 95.6169C96.387 95.4594 96.6405 95.3807 96.9027 95.3807C97.2698 95.3807 97.6195 95.5469 97.9516 95.8793C98.4761 96.4217 99.018 96.8242 99.5774 97.0866C100.154 97.3491 100.845 97.4803 101.649 97.4803C103.013 97.4278 103.694 96.9117 103.694 95.9318C103.694 95.4244 103.458 95.0395 102.986 94.777C102.532 94.5146 101.815 94.2521 100.836 93.9896C99.8221 93.7097 98.9918 93.4297 98.3449 93.1498C97.7156 92.8698 97.1649 92.4499 96.6929 91.89C96.2384 91.3126 96.0112 90.5427 96.0112 89.5804C96.0112 88.7405 96.2472 88.0144 96.7192 87.402C97.2086 86.7721 97.838 86.2909 98.6072 85.9585C99.3938 85.6085 100.224 85.4336 101.098 85.4336C101.99 85.4336 102.881 85.5998 103.773 85.9322C104.665 86.2647 105.364 86.7546 105.871 87.402C106.098 87.6819 106.212 87.9969 106.212 88.3468C106.212 88.7493 106.046 89.0817 105.713 89.3442C105.469 89.5366 105.189 89.6329 104.874 89.6329C104.49 89.6329 104.175 89.5104 103.93 89.2654C103.616 88.8805 103.205 88.5743 102.698 88.3468C102.208 88.1194 101.649 88.0056 101.02 88.0056C99.691 88.0056 99.0267 88.4868 99.0267 89.4491C99.0267 89.8341 99.1491 90.149 99.3938 90.394C99.6386 90.6215 99.9445 90.8052 100.312 90.9451C100.696 91.0676 101.229 91.2251 101.911 91.4176C102.855 91.68 103.642 91.9512 104.271 92.2312C104.901 92.5111 105.434 92.9398 105.871 93.5172C106.308 94.0946 106.526 94.8557 106.526 95.8006C106.526 96.6579 106.273 97.4103 105.766 98.0577C105.259 98.6876 104.603 99.1688 103.799 99.5012C103.013 99.8337 102.2 99.9999 101.361 99.9999C100.207 99.9999 99.1316 99.8074 98.1352 99.4225C97.1387 99.0375 96.3258 98.4164 95.6965 97.559Z" fill="#D5D5D5"/>
<path d="M271.313 79H181.687C173.023 79 166 72.061 166 63.5C166 54.939 173.023 48 181.687 48H271.313C279.977 48 287 54.939 287 63.5C287 72.061 279.977 79 271.313 79Z" fill="#D5D5D5"/>
<path d="M190.683 64.4878C190.683 64.5347 190.683 64.5563 190.683 64.5815V70.1759C190.683 70.9617 190.074 71.5637 189.301 71.5637C188.527 71.5637 187.874 70.9617 187.874 70.1759V64.5779V64.4842C187.874 64.4626 187.874 64.4373 187.874 64.4157C187.874 63.5145 187.053 62.8188 186.094 62.8188C185.065 62.8188 184.244 63.5145 184.244 64.4157V64.4842C184.244 64.531 184.244 64.5527 184.244 64.5779V70.1759C184.244 70.9617 183.613 71.5637 182.862 71.5637C182.066 71.5637 181.457 70.9617 181.457 70.1759V64.5779V64.4842C181.457 64.4626 181.457 64.4373 181.457 64.4157C181.457 63.5145 180.636 62.8188 179.633 62.8188C178.626 62.8188 177.809 63.5145 177.809 64.4157V70.2444C177.809 70.9834 177.2 71.6106 176.405 71.6106C175.657 71.6106 175 70.987 175 70.2444V61.4094C175 60.6452 175.657 60 176.405 60C176.85 60 177.269 60.2307 177.481 60.5551C178.137 60.2307 178.863 60.0469 179.633 60.0469C180.873 60.0469 181.997 60.5083 182.862 61.2941C183.682 60.5083 184.806 60.0469 186.09 60.0469C188.596 60.0469 190.68 62.0114 190.68 64.4193V64.4878H190.683Z" fill="white"/>
<path d="M202.77 66.5208H195.561C195.89 67.8401 197.083 68.8566 198.535 68.8566C199.283 68.8566 200.384 68.5574 200.993 67.9771C201.555 67.4436 202.445 67.4436 202.982 67.9987C203.543 68.5322 203.522 69.4334 202.96 69.9633C201.672 71.1888 199.87 71.607 198.535 71.607C195.281 71.607 192.683 69.0152 192.683 65.8035C192.683 62.635 195.281 60 198.535 60C198.885 60 199.213 60.0216 199.563 60.0937C201.154 60.3929 202.511 61.3662 203.354 62.754C203.73 63.4028 204.149 64.2571 204.102 65.0213C204.102 65.2303 204.007 65.461 203.916 65.6917C203.73 66.1279 203.332 66.5208 202.77 66.5208ZM195.959 64.185H200.92C200.454 63.3055 199.585 62.7972 198.535 62.7972C197.455 62.7972 196.521 63.3271 195.959 64.185Z" fill="white"/>
<path d="M215.646 63.5614C215.106 64.1165 214.241 64.1634 213.657 63.6299C213.143 63.1433 212.439 62.8657 211.713 62.8657C210.122 62.8657 208.809 64.2066 208.809 65.8504V70.2228C208.809 70.987 208.178 71.6106 207.405 71.6106C206.631 71.6106 206 70.987 206 70.2228V61.3662C206 60.602 206.631 60 207.405 60C208.036 60 208.55 60.3929 208.74 60.948C209.604 60.4145 210.637 60.0937 211.713 60.0937C213.165 60.0937 214.522 60.6488 215.576 61.6185C216.138 62.1267 216.182 63.0063 215.646 63.5614Z" fill="white"/>
<path d="M224.007 71.5859C222.46 71.5859 221.033 71.0092 219.932 69.9674C218.808 68.8788 218.177 67.4478 218.13 65.8978C218.108 64.373 218.669 62.8915 219.793 61.7813C220.869 60.6711 222.321 60.0474 223.89 60.0006C225.459 59.979 226.932 60.5557 228.056 61.6443C228.618 62.1526 228.64 63.0537 228.103 63.5872C227.563 64.1423 226.677 64.164 226.115 63.6341C225.532 63.079 224.758 62.7798 223.937 62.7798C223.116 62.7798 222.369 63.1258 221.785 63.7062C221.245 64.2829 220.92 65.0471 220.942 65.8581C220.942 66.644 221.292 67.4298 221.88 67.9633C222.463 68.54 223.237 68.8428 224.032 68.8176C224.806 68.8176 225.532 68.5184 226.093 68.0065C226.633 67.473 227.545 67.5199 228.06 68.075C228.6 68.6301 228.552 69.5097 227.99 70.0395C226.936 71.0092 225.557 71.5643 224.105 71.5895H224.007V71.5859Z" fill="white"/>
<path d="M240.999 70.1633C240.999 70.9274 240.368 71.551 239.594 71.551C238.799 71.551 238.168 70.9274 238.168 70.1633V65.0987C238.168 63.7794 237.092 62.716 235.756 62.716C234.421 62.716 233.345 63.7794 233.345 65.0987V70.1633C233.345 70.9274 232.714 71.551 231.919 71.551C231.145 71.551 230.492 70.9274 230.492 70.1633V55.4094C230.492 54.6452 231.149 54 231.919 54C232.714 54 233.345 54.6488 233.345 55.4094V60.4992C234.071 60.1279 234.888 59.9224 235.756 59.9224C238.66 59.9224 240.999 62.2366 240.999 65.1023V70.1633Z" fill="white"/>
<path d="M254.844 61.3193V70.1759C254.844 70.8933 254.26 71.4952 253.487 71.4952C252.713 71.4952 252.246 70.8933 252.246 70.1759V69.8984C251.24 70.7527 250.069 71.2645 248.664 71.2645C245.527 71.2645 242.999 68.7665 242.999 65.6917C242.999 62.617 245.527 60.0937 248.664 60.0937C250.069 60.0937 251.24 60.6272 252.246 61.4347V61.3193C252.246 60.602 252.713 60 253.487 60C254.26 60 254.844 60.602 254.844 61.3193ZM251.593 65.6881C251.593 64.0913 250.258 62.7972 248.668 62.7972C247.052 62.7972 245.72 64.0913 245.72 65.6881C245.72 67.285 247.055 68.5574 248.668 68.5574C250.258 68.5574 251.593 67.285 251.593 65.6881Z" fill="white"/>
<path d="M267.894 65.854V70.2264C267.894 70.9906 267.285 71.6142 266.511 71.6142C265.716 71.6142 265.107 70.9906 265.107 70.2264V65.854C265.107 64.2102 263.888 62.8945 262.414 62.8945C260.59 62.8945 259.653 64.6969 259.653 66.2937V70.2264C259.653 70.9906 259.022 71.6142 258.248 71.6142C257.475 71.6142 256.844 70.9906 256.844 70.2264V61.3878C256.844 60.6236 257.475 60 258.248 60C258.857 60 259.372 60.3929 259.558 60.948C260.401 60.4145 261.36 60.1154 262.414 60.1154C265.435 60.1154 267.894 62.6819 267.894 65.854Z" fill="white"/>
<path d="M277.176 70.1669C277.176 70.9527 276.545 71.5547 275.771 71.5547C275.56 71.5547 275.373 71.5547 275.162 71.533C274.389 71.4177 273.641 71.0933 273.101 70.4913C272.634 69.9578 272.305 69.1251 272.305 68.4114V62.5791H271.299C270.525 62.5791 269.894 61.9555 269.894 61.1913C269.894 60.4271 270.525 59.8035 271.299 59.8035H272.305V55.3878C272.305 54.6236 272.937 54 273.71 54C274.483 54 275.114 54.6236 275.114 55.3878V59.8035H275.888C276.661 59.8035 277.292 60.4271 277.292 61.1913C277.292 61.9555 276.661 62.5791 275.888 62.5791H275.114V68.0834C275.162 68.2672 275.114 68.5448 275.279 68.6853C275.395 68.8007 275.607 68.7791 275.771 68.7791C276.545 68.7791 277.176 69.4027 277.176 70.1669Z" fill="white"/>
<path d="M102.559 11.4805V12.5938C102.691 12.3828 102.854 12.1973 103.045 12.0371C103.236 11.873 103.447 11.7363 103.678 11.627C103.912 11.5137 104.16 11.4297 104.422 11.375C104.688 11.3164 104.959 11.2871 105.236 11.2871C105.666 11.2871 106.061 11.3438 106.42 11.457C106.783 11.5703 107.109 11.7285 107.398 11.9316C107.688 12.1309 107.941 12.3691 108.16 12.6465C108.379 12.9238 108.561 13.2285 108.705 13.5605C108.854 13.8926 108.963 14.2441 109.033 14.6152C109.107 14.9863 109.145 15.3652 109.145 15.752C109.145 16.3652 109.062 16.9414 108.898 17.4805C108.738 18.0195 108.496 18.4902 108.172 18.8926C107.852 19.2949 107.449 19.6133 106.965 19.8477C106.484 20.0781 105.924 20.1934 105.283 20.1934C105.076 20.1934 104.854 20.1738 104.615 20.1348C104.377 20.0996 104.137 20.0352 103.895 19.9414C103.656 19.8477 103.426 19.7227 103.203 19.5664C102.98 19.4102 102.785 19.2109 102.617 18.9688V23.1934H101.129V11.4805H102.559ZM107.562 15.6582C107.562 15.2793 107.516 14.9082 107.422 14.5449C107.328 14.1777 107.18 13.8516 106.977 13.5664C106.773 13.2773 106.512 13.0449 106.191 12.8691C105.875 12.6934 105.492 12.6055 105.043 12.6055C104.586 12.6055 104.199 12.6973 103.883 12.8809C103.566 13.0645 103.309 13.3047 103.109 13.6016C102.91 13.8984 102.766 14.2324 102.676 14.6035C102.59 14.9746 102.547 15.3496 102.547 15.7285C102.547 16.1348 102.592 16.5273 102.682 16.9062C102.775 17.2852 102.924 17.6211 103.127 17.9141C103.334 18.2031 103.602 18.4355 103.93 18.6113C104.262 18.7832 104.664 18.8691 105.137 18.8691C105.598 18.8691 105.982 18.7793 106.291 18.5996C106.604 18.416 106.854 18.1758 107.041 17.8789C107.229 17.5781 107.361 17.2344 107.439 16.8477C107.521 16.4609 107.562 16.0645 107.562 15.6582ZM111.863 15.752C111.863 16.2676 111.924 16.7246 112.045 17.123C112.166 17.5176 112.338 17.8516 112.561 18.125C112.787 18.3945 113.059 18.5996 113.375 18.7402C113.691 18.877 114.045 18.9453 114.436 18.9453C114.807 18.9453 115.146 18.877 115.455 18.7402C115.768 18.5996 116.037 18.3945 116.264 18.125C116.49 17.8516 116.666 17.5176 116.791 17.123C116.916 16.7246 116.979 16.2676 116.979 15.752C116.979 15.2559 116.916 14.8086 116.791 14.4102C116.666 14.0117 116.49 13.6738 116.264 13.3965C116.037 13.1152 115.768 12.9004 115.455 12.752C115.146 12.6035 114.807 12.5293 114.436 12.5293C114.045 12.5293 113.691 12.6035 113.375 12.752C113.059 12.9004 112.787 13.1152 112.561 13.3965C112.338 13.6738 112.166 14.0117 112.045 14.4102C111.924 14.8086 111.863 15.2559 111.863 15.752ZM110.328 15.752C110.328 15.123 110.408 14.5332 110.568 13.9824C110.732 13.4316 110.982 12.9531 111.318 12.5469C111.658 12.1367 112.086 11.8145 112.602 11.5801C113.117 11.3457 113.729 11.2285 114.436 11.2285C115.135 11.2285 115.742 11.3457 116.258 11.5801C116.773 11.8145 117.199 12.1367 117.535 12.5469C117.875 12.9531 118.127 13.4316 118.291 13.9824C118.455 14.5332 118.537 15.123 118.537 15.752C118.537 16.3691 118.455 16.9512 118.291 17.498C118.127 18.0449 117.875 18.5234 117.535 18.9336C117.199 19.3398 116.773 19.6621 116.258 19.9004C115.742 20.1348 115.135 20.252 114.436 20.252C113.729 20.252 113.117 20.1348 112.602 19.9004C112.086 19.6621 111.658 19.3398 111.318 18.9336C110.982 18.5234 110.732 18.0449 110.568 17.498C110.408 16.9512 110.328 16.3691 110.328 15.752ZM123.535 20H121.953L119.299 11.4805H120.922L122.768 18.2598L124.543 11.4805H125.914L127.689 18.2598L129.535 11.4805H131.158L128.504 20H126.922L125.229 13.7305L123.535 20ZM139.625 17.375C139.543 17.8008 139.396 18.1875 139.186 18.5352C138.975 18.8789 138.711 19.1738 138.395 19.4199C138.082 19.666 137.723 19.8574 137.316 19.9941C136.91 20.127 136.471 20.1934 135.998 20.1934C135.318 20.1934 134.725 20.082 134.217 19.8594C133.709 19.6367 133.285 19.3262 132.945 18.9277C132.609 18.5293 132.357 18.0566 132.189 17.5098C132.021 16.959 131.938 16.3574 131.938 15.7051C131.938 15.0684 132.033 14.4805 132.225 13.9414C132.416 13.4023 132.686 12.9375 133.033 12.5469C133.385 12.1523 133.803 11.8438 134.287 11.6211C134.775 11.3984 135.312 11.2871 135.898 11.2871C136.41 11.2871 136.861 11.3613 137.252 11.5098C137.643 11.6582 137.98 11.8594 138.266 12.1133C138.555 12.3633 138.795 12.6523 138.986 12.9805C139.182 13.3086 139.336 13.6543 139.449 14.0176C139.562 14.3809 139.641 14.75 139.684 15.125C139.73 15.4961 139.75 15.8496 139.742 16.1855H133.473C133.473 16.5527 133.523 16.8984 133.625 17.2227C133.73 17.5469 133.889 17.832 134.1 18.0781C134.314 18.3203 134.582 18.5137 134.902 18.6582C135.227 18.7988 135.607 18.8691 136.045 18.8691C136.307 18.8691 136.551 18.834 136.777 18.7637C137.008 18.6934 137.213 18.5938 137.393 18.4648C137.576 18.3359 137.734 18.1797 137.867 17.9961C138 17.8125 138.102 17.6055 138.172 17.375H139.625ZM135.828 12.6055C135.48 12.6055 135.164 12.668 134.879 12.793C134.598 12.9141 134.355 13.082 134.152 13.2969C133.949 13.5117 133.787 13.7617 133.666 14.0469C133.549 14.332 133.482 14.6387 133.467 14.9668H138.184C138.164 14.6348 138.092 14.3242 137.967 14.0352C137.846 13.7461 137.68 13.4961 137.469 13.2852C137.262 13.0742 137.018 12.9082 136.736 12.7871C136.459 12.666 136.156 12.6055 135.828 12.6055ZM142.531 11.4805V13.2852C142.641 12.9609 142.793 12.6738 142.988 12.4238C143.188 12.1699 143.422 11.959 143.691 11.791C143.961 11.6191 144.262 11.4922 144.594 11.4102C144.926 11.3242 145.281 11.2832 145.66 11.2871V12.8457C145.125 12.8457 144.664 12.9219 144.277 13.0742C143.895 13.2227 143.578 13.4316 143.328 13.7012C143.082 13.9707 142.898 14.291 142.777 14.6621C142.66 15.0332 142.602 15.4375 142.602 15.875V20H141.137V11.4805H142.531ZM153.922 17.375C153.84 17.8008 153.693 18.1875 153.482 18.5352C153.271 18.8789 153.008 19.1738 152.691 19.4199C152.379 19.666 152.02 19.8574 151.613 19.9941C151.207 20.127 150.768 20.1934 150.295 20.1934C149.615 20.1934 149.021 20.082 148.514 19.8594C148.006 19.6367 147.582 19.3262 147.242 18.9277C146.906 18.5293 146.654 18.0566 146.486 17.5098C146.318 16.959 146.234 16.3574 146.234 15.7051C146.234 15.0684 146.33 14.4805 146.521 13.9414C146.713 13.4023 146.982 12.9375 147.33 12.5469C147.682 12.1523 148.1 11.8438 148.584 11.6211C149.072 11.3984 149.609 11.2871 150.195 11.2871C150.707 11.2871 151.158 11.3613 151.549 11.5098C151.939 11.6582 152.277 11.8594 152.562 12.1133C152.852 12.3633 153.092 12.6523 153.283 12.9805C153.479 13.3086 153.633 13.6543 153.746 14.0176C153.859 14.3809 153.938 14.75 153.98 15.125C154.027 15.4961 154.047 15.8496 154.039 16.1855H147.77C147.77 16.5527 147.82 16.8984 147.922 17.2227C148.027 17.5469 148.186 17.832 148.396 18.0781C148.611 18.3203 148.879 18.5137 149.199 18.6582C149.523 18.7988 149.904 18.8691 150.342 18.8691C150.604 18.8691 150.848 18.834 151.074 18.7637C151.305 18.6934 151.51 18.5938 151.689 18.4648C151.873 18.3359 152.031 18.1797 152.164 17.9961C152.297 17.8125 152.398 17.6055 152.469 17.375H153.922ZM150.125 12.6055C149.777 12.6055 149.461 12.668 149.176 12.793C148.895 12.9141 148.652 13.082 148.449 13.2969C148.246 13.5117 148.084 13.7617 147.963 14.0469C147.846 14.332 147.779 14.6387 147.764 14.9668H152.48C152.461 14.6348 152.389 14.3242 152.264 14.0352C152.143 13.7461 151.977 13.4961 151.766 13.2852C151.559 13.0742 151.314 12.9082 151.033 12.7871C150.756 12.666 150.453 12.6055 150.125 12.6055ZM162.992 8.28711V20H161.504V18.9688C161.336 19.2109 161.141 19.4102 160.918 19.5664C160.695 19.7227 160.463 19.8477 160.221 19.9414C159.982 20.0352 159.742 20.0996 159.5 20.1348C159.262 20.1738 159.041 20.1934 158.838 20.1934C158.197 20.1934 157.635 20.0781 157.15 19.8477C156.67 19.6133 156.268 19.2949 155.943 18.8926C155.623 18.4902 155.381 18.0195 155.217 17.4805C155.057 16.9414 154.977 16.3652 154.977 15.752C154.977 15.3652 155.012 14.9863 155.082 14.6152C155.156 14.2441 155.266 13.8926 155.41 13.5605C155.559 13.2285 155.742 12.9238 155.961 12.6465C156.18 12.3691 156.434 12.1309 156.723 11.9316C157.012 11.7285 157.336 11.5703 157.695 11.457C158.055 11.3438 158.451 11.2871 158.885 11.2871C159.443 11.2871 159.947 11.3906 160.396 11.5977C160.846 11.8047 161.215 12.125 161.504 12.5586V8.28711H162.992ZM156.559 15.6582C156.559 15.9316 156.574 16.2012 156.605 16.4668C156.641 16.7285 156.697 16.9785 156.775 17.2168C156.854 17.4551 156.953 17.6758 157.074 17.8789C157.199 18.0781 157.352 18.252 157.531 18.4004C157.711 18.5449 157.92 18.6602 158.158 18.7461C158.4 18.8281 158.676 18.8691 158.984 18.8691C159.457 18.8691 159.857 18.7832 160.186 18.6113C160.518 18.4355 160.785 18.2031 160.988 17.9141C161.195 17.6211 161.344 17.2852 161.434 16.9062C161.527 16.5273 161.574 16.1348 161.574 15.7285C161.574 15.3496 161.529 14.9746 161.439 14.6035C161.354 14.2324 161.211 13.8984 161.012 13.6016C160.812 13.3047 160.555 13.0645 160.238 12.8809C159.922 12.6973 159.535 12.6055 159.078 12.6055C158.629 12.6055 158.244 12.6934 157.924 12.8691C157.607 13.0449 157.348 13.2773 157.145 13.5664C156.941 13.8516 156.793 14.1777 156.699 14.5449C156.605 14.9082 156.559 15.2793 156.559 15.6582ZM170.633 8.28711V12.5645C170.922 12.1309 171.291 11.8105 171.74 11.6035C172.189 11.3965 172.693 11.293 173.252 11.293C173.682 11.293 174.076 11.3496 174.436 11.4629C174.799 11.5762 175.125 11.7344 175.414 11.9375C175.703 12.1367 175.957 12.375 176.176 12.6523C176.395 12.9297 176.576 13.2344 176.721 13.5664C176.869 13.8984 176.979 14.25 177.049 14.6211C177.123 14.9922 177.16 15.3711 177.16 15.7578C177.16 16.3711 177.078 16.9473 176.914 17.4863C176.754 18.0254 176.512 18.4961 176.188 18.8984C175.867 19.3008 175.465 19.6191 174.98 19.8535C174.5 20.084 173.939 20.1992 173.299 20.1992C173.092 20.1992 172.869 20.1797 172.631 20.1406C172.393 20.1055 172.152 20.041 171.91 19.9473C171.672 19.8535 171.441 19.7285 171.219 19.5723C170.996 19.416 170.801 19.2168 170.633 18.9746V20.0059H169.145V8.28711H170.633ZM175.578 15.6582C175.578 15.2793 175.531 14.9082 175.438 14.5449C175.344 14.1777 175.195 13.8516 174.992 13.5664C174.789 13.2773 174.527 13.0449 174.207 12.8691C173.891 12.6934 173.508 12.6055 173.059 12.6055C172.602 12.6055 172.215 12.6973 171.898 12.8809C171.582 13.0645 171.324 13.3047 171.125 13.6016C170.926 13.8984 170.781 14.2324 170.691 14.6035C170.605 14.9746 170.562 15.3496 170.562 15.7285C170.562 16.1348 170.607 16.5273 170.697 16.9062C170.791 17.2852 170.939 17.6211 171.143 17.9141C171.35 18.2031 171.617 18.4355 171.945 18.6113C172.277 18.7832 172.68 18.8691 173.152 18.8691C173.613 18.8691 173.998 18.7793 174.307 18.5996C174.619 18.416 174.869 18.1758 175.057 17.8789C175.244 17.5781 175.377 17.2344 175.455 16.8477C175.537 16.4609 175.578 16.0645 175.578 15.6582ZM182.164 21.1016C182.008 21.5039 181.846 21.8477 181.678 22.1328C181.514 22.418 181.334 22.6504 181.139 22.8301C180.943 23.0137 180.727 23.1465 180.488 23.2285C180.254 23.3145 179.988 23.3574 179.691 23.3574C179.496 23.3574 179.311 23.3438 179.135 23.3164C178.963 23.293 178.805 23.252 178.66 23.1934V21.8223C178.816 21.8848 178.969 21.9316 179.117 21.9629C179.266 21.998 179.4 22.0156 179.521 22.0156C179.775 22.0156 179.998 21.9551 180.189 21.834C180.385 21.7168 180.529 21.5371 180.623 21.2949L181.18 19.8828L177.863 11.4805H179.521L181.895 18.1543L184.25 11.4805H185.809L182.164 21.1016Z" fill="#D5D5D5"/>
</svg>
