<svg width="157" height="66" viewBox="0 0 157 66" fill="none" xmlns="http://www.w3.org/2000/svg">
<path d="M28.7647 28.234C28.7647 36.044 22.3979 42.3531 14.6321 42.3531C11.6703 42.3531 8.88082 41.4586 6.64663 39.8974C6.19893 41.2349 4.91609 42.2413 3.40511 42.2413C1.50668 42.2413 0 40.7318 0 38.8911V3.40184C0 1.56115 1.50668 0 3.40511 0C5.24756 0 6.75425 1.56115 6.75425 3.40184V16.4587C9.04441 15.0094 11.7263 14.1148 14.6277 14.1148C22.3979 14.1191 28.7647 20.4239 28.7647 28.234ZM22.0062 28.234C22.0062 24.1612 18.657 20.8669 14.6321 20.8669C10.5554 20.8669 7.25791 24.1569 7.25791 28.234C7.25791 32.3067 10.5511 35.601 14.6321 35.601C18.6527 35.601 22.0062 32.3067 22.0062 28.234Z" fill="url(#paint0_linear)"/>
<path d="M46.3204 42.0448C39.0582 42.0448 33.0831 35.74 33.0831 28.0374V17.3804C33.0831 15.5397 34.4779 14.0344 36.2127 14.0344C37.9992 14.0344 39.7298 15.5397 39.7298 17.3804V28.0374C39.7298 32.0543 43.0789 35.2927 46.3204 35.2927C50.1173 35.2927 52.9671 32.0586 52.9671 28.0374V17.8276C52.9671 15.931 54.9214 14.4817 56.4281 14.4817C58.1587 14.4817 59.6137 15.931 59.6137 17.8276V28.0374C59.6137 35.7357 53.6386 42.0448 46.3204 42.0448Z" fill="url(#paint1_linear)"/>
<path d="M92.7009 3.40184V38.8911C92.7009 40.7318 91.1943 42.2413 89.2915 42.2413C87.7848 42.2413 86.4977 41.2908 86.05 39.8974C83.8158 41.4586 81.022 42.3531 78.0646 42.3531C70.2987 42.3531 63.9319 36.0483 63.9319 28.234C63.9319 20.4798 70.2987 14.1148 78.0646 14.1148C80.9703 14.1148 83.6479 15.0094 85.9381 16.4587V3.40184C85.9381 1.56115 87.4448 0 89.2872 0C91.1943 0 92.7009 1.56115 92.7009 3.40184ZM85.4387 28.234C85.4387 24.1612 82.1412 20.8669 78.0646 20.8669C73.9879 20.8669 70.6904 24.1612 70.6904 28.234C70.6904 32.3067 73.9879 35.601 78.0646 35.601C82.1455 35.601 85.4387 32.3067 85.4387 28.234Z" fill="url(#paint2_linear)"/>
<path d="M125.784 3.40184V38.8911C125.784 40.7318 124.278 42.2413 122.379 42.2413C120.872 42.2413 119.585 41.2908 119.138 39.8974C116.903 41.4586 114.11 42.3531 111.152 42.3531C103.391 42.3531 97.0195 36.0483 97.0195 28.234C97.0195 20.4798 103.386 14.1148 111.152 14.1148C114.058 14.1148 116.736 15.0094 119.026 16.4587V3.40184C119.026 1.56115 120.532 0 122.379 0C124.273 0 125.784 1.56115 125.784 3.40184ZM118.522 28.234C118.522 24.1612 115.229 20.8669 111.148 20.8669C107.067 20.8669 103.774 24.1612 103.774 28.234C103.774 32.3067 107.067 35.601 111.148 35.601C115.229 35.601 118.522 32.3067 118.522 28.234Z" fill="url(#paint3_linear)"/>
<path d="M156.316 17.3804V41.7652C156.316 49.5194 150.117 55.8844 142.575 55.8844C138.554 55.8844 134.809 54.0996 132.187 50.973C131.016 49.5796 131.18 47.4593 132.523 46.2293C133.866 44.9993 135.928 45.1671 137.103 46.6207C138.498 48.2377 140.513 49.1882 142.579 49.1882C146.544 49.1882 149.785 45.8423 149.785 41.7652V39.4773C147.943 40.5352 145.765 41.2061 143.419 41.2061C136.38 41.2061 130.629 35.0691 130.629 27.4784V17.4922C130.629 15.7074 132.08 14.1462 133.87 14.1462C135.657 14.1462 137.108 15.7074 137.108 17.4922V27.4784C137.108 31.3275 139.957 34.51 143.419 34.51C146.936 34.51 149.785 31.3275 149.785 27.4784V17.3804C149.785 15.5397 151.292 14.0344 153.023 14.0344C154.865 14.0301 156.316 15.5397 156.316 17.3804Z" fill="url(#paint4_linear)"/>
<path d="M14.3961 63.1654C14.6233 63.3053 14.7981 63.4891 14.9205 63.7165C15.0604 63.944 15.1303 64.1802 15.1303 64.4251C15.1303 64.7401 15.0254 65.0288 14.8156 65.2912C14.5534 65.6062 14.1513 65.7637 13.6094 65.7637C13.1898 65.7637 12.8052 65.6674 12.4556 65.475C11.1969 64.7576 10.5676 63.2966 10.5676 61.092C10.5676 60.4621 10.3578 59.9634 9.93827 59.596C9.53619 59.2285 8.95056 59.0448 8.18137 59.0448H3.27779V64.1364C3.27779 64.6089 3.14668 64.9938 2.88446 65.2912C2.63971 65.5887 2.30757 65.7374 1.88801 65.7374C1.38104 65.7374 0.935264 65.5887 0.55067 65.2912C0.183557 64.9763 0 64.5914 0 64.1364V48.9665C0 48.5116 0.148593 48.1354 0.44578 47.8379C0.760448 47.523 1.14504 47.3655 1.59956 47.3655H9.15159C10.0606 47.3655 10.9172 47.6105 11.7214 48.1004C12.5255 48.5903 13.1636 49.2639 13.6356 50.1213C14.1251 50.9786 14.3698 51.941 14.3698 53.0083C14.3698 53.8832 14.1338 54.7405 13.6618 55.5804C13.1898 56.4027 12.578 57.0589 11.8263 57.5488C12.9276 58.3187 13.5307 59.351 13.6356 60.6458C13.6881 60.9257 13.7143 61.1969 13.7143 61.4594C13.7842 62.0018 13.8541 62.3955 13.9241 62.6404C13.994 62.8679 14.1513 63.0429 14.3961 63.1654ZM9.02048 56.3415C9.33515 56.3415 9.64108 56.1928 9.93827 55.8953C10.2355 55.5979 10.4802 55.2042 10.6725 54.7143C10.8648 54.2069 10.9609 53.6644 10.9609 53.087C10.9609 52.5971 10.8648 52.1509 10.6725 51.7485C10.4802 51.3286 10.2355 50.9961 9.93827 50.7512C9.64108 50.5062 9.33515 50.3837 9.02048 50.3837H3.27779V56.3415H9.02048ZM30.1987 58.3887C30.1812 58.8086 30.0151 59.1498 29.7005 59.4122C29.3858 59.6747 29.0187 59.8059 28.5991 59.8059H19.9458C20.1555 60.8382 20.6363 61.6519 21.388 62.2468C22.1397 62.8242 22.9875 63.1129 23.9316 63.1129C24.6483 63.1129 25.2077 63.0516 25.6098 62.9291C26.0119 62.7892 26.3265 62.6492 26.5538 62.5092C26.7985 62.3517 26.9646 62.2468 27.052 62.1943C27.3667 62.0368 27.6639 61.9581 27.9436 61.9581C28.3107 61.9581 28.6254 62.0893 28.8876 62.3517C29.1498 62.6142 29.2809 62.9204 29.2809 63.2703C29.2809 63.7428 29.0362 64.1714 28.5467 64.5564C28.0572 64.9588 27.4016 65.3 26.58 65.58C25.7584 65.8599 24.928 65.9999 24.0889 65.9999C22.6204 65.9999 21.3355 65.6937 20.2342 65.0813C19.1503 64.4689 18.3112 63.629 17.7169 62.5617C17.1225 61.4769 16.8253 60.2608 16.8253 58.9136C16.8253 57.4088 17.14 56.0878 17.7693 54.9505C18.3986 53.8132 19.229 52.9471 20.2604 52.3522C21.2918 51.7398 22.3932 51.4336 23.5644 51.4336C24.7182 51.4336 25.8021 51.7485 26.816 52.3784C27.8474 53.0083 28.6691 53.8569 29.2809 54.9242C29.8928 55.9916 30.1987 57.1464 30.1987 58.3887ZM23.5644 54.3206C21.5366 54.3206 20.3391 55.2742 19.972 57.1814H26.8422V56.9976C26.7723 56.2628 26.4139 55.6329 25.7671 55.108C25.1203 54.583 24.3861 54.3206 23.5644 54.3206ZM48.976 51.696C49.3955 51.696 49.7452 51.8535 50.0249 52.1684C50.3221 52.4659 50.4707 52.8508 50.4707 53.3233C50.4707 53.4807 50.4357 53.6819 50.3658 53.9269L46.3537 64.7401C46.2489 65.055 46.0566 65.3088 45.7769 65.5012C45.5146 65.6762 45.2262 65.7637 44.9115 65.7637L44.7017 65.7374C44.1074 65.7024 43.6616 65.37 43.3644 64.7401L41.1355 58.2837L39.0115 64.7401C38.7143 65.37 38.2685 65.7024 37.6742 65.7374L37.4644 65.7637C37.1497 65.7637 36.8525 65.6762 36.5728 65.5012C36.3106 65.3088 36.127 65.055 36.0221 64.7401L32.0101 53.9269C31.9402 53.7344 31.9052 53.5332 31.9052 53.3233C31.9052 52.8858 32.0451 52.5096 32.3248 52.1947C32.622 51.8622 33.0066 51.696 33.4786 51.696C33.8282 51.696 34.1254 51.7835 34.3701 51.9585C34.6324 52.116 34.8159 52.3609 34.9208 52.6934L37.7528 60.3833L39.8244 54.7668C40.1041 54.1194 40.5848 53.7957 41.2666 53.7957C41.6337 53.7957 41.9134 53.8744 42.1057 54.0319C42.3155 54.1894 42.4903 54.4343 42.6302 54.7668L44.6493 60.2521L47.4551 52.6934C47.56 52.3609 47.7435 52.116 48.0058 51.9585C48.268 51.7835 48.5914 51.696 48.976 51.696ZM64.4074 51.4336C64.8619 51.4336 65.2378 51.5823 65.535 51.8797C65.8321 52.1772 65.9807 52.5621 65.9807 53.0346V64.1364C65.9807 64.5914 65.8321 64.9763 65.535 65.2912C65.2378 65.5887 64.8619 65.7374 64.4074 65.7374C63.9529 65.7374 63.577 65.5887 63.2798 65.2912C63.0001 64.9938 62.8515 64.6176 62.834 64.1627C62.397 64.6701 61.8026 65.1075 61.0509 65.475C60.3167 65.8249 59.5388 65.9999 58.7171 65.9999C57.5109 65.9999 56.4183 65.6937 55.4393 65.0813C54.4604 64.4514 53.6825 63.5853 53.1056 62.483C52.5462 61.3807 52.2664 60.1296 52.2664 58.7298C52.2664 57.3301 52.5462 56.079 53.1056 54.9767C53.665 53.8569 54.4254 52.9908 55.3869 52.3784C56.3659 51.7485 57.441 51.4336 58.6123 51.4336C59.4514 51.4336 60.238 51.591 60.9723 51.906C61.7065 52.2034 62.3271 52.5884 62.834 53.0608V53.0346C62.834 52.5796 62.9826 52.2034 63.2798 51.906C63.577 51.591 63.9529 51.4336 64.4074 51.4336ZM59.1105 63.1129C60.2468 63.1129 61.1733 62.7017 61.89 61.8793C62.6068 61.0395 62.9652 59.9896 62.9652 58.7298C62.9652 57.4701 62.6068 56.4202 61.89 55.5804C61.1733 54.7405 60.2468 54.3206 59.1105 54.3206C57.9917 54.3206 57.0739 54.7405 56.3571 55.5804C55.6404 56.4202 55.282 57.4701 55.282 58.7298C55.282 59.9896 55.6316 61.0395 56.3309 61.8793C57.0477 62.7017 57.9742 63.1129 59.1105 63.1129ZM76.6809 51.4336C77.2054 51.4336 77.6424 51.5823 77.992 51.8797C78.3591 52.1772 78.5427 52.5271 78.5427 52.9296C78.5427 53.472 78.4029 53.8832 78.1232 54.1631C77.8435 54.4256 77.5113 54.5568 77.1267 54.5568C76.8645 54.5568 76.5673 54.4956 76.2351 54.3731C76.1827 54.3556 76.0603 54.3206 75.868 54.2681C75.6932 54.2156 75.5009 54.1894 75.2911 54.1894C74.8366 54.1894 74.3996 54.3293 73.98 54.6093C73.5605 54.8892 73.2106 55.3179 72.9309 55.8953C72.6686 56.4552 72.5375 57.1289 72.5375 57.9162V64.1364C72.5375 64.5914 72.3889 64.9763 72.0917 65.2912C71.7946 65.5887 71.4187 65.7374 70.9642 65.7374C70.5097 65.7374 70.1338 65.5887 69.8366 65.2912C69.5395 64.9763 69.3908 64.5914 69.3908 64.1364V53.297C69.3908 52.8421 69.5395 52.4659 69.8366 52.1684C70.1338 51.8535 70.5097 51.696 70.9642 51.696C71.4187 51.696 71.7946 51.8535 72.0917 52.1684C72.3889 52.4659 72.5375 52.8421 72.5375 53.297V53.6382C72.9396 52.9208 73.5168 52.3784 74.2685 52.011C75.0202 51.626 75.8243 51.4336 76.6809 51.4336ZM91.5263 46.3157C91.9808 46.3157 92.3566 46.4644 92.6538 46.7619C92.951 47.0593 93.0996 47.4442 93.0996 47.9167V64.1364C93.0996 64.5914 92.951 64.9763 92.6538 65.2912C92.3566 65.5887 91.9808 65.7374 91.5263 65.7374C91.0717 65.7374 90.6959 65.5887 90.3987 65.2912C90.119 64.9938 89.9704 64.6176 89.9529 64.1627C89.5159 64.6701 88.9215 65.1075 88.1698 65.475C87.4356 65.8249 86.6576 65.9999 85.836 65.9999C84.6298 65.9999 83.5372 65.6937 82.5582 65.0813C81.5793 64.4514 80.8013 63.5853 80.2244 62.483C79.665 61.3807 79.3853 60.1296 79.3853 58.7298C79.3853 57.3301 79.665 56.079 80.2244 54.9767C80.7838 53.8569 81.5443 52.9908 82.5058 52.3784C83.4847 51.7485 84.5599 51.4336 85.7311 51.4336C86.5702 51.4336 87.3569 51.591 88.0911 51.906C88.8254 52.2034 89.446 52.5884 89.9529 53.0608V47.9167C89.9529 47.4617 90.1015 47.0855 90.3987 46.7881C90.6959 46.4731 91.0717 46.3157 91.5263 46.3157ZM86.2293 63.1129C87.3656 63.1129 88.2922 62.7017 89.0089 61.8793C89.7257 61.0395 90.084 59.9896 90.084 58.7298C90.084 57.4701 89.7257 56.4202 89.0089 55.5804C88.2922 54.7405 87.3656 54.3206 86.2293 54.3206C85.1105 54.3206 84.1927 54.7405 83.476 55.5804C82.7593 56.4202 82.4009 57.4701 82.4009 58.7298C82.4009 59.9896 82.7505 61.0395 83.4498 61.8793C84.1665 62.7017 85.093 63.1129 86.2293 63.1129ZM95.6965 63.559C95.5392 63.3491 95.4605 63.0866 95.4605 62.7717C95.4605 62.3167 95.6877 61.9318 96.1423 61.6169C96.387 61.4594 96.6405 61.3807 96.9027 61.3807C97.2698 61.3807 97.6195 61.5469 97.9516 61.8793C98.4761 62.4217 99.018 62.8242 99.5774 63.0866C100.154 63.3491 100.845 63.4803 101.649 63.4803C103.013 63.4278 103.694 62.9116 103.694 61.9318C103.694 61.4244 103.458 61.0395 102.986 60.777C102.532 60.5146 101.815 60.2521 100.836 59.9896C99.8221 59.7097 98.9918 59.4297 98.3449 59.1498C97.7156 58.8698 97.1649 58.4499 96.6929 57.89C96.2384 57.3126 96.0112 56.5427 96.0112 55.5804C96.0112 54.7405 96.2472 54.0144 96.7192 53.402C97.2086 52.7721 97.838 52.2909 98.6072 51.9585C99.3938 51.6085 100.224 51.4336 101.098 51.4336C101.99 51.4336 102.881 51.5998 103.773 51.9322C104.665 52.2647 105.364 52.7546 105.871 53.402C106.098 53.6819 106.212 53.9969 106.212 54.3468C106.212 54.7493 106.046 55.0817 105.713 55.3442C105.469 55.5366 105.189 55.6329 104.874 55.6329C104.49 55.6329 104.175 55.5104 103.93 55.2654C103.616 54.8805 103.205 54.5743 102.698 54.3468C102.208 54.1194 101.649 54.0056 101.02 54.0056C99.691 54.0056 99.0267 54.4868 99.0267 55.4491C99.0267 55.8341 99.1491 56.149 99.3938 56.394C99.6386 56.6215 99.9445 56.8052 100.312 56.9451C100.696 57.0676 101.229 57.2251 101.911 57.4176C102.855 57.68 103.642 57.9512 104.271 58.2312C104.901 58.5111 105.434 58.9398 105.871 59.5172C106.308 60.0946 106.526 60.8557 106.526 61.8006C106.526 62.6579 106.273 63.4103 105.766 64.0577C105.259 64.6876 104.603 65.1688 103.799 65.5012C103.013 65.8337 102.2 65.9999 101.361 65.9999C100.207 65.9999 99.1316 65.8074 98.1352 65.4225C97.1387 65.0375 96.3258 64.4164 95.6965 63.559Z" fill="#575757"/>
<defs>
<linearGradient id="paint0_linear" x1="14.3824" y1="0" x2="14.3824" y2="42.3531" gradientUnits="userSpaceOnUse">
<stop stop-color="#F7931E"/>
<stop offset="1" stop-color="#FF7676"/>
</linearGradient>
<linearGradient id="paint1_linear" x1="46.3484" y1="14.0344" x2="46.3484" y2="42.0448" gradientUnits="userSpaceOnUse">
<stop stop-color="#F7931E"/>
<stop offset="1" stop-color="#FF7676"/>
</linearGradient>
<linearGradient id="paint2_linear" x1="78.3164" y1="0" x2="78.3164" y2="42.3531" gradientUnits="userSpaceOnUse">
<stop stop-color="#F7931E"/>
<stop offset="1" stop-color="#FF7676"/>
</linearGradient>
<linearGradient id="paint3_linear" x1="111.402" y1="0" x2="111.402" y2="42.3531" gradientUnits="userSpaceOnUse">
<stop stop-color="#F7931E"/>
<stop offset="1" stop-color="#FF7676"/>
</linearGradient>
<linearGradient id="paint4_linear" x1="143.472" y1="14.0344" x2="143.472" y2="55.8844" gradientUnits="userSpaceOnUse">
<stop stop-color="#F7931E"/>
<stop offset="1" stop-color="#FF7676"/>
</linearGradient>
</defs>
</svg>
