<svg width="104" height="104" viewBox="0 0 104 104" fill="none" xmlns="http://www.w3.org/2000/svg">
<rect width="104" height="104" rx="52" fill="#FFE7D1"/>
<path d="M52 22C35.737 22 22 35.737 22 52C22 61.567 26.776 70.234 34 75.772V76H34.306C39.31 79.735 45.439 82 52 82C58.561 82 64.69 79.735 69.694 76H70V75.772C77.224 70.234 82 61.57 82 52C82 35.737 68.263 22 52 22ZM40.222 72.781C40.6641 70.7812 41.7746 68.9918 43.3704 67.708C44.9662 66.4241 46.9519 65.7226 49 65.719H55C57.048 65.7231 59.0334 66.4249 60.6291 67.7086C62.2247 68.9923 63.3354 70.7814 63.778 72.781C60.274 74.812 56.248 76 52 76C47.752 76 43.726 74.812 40.222 72.781ZM68.83 68.923C67.6857 66.1986 65.7632 63.8722 63.3032 62.2351C60.8432 60.5979 57.955 59.7227 55 59.719H49C46.045 59.7227 43.1568 60.5979 40.6968 62.2351C38.2368 63.8722 36.3143 66.1986 35.17 68.923C30.769 64.546 28 58.528 28 52C28 38.989 38.989 28 52 28C65.011 28 76 38.989 76 52C76 58.528 73.231 64.546 68.83 68.923Z" fill="url(#paint0_linear)"/>
<path d="M52.001 33.9998C45.161 33.9998 40.001 39.1598 40.001 45.9998C40.001 52.8398 45.161 57.9998 52.001 57.9998C58.841 57.9998 64.001 52.8398 64.001 45.9998C64.001 39.1598 58.841 33.9998 52.001 33.9998ZM52.001 51.9998C48.467 51.9998 46.001 49.5338 46.001 45.9998C46.001 42.4658 48.467 39.9998 52.001 39.9998C55.535 39.9998 58.001 42.4658 58.001 45.9998C58.001 49.5338 55.535 51.9998 52.001 51.9998Z" fill="url(#paint1_linear)"/>
<defs>
<linearGradient id="paint0_linear" x1="52" y1="22" x2="52" y2="82" gradientUnits="userSpaceOnUse">
<stop stop-color="#F7931E"/>
<stop offset="1" stop-color="#FF7676"/>
</linearGradient>
<linearGradient id="paint1_linear" x1="52.001" y1="33.9998" x2="52.001" y2="57.9998" gradientUnits="userSpaceOnUse">
<stop stop-color="#F7931E"/>
<stop offset="1" stop-color="#FF7676"/>
</linearGradient>
</defs>
</svg>
