<svg width="104" height="104" viewBox="0 0 104 104" fill="none" xmlns="http://www.w3.org/2000/svg">
<circle cx="52" cy="52" r="52" fill="#D8D8D8"/>
<path d="M53.2139 32.3274C53.1591 32.2026 53.0713 32.0968 52.9609 32.0227C52.8505 31.9485 52.7222 31.9091 52.591 31.9091C52.4599 31.9091 52.3315 31.9485 52.2211 32.0227C52.1107 32.0968 52.0229 32.2026 51.9682 32.3274L49.1633 38.7029C49.114 38.8139 49.0385 38.9099 48.9439 38.9818C48.8493 39.0536 48.7387 39.099 48.6227 39.1134L41.9669 39.9427C41.8371 39.9592 41.7145 40.0142 41.6136 40.1013C41.5127 40.1883 41.4376 40.3038 41.3972 40.4342C41.3569 40.5645 41.3529 40.7041 41.3858 40.8367C41.4187 40.9693 41.4871 41.0893 41.583 41.1825L46.5033 45.9487C46.5898 46.0322 46.6543 46.1376 46.6906 46.2548C46.727 46.372 46.734 46.497 46.7109 46.6179L45.4025 53.5024C45.2889 54.1058 45.9 54.5697 46.4093 54.2701L52.2581 50.8422C52.3599 50.7829 52.4745 50.7517 52.591 50.7517C52.7076 50.7517 52.8222 50.7829 52.924 50.8422L58.7728 54.2701C59.2821 54.5697 59.8932 54.1058 59.7796 53.5024L58.4751 46.6179C58.452 46.497 58.459 46.372 58.4954 46.2548C58.5317 46.1376 58.5962 46.0322 58.6827 45.9487L63.5991 41.1825C63.6949 41.0893 63.7633 40.9693 63.7962 40.8367C63.8292 40.7041 63.8252 40.5645 63.7848 40.4342C63.7445 40.3038 63.6694 40.1883 63.5685 40.1013C63.4676 40.0142 63.345 39.9592 63.2152 39.9427L56.5634 39.1134C56.4466 39.0996 56.3353 39.0546 56.2399 38.9827C56.1446 38.9108 56.0684 38.8145 56.0188 38.7029L53.2139 32.3274V32.3274Z" fill="white"/>
<path d="M76.8183 44.0233C76.822 47.391 76.1044 50.7213 74.7126 53.7955C73.3207 56.8697 71.2862 59.6183 68.7425 61.8606V81.9155C68.7424 82.2647 68.6495 82.6078 68.473 82.9104C68.2965 83.213 68.0426 83.4645 67.7368 83.6398C67.431 83.8151 67.084 83.9079 66.7304 83.9091C66.3769 83.9103 66.0292 83.8197 65.7222 83.6465L52.591 76.2356L39.4599 83.6465C39.1529 83.8197 38.8052 83.9103 38.4516 83.9091C38.0981 83.9079 37.7511 83.8151 37.4452 83.6398C37.1394 83.4645 36.8856 83.213 36.7091 82.9104C36.5326 82.6078 36.4396 82.2647 36.4395 81.9155V61.8606C33.4273 59.1992 31.1369 55.8358 29.7769 52.0767C28.4169 48.3175 28.0304 44.282 28.6527 40.3376C29.275 36.3932 30.8863 32.6652 33.3399 29.4932C35.7935 26.3211 39.0114 23.8057 42.7006 22.176C46.3897 20.5463 50.433 19.8541 54.4622 20.1624C58.4915 20.4708 62.3786 21.7698 65.7697 23.9413C69.1608 26.1128 71.9481 29.0877 73.8778 32.5952C75.8075 36.1027 76.8184 40.0313 76.8183 44.0233V44.0233ZM52.591 67.9552C48.3379 67.9613 44.1588 66.8563 40.4774 64.7523V78.4812L51.5896 72.2071C51.8946 72.035 52.2398 71.9445 52.591 71.9445C52.9423 71.9445 53.2874 72.035 53.5924 72.2071L64.7047 78.4852V64.7563C61.023 66.8591 56.8438 67.9627 52.591 67.9552V67.9552ZM52.591 63.9666C57.9456 63.9666 63.0808 61.8654 66.8671 58.1253C70.6533 54.3852 72.7804 49.3126 72.7804 44.0233C72.7804 38.7341 70.6533 33.6614 66.8671 29.9214C63.0808 26.1813 57.9456 24.0801 52.591 24.0801C47.2365 24.0801 42.1012 26.1813 38.315 29.9214C34.5287 33.6614 32.4017 38.7341 32.4017 44.0233C32.4017 49.3126 34.5287 54.3852 38.315 58.1253C42.1012 61.8654 47.2365 63.9666 52.591 63.9666V63.9666Z" fill="white"/>
</svg>
