<svg width="104" height="104" viewBox="0 0 104 104" fill="none" xmlns="http://www.w3.org/2000/svg">
<circle cx="52" cy="52" r="52" fill="#FF7676"/>
<path d="M73.8191 38.0606V30.3018C73.8191 29.2298 72.953 28.3636 71.881 28.3636H30.9369C29.8648 28.3636 28.9987 29.2298 28.9987 30.3018V38.0606C27.9872 38.1212 27.1817 38.9631 27.1817 39.9927V47.9696C27.1778 49.4356 27.4746 50.8868 28.0539 52.2336C28.3143 52.8514 28.6353 53.4328 28.9987 53.984V74.88C28.9987 75.946 29.8648 76.8182 30.9369 76.8182H71.881C72.953 76.8182 73.8191 75.9521 73.8191 74.88V53.984C74.1883 53.4314 74.5046 52.8454 74.764 52.2336C75.3394 50.8829 75.6362 49.4474 75.6362 47.9696V39.9927C75.6362 38.9631 74.8306 38.1212 73.8191 38.0606ZM33.3596 32.7246H69.4582V38.0546H33.3596V32.7246ZM55.2853 72.4633H47.5326V66.1582H55.2853V72.4633ZM69.4582 72.4633H59.1617V64.22C59.1617 63.148 58.2955 62.2818 57.2235 62.2818H45.5944C44.5223 62.2818 43.6562 63.148 43.6562 64.22V72.4633H33.3596V57.7937C33.5353 57.8785 33.717 57.9633 33.9047 58.036C35.2554 58.6053 36.6909 58.89 38.1687 58.89C39.6466 58.89 41.076 58.6053 42.4327 58.036C43.2686 57.6847 44.056 57.2365 44.7767 56.6974C44.7888 56.6914 44.8009 56.6914 44.8131 56.6974C45.5361 57.2388 46.3234 57.6884 47.157 58.036C48.5077 58.6053 49.9432 58.89 51.421 58.89C52.8989 58.89 54.3283 58.6053 55.685 58.036C56.5209 57.6847 57.3083 57.2365 58.029 56.6974C58.0411 56.6914 58.0533 56.6914 58.0654 56.6974C58.7884 57.2388 59.5757 57.6884 60.4094 58.036C61.76 58.6053 63.1955 58.89 64.6734 58.89C66.1512 58.89 67.5806 58.6053 68.9374 58.036C69.1191 57.9573 69.3008 57.8785 69.4825 57.7937V72.4633H69.4582ZM71.2753 47.9696C71.2753 51.5915 68.3074 54.5291 64.6552 54.5291C62.184 54.5291 60.0278 53.1905 58.8891 51.2039C58.7134 50.9011 58.3985 50.7133 58.0472 50.7133H58.0109C57.6656 50.7133 57.3446 50.9011 57.169 51.2039C56.5879 52.2173 55.7488 53.0588 54.7371 53.6429C53.7254 54.2269 52.5771 54.5327 51.4089 54.5291C48.9438 54.5291 46.7936 53.1966 45.655 51.216C45.4733 50.9071 45.1462 50.7133 44.7888 50.7133C44.4315 50.7133 44.0984 50.9071 43.9227 51.216C43.3382 52.2255 42.4981 53.0633 41.4869 53.6449C40.4758 54.2265 39.3292 54.5315 38.1627 54.5291C34.5104 54.5291 31.5426 51.5915 31.5426 47.9696V42.4457C31.5426 42.4276 31.5547 42.4155 31.5729 42.4155H71.245C71.2632 42.4155 71.2753 42.4276 71.2753 42.4457V47.9696V47.9696Z" fill="white"/>
</svg>
