<svg width="104" height="104" viewBox="0 0 104 104" fill="none" xmlns="http://www.w3.org/2000/svg">
<circle cx="52" cy="52" r="52" fill="#787BFF"/>
<g clip-path="url(#clip0)">
<path fill-rule="evenodd" clip-rule="evenodd" d="M33.7556 34.4574C33.7556 33.8991 33.5338 33.3637 33.1391 32.9689C32.7443 32.5741 32.2088 32.3523 31.6505 32.3523C31.0922 32.3523 30.5568 32.5741 30.162 32.9689C29.7672 33.3637 29.5454 33.8991 29.5454 34.4574V69.5426C29.5454 70.7047 30.4885 71.6477 31.6505 71.6477H72.3494C72.9077 71.6477 73.4431 71.426 73.8379 71.0312C74.2327 70.6364 74.4545 70.1009 74.4545 69.5426C74.4545 68.9843 74.2327 68.4489 73.8379 68.0541C73.4431 67.6593 72.9077 67.4375 72.3494 67.4375H33.7556V34.4574ZM73.837 41.5587C74.2088 41.1596 74.4113 40.6318 74.4017 40.0864C74.392 39.5411 74.1711 39.0207 73.7854 38.635C73.3997 38.2493 72.8794 38.0284 72.334 38.0188C71.7886 38.0091 71.2608 38.2116 70.8618 38.5834L57.6136 51.8316L50.6808 44.8988C50.286 44.5046 49.751 44.2831 49.1931 44.2831C48.6353 44.2831 48.1002 44.5046 47.7055 44.8988L38.5834 54.0209C38.2115 54.42 38.0091 54.9478 38.0187 55.4932C38.0283 56.0385 38.2493 56.5589 38.6349 56.9446C39.0206 57.3303 39.541 57.5512 40.0864 57.5608C40.6317 57.5704 41.1595 57.368 41.5586 56.9962L49.1931 49.3616L56.126 56.2945C56.5207 56.6887 57.0557 56.9101 57.6136 56.9101C58.1714 56.9101 58.7065 56.6887 59.1012 56.2945L73.837 41.5587Z" fill="white"/>
</g>
<defs>
<clipPath id="clip0">
<rect width="44.9091" height="44.9091" fill="white" transform="translate(29.5454 29.5455)"/>
</clipPath>
</defs>
</svg>
