<svg width="104" height="104" viewBox="0 0 104 104" fill="none" xmlns="http://www.w3.org/2000/svg">
<rect width="104" height="104" rx="52" fill="#F7F7F7"/>
<g filter="url(#filter0_d)">
<path d="M72.3125 38.0056V30.8C72.3125 29.8044 71.5081 29 70.5125 29H32.4875C31.4919 29 30.6875 29.8044 30.6875 30.8V38.0056C29.7482 38.0619 29 38.8437 29 39.8V47.2081C28.9964 48.5696 29.2721 49.9174 29.81 51.1681C30.0519 51.7419 30.35 52.2819 30.6875 52.7937V72.2C30.6875 73.19 31.4919 74 32.4875 74H70.5125C71.5081 74 72.3125 73.1956 72.3125 72.2V52.7937C72.6553 52.2806 72.9491 51.7363 73.19 51.1681C73.7244 49.9138 74 48.5806 74 47.2081V39.8C74 38.8437 73.2519 38.0619 72.3125 38.0056ZM34.7375 33.05H68.2625V38H34.7375V33.05ZM55.1 69.9556H47.9V64.1H55.1V69.9556ZM68.2625 69.9556H58.7V62.3C58.7 61.3044 57.8956 60.5 56.9 60.5H46.1C45.1044 60.5 44.3 61.3044 44.3 62.3V69.9556H34.7375V56.3319C34.9007 56.4106 35.0694 56.4894 35.2438 56.5569C36.4982 57.0856 37.8313 57.35 39.2038 57.35C40.5763 57.35 41.9038 57.0856 43.1638 56.5569C43.94 56.2306 44.6713 55.8144 45.3406 55.3137C45.3519 55.3081 45.3631 55.3081 45.3744 55.3137C46.0459 55.8165 46.7771 56.2341 47.5513 56.5569C48.8056 57.0856 50.1388 57.35 51.5113 57.35C52.8838 57.35 54.2113 57.0856 55.4713 56.5569C56.2475 56.2306 56.9788 55.8144 57.6481 55.3137C57.6594 55.3081 57.6706 55.3081 57.6819 55.3137C58.3533 55.8165 59.0845 56.2341 59.8588 56.5569C61.1131 57.0856 62.4463 57.35 63.8188 57.35C65.1913 57.35 66.5188 57.0856 67.7788 56.5569C67.9475 56.4838 68.1163 56.4106 68.285 56.3319V69.9556H68.2625ZM69.95 47.2081C69.95 50.5719 67.1938 53.3 63.8019 53.3C61.5069 53.3 59.5044 52.0569 58.4469 50.2119C58.2838 49.9306 57.9913 49.7563 57.665 49.7563H57.6313C57.3106 49.7563 57.0125 49.9306 56.8494 50.2119C56.3097 51.153 55.5305 51.9345 54.5909 52.4769C53.6513 53.0193 52.5849 53.3033 51.5 53.3C49.2106 53.3 47.2138 52.0625 46.1563 50.2231C45.9875 49.9362 45.6838 49.7563 45.3519 49.7563C45.02 49.7563 44.7106 49.9362 44.5475 50.2231C44.0047 51.1607 43.2245 51.9387 42.2854 52.4788C41.3463 53.019 40.2815 53.3022 39.1982 53.3C35.8063 53.3 33.05 50.5719 33.05 47.2081V42.0781C33.05 42.0612 33.0613 42.05 33.0782 42.05H69.9219C69.9388 42.05 69.95 42.0612 69.95 42.0781V47.2081Z" fill="url(#paint0_linear)"/>
</g>
<defs>
<filter id="filter0_d" x="21" y="25" width="61" height="61" filterUnits="userSpaceOnUse" color-interpolation-filters="sRGB">
<feFlood flood-opacity="0" result="BackgroundImageFix"/>
<feColorMatrix in="SourceAlpha" type="matrix" values="0 0 0 0 0 0 0 0 0 0 0 0 0 0 0 0 0 0 127 0" result="hardAlpha"/>
<feOffset dy="4"/>
<feGaussianBlur stdDeviation="4"/>
<feComposite in2="hardAlpha" operator="out"/>
<feColorMatrix type="matrix" values="0 0 0 0 1 0 0 0 0 0.462699 0 0 0 0 0.462699 0 0 0 0.31 0"/>
<feBlend mode="normal" in2="BackgroundImageFix" result="effect1_dropShadow"/>
<feBlend mode="normal" in="SourceGraphic" in2="effect1_dropShadow" result="shape"/>
</filter>
<linearGradient id="paint0_linear" x1="51.5" y1="29" x2="51.5" y2="74" gradientUnits="userSpaceOnUse">
<stop stop-color="#F7931E"/>
<stop offset="1" stop-color="#FF7676"/>
</linearGradient>
</defs>
</svg>
