<svg width="100" height="100" viewBox="0 0 100 100" fill="none" xmlns="http://www.w3.org/2000/svg">
<circle cx="50" cy="50" r="50" fill="#59E293"/>
<path d="M50.5548 33.0042C50.506 32.893 50.4278 32.7988 50.3295 32.7327C50.2311 32.6667 50.1168 32.6316 50 32.6316C49.8832 32.6316 49.7689 32.6667 49.6705 32.7327C49.5722 32.7988 49.494 32.893 49.4452 33.0042L46.9469 38.6827C46.903 38.7816 46.8358 38.8671 46.7515 38.9311C46.6672 38.9951 46.5687 39.0355 46.4654 39.0484L40.5372 39.787C40.4216 39.8017 40.3124 39.8507 40.2225 39.9282C40.1326 40.0058 40.0658 40.1087 40.0298 40.2247C39.9939 40.3408 39.9904 40.4652 40.0197 40.5833C40.049 40.7014 40.1099 40.8083 40.1952 40.8913L44.5777 45.1365C44.6547 45.2109 44.7122 45.3048 44.7446 45.4091C44.777 45.5135 44.7832 45.6249 44.7627 45.7325L43.5972 51.8644C43.4961 52.402 44.0404 52.8151 44.494 52.5482L49.7034 49.495C49.7941 49.4422 49.8962 49.4145 50 49.4145C50.1038 49.4145 50.2059 49.4422 50.2966 49.495L55.506 52.5482C55.9596 52.8151 56.5039 52.402 56.4028 51.8644L55.2408 45.7325C55.2203 45.6249 55.2265 45.5135 55.2589 45.4091C55.2913 45.3048 55.3488 45.2109 55.4258 45.1365L59.8048 40.8913C59.8901 40.8083 59.951 40.7014 59.9803 40.5833C60.0097 40.4652 60.0061 40.3408 59.9702 40.2247C59.9342 40.1087 59.8674 40.0058 59.7775 39.9282C59.6876 39.8507 59.5784 39.8017 59.4628 39.787L53.5381 39.0484C53.4341 39.0361 53.3349 38.996 53.25 38.932C53.1651 38.8679 53.0973 38.7821 53.0531 38.6827L50.5548 33.0042V33.0042Z" fill="white"/>
<path d="M71.5788 43.4215C71.5821 46.4211 70.9429 49.3873 69.7032 52.1255C68.4635 54.8637 66.6514 57.3118 64.3858 59.3089V77.1716C64.3857 77.4827 64.3029 77.7882 64.1457 78.0578C63.9885 78.3273 63.7624 78.5513 63.49 78.7074C63.2176 78.8636 62.9085 78.9463 62.5936 78.9473C62.2787 78.9484 61.9691 78.8677 61.6956 78.7134L49.9998 72.1126L38.3041 78.7134C38.0306 78.8677 37.721 78.9484 37.4061 78.9473C37.0911 78.9463 36.782 78.8636 36.5097 78.7074C36.2373 78.5513 36.0112 78.3273 35.854 78.0578C35.6968 77.7882 35.614 77.4827 35.6139 77.1716V59.3089C32.931 56.9385 30.8909 53.9428 29.6796 50.5945C28.4682 47.2463 28.124 43.6519 28.6783 40.1387C29.2326 36.6255 30.6677 33.305 32.8531 30.4797C35.0384 27.6543 37.9046 25.4139 41.1905 23.9624C44.4764 22.5108 48.0777 21.8943 51.6665 22.1689C55.2553 22.4435 58.7175 23.6006 61.7379 25.5347C64.7583 27.4688 67.2409 30.1186 68.9597 33.2426C70.6785 36.3667 71.5789 39.8659 71.5788 43.4215V43.4215ZM49.9998 64.7374C46.2116 64.7428 42.4893 63.7586 39.2104 61.8846V74.1128L49.1079 68.5245C49.3796 68.3712 49.687 68.2906 49.9998 68.2906C50.3127 68.2906 50.6201 68.3712 50.8918 68.5245L60.7893 74.1163V61.8881C57.5101 63.7611 53.7878 64.7441 49.9998 64.7374V64.7374ZM49.9998 61.1847C54.7691 61.1847 59.343 59.3133 62.7154 55.982C66.0877 52.6508 67.9823 48.1326 67.9823 43.4215C67.9823 38.7104 66.0877 34.1923 62.7154 30.8611C59.343 27.5298 54.7691 25.6584 49.9998 25.6584C45.2306 25.6584 40.6567 27.5298 37.2843 30.8611C33.912 34.1923 32.0174 38.7104 32.0174 43.4215C32.0174 48.1326 33.912 52.6508 37.2843 55.982C40.6567 59.3133 45.2306 61.1847 49.9998 61.1847V61.1847Z" fill="white"/>
</svg>
