<svg width="230" height="230" viewBox="0 0 230 230" fill="none" xmlns="http://www.w3.org/2000/svg">
<g clip-path="url(#clip0)">
<rect width="230" height="230" rx="115" fill="white"/>
<rect width="230" height="230" fill="url(#paint0_linear)"/>
<g filter="url(#filter0_d)">
<path d="M170 123.989C170 153.584 145.874 177.491 116.446 177.491C105.223 177.491 94.6526 174.101 86.1865 168.186C84.49 173.254 79.6289 177.067 73.9032 177.067C66.7094 177.067 61 171.347 61 164.372V29.8908C61 22.9157 66.7094 17 73.9032 17C80.8849 17 86.5943 22.9157 86.5943 29.8908V79.368C95.2725 73.8759 105.435 70.4862 116.43 70.4862C145.874 70.5025 170 94.3936 170 123.989ZM144.389 123.989C144.389 108.556 131.698 96.0722 116.446 96.0722C100.998 96.0722 88.5028 108.539 88.5028 123.989C88.5028 139.422 100.982 151.905 116.446 151.905C131.682 151.905 144.389 139.422 144.389 123.989Z" fill="white"/>
</g>
<g filter="url(#filter1_d)">
<path d="M71.9466 201.976C72.1984 202.125 72.392 202.321 72.5276 202.564C72.6825 202.807 72.7599 203.059 72.7599 203.32C72.7599 203.656 72.6437 203.964 72.4114 204.244C72.1209 204.58 71.6755 204.748 71.0752 204.748C70.6105 204.748 70.1845 204.645 69.7972 204.44C68.4029 203.675 67.7058 202.116 67.7058 199.764C67.7058 199.092 67.4734 198.56 67.0087 198.168C66.5633 197.776 65.9146 197.58 65.0626 197.58H59.6308V203.012C59.6308 203.516 59.4856 203.927 59.1951 204.244C58.924 204.561 58.5561 204.72 58.0914 204.72C57.5298 204.72 57.036 204.561 56.61 204.244C56.2033 203.908 56 203.497 56 203.012V186.828C56 186.343 56.1646 185.941 56.4938 185.624C56.8424 185.288 57.2684 185.12 57.7718 185.12H66.1373C67.1442 185.12 68.0931 185.381 68.9839 185.904C69.8746 186.427 70.5814 187.145 71.1043 188.06C71.6465 188.975 71.9176 190.001 71.9176 191.14C71.9176 192.073 71.6562 192.988 71.1333 193.884C70.6105 194.761 69.9327 195.461 69.1001 195.984C70.32 196.805 70.9881 197.907 71.1043 199.288C71.1624 199.587 71.1914 199.876 71.1914 200.156C71.2689 200.735 71.3463 201.155 71.4238 201.416C71.5012 201.659 71.6755 201.845 71.9466 201.976ZM65.9921 194.696C66.3406 194.696 66.6795 194.537 67.0087 194.22C67.3379 193.903 67.609 193.483 67.822 192.96C68.035 192.419 68.1415 191.84 68.1415 191.224C68.1415 190.701 68.035 190.225 67.822 189.796C67.609 189.348 67.3379 188.993 67.0087 188.732C66.6795 188.471 66.3406 188.34 65.9921 188.34H59.6308V194.696H65.9921ZM89.4513 196.88C89.432 197.328 89.248 197.692 88.8994 197.972C88.5509 198.252 88.1442 198.392 87.6795 198.392H78.0941C78.3264 199.493 78.859 200.361 79.6916 200.996C80.5243 201.612 81.4635 201.92 82.5092 201.92C83.3031 201.92 83.9228 201.855 84.3681 201.724C84.8135 201.575 85.1621 201.425 85.4138 201.276C85.6849 201.108 85.8689 200.996 85.9657 200.94C86.3143 200.772 86.6435 200.688 86.9533 200.688C87.36 200.688 87.7085 200.828 87.999 201.108C88.2895 201.388 88.4347 201.715 88.4347 202.088C88.4347 202.592 88.1636 203.049 87.6214 203.46C87.0792 203.889 86.353 204.253 85.4429 204.552C84.5327 204.851 83.6129 205 82.6834 205C81.0568 205 79.6335 204.673 78.4136 204.02C77.213 203.367 76.2835 202.471 75.6251 201.332C74.9667 200.175 74.6375 198.877 74.6375 197.44C74.6375 195.835 74.9861 194.425 75.6832 193.212C76.3803 191.999 77.3001 191.075 78.4426 190.44C79.5851 189.787 80.8051 189.46 82.1025 189.46C83.3806 189.46 84.5812 189.796 85.7043 190.468C86.8468 191.14 87.7569 192.045 88.4347 193.184C89.1124 194.323 89.4513 195.555 89.4513 196.88ZM82.1025 192.54C79.8562 192.54 78.5298 193.557 78.1231 195.592H85.7333V195.396C85.6559 194.612 85.2589 193.94 84.5424 193.38C83.8259 192.82 83.0126 192.54 82.1025 192.54ZM110.251 189.74C110.716 189.74 111.103 189.908 111.413 190.244C111.742 190.561 111.907 190.972 111.907 191.476C111.907 191.644 111.868 191.859 111.791 192.12L107.346 203.656C107.23 203.992 107.017 204.263 106.707 204.468C106.417 204.655 106.097 204.748 105.749 204.748L105.516 204.72C104.858 204.683 104.364 204.328 104.035 203.656L101.566 196.768L99.2133 203.656C98.8841 204.328 98.3903 204.683 97.7319 204.72L97.4996 204.748C97.151 204.748 96.8218 204.655 96.512 204.468C96.2215 204.263 96.0182 203.992 95.902 203.656L91.4579 192.12C91.3804 191.915 91.3417 191.7 91.3417 191.476C91.3417 191.009 91.4966 190.608 91.8064 190.272C92.1356 189.917 92.5616 189.74 93.0845 189.74C93.4718 189.74 93.801 189.833 94.0721 190.02C94.3625 190.188 94.5659 190.449 94.682 190.804L97.8191 199.008L100.114 193.016C100.424 192.325 100.956 191.98 101.711 191.98C102.118 191.98 102.428 192.064 102.641 192.232C102.873 192.4 103.067 192.661 103.222 193.016L105.458 198.868L108.566 190.804C108.683 190.449 108.886 190.188 109.176 190.02C109.467 189.833 109.825 189.74 110.251 189.74ZM127.345 189.46C127.848 189.46 128.264 189.619 128.594 189.936C128.923 190.253 129.087 190.664 129.087 191.168V203.012C129.087 203.497 128.923 203.908 128.594 204.244C128.264 204.561 127.848 204.72 127.345 204.72C126.841 204.72 126.425 204.561 126.096 204.244C125.786 203.927 125.621 203.525 125.602 203.04C125.118 203.581 124.459 204.048 123.627 204.44C122.813 204.813 121.952 205 121.041 205C119.705 205 118.495 204.673 117.411 204.02C116.326 203.348 115.464 202.424 114.825 201.248C114.206 200.072 113.896 198.737 113.896 197.244C113.896 195.751 114.206 194.416 114.825 193.24C115.445 192.045 116.287 191.121 117.352 190.468C118.437 189.796 119.628 189.46 120.925 189.46C121.855 189.46 122.726 189.628 123.539 189.964C124.353 190.281 125.04 190.692 125.602 191.196V191.168C125.602 190.683 125.766 190.281 126.096 189.964C126.425 189.628 126.841 189.46 127.345 189.46ZM121.477 201.92C122.736 201.92 123.762 201.481 124.556 200.604C125.35 199.708 125.747 198.588 125.747 197.244C125.747 195.9 125.35 194.78 124.556 193.884C123.762 192.988 122.736 192.54 121.477 192.54C120.238 192.54 119.221 192.988 118.427 193.884C117.633 194.78 117.236 195.9 117.236 197.244C117.236 198.588 117.624 199.708 118.398 200.604C119.192 201.481 120.218 201.92 121.477 201.92ZM140.94 189.46C141.521 189.46 142.005 189.619 142.392 189.936C142.799 190.253 143.002 190.627 143.002 191.056C143.002 191.635 142.847 192.073 142.538 192.372C142.228 192.652 141.86 192.792 141.434 192.792C141.143 192.792 140.814 192.727 140.446 192.596C140.388 192.577 140.253 192.54 140.04 192.484C139.846 192.428 139.633 192.4 139.401 192.4C138.897 192.4 138.413 192.549 137.948 192.848C137.483 193.147 137.096 193.604 136.786 194.22C136.496 194.817 136.35 195.536 136.35 196.376V203.012C136.35 203.497 136.186 203.908 135.857 204.244C135.527 204.561 135.111 204.72 134.608 204.72C134.104 204.72 133.688 204.561 133.359 204.244C133.029 203.908 132.865 203.497 132.865 203.012V191.448C132.865 190.963 133.029 190.561 133.359 190.244C133.688 189.908 134.104 189.74 134.608 189.74C135.111 189.74 135.527 189.908 135.857 190.244C136.186 190.561 136.35 190.963 136.35 191.448V191.812C136.796 191.047 137.435 190.468 138.268 190.076C139.1 189.665 139.991 189.46 140.94 189.46ZM157.384 184C157.888 184 158.304 184.159 158.633 184.476C158.963 184.793 159.127 185.204 159.127 185.708V203.012C159.127 203.497 158.963 203.908 158.633 204.244C158.304 204.561 157.888 204.72 157.384 204.72C156.881 204.72 156.465 204.561 156.135 204.244C155.825 203.927 155.661 203.525 155.642 203.04C155.157 203.581 154.499 204.048 153.666 204.44C152.853 204.813 151.991 205 151.081 205C149.745 205 148.535 204.673 147.45 204.02C146.366 203.348 145.504 202.424 144.865 201.248C144.246 200.072 143.936 198.737 143.936 197.244C143.936 195.751 144.246 194.416 144.865 193.24C145.485 192.045 146.327 191.121 147.392 190.468C148.477 189.796 149.668 189.46 150.965 189.46C151.895 189.46 152.766 189.628 153.579 189.964C154.393 190.281 155.08 190.692 155.642 191.196V185.708C155.642 185.223 155.806 184.821 156.135 184.504C156.465 184.168 156.881 184 157.384 184ZM151.517 201.92C152.776 201.92 153.802 201.481 154.596 200.604C155.39 199.708 155.787 198.588 155.787 197.244C155.787 195.9 155.39 194.78 154.596 193.884C153.802 192.988 152.776 192.54 151.517 192.54C150.278 192.54 149.261 192.988 148.467 193.884C147.673 194.78 147.276 195.9 147.276 197.244C147.276 198.588 147.663 199.708 148.438 200.604C149.232 201.481 150.258 201.92 151.517 201.92ZM162.004 202.396C161.829 202.172 161.742 201.892 161.742 201.556C161.742 201.071 161.994 200.66 162.498 200.324C162.769 200.156 163.049 200.072 163.34 200.072C163.747 200.072 164.134 200.249 164.502 200.604C165.083 201.183 165.683 201.612 166.303 201.892C166.942 202.172 167.707 202.312 168.597 202.312C170.108 202.256 170.863 201.705 170.863 200.66C170.863 200.119 170.602 199.708 170.079 199.428C169.575 199.148 168.781 198.868 167.697 198.588C166.574 198.289 165.654 197.991 164.937 197.692C164.24 197.393 163.63 196.945 163.107 196.348C162.604 195.732 162.352 194.911 162.352 193.884C162.352 192.988 162.614 192.213 163.137 191.56C163.679 190.888 164.376 190.375 165.228 190.02C166.099 189.647 167.019 189.46 167.987 189.46C168.975 189.46 169.963 189.637 170.95 189.992C171.938 190.347 172.712 190.869 173.274 191.56C173.526 191.859 173.651 192.195 173.651 192.568C173.651 192.997 173.467 193.352 173.1 193.632C172.828 193.837 172.519 193.94 172.17 193.94C171.744 193.94 171.395 193.809 171.124 193.548C170.776 193.137 170.321 192.811 169.759 192.568C169.217 192.325 168.597 192.204 167.9 192.204C166.428 192.204 165.693 192.717 165.693 193.744C165.693 194.155 165.828 194.491 166.099 194.752C166.37 194.995 166.709 195.191 167.116 195.34C167.542 195.471 168.133 195.639 168.888 195.844C169.933 196.124 170.805 196.413 171.502 196.712C172.199 197.011 172.79 197.468 173.274 198.084C173.758 198.7 174 199.512 174 200.52C174 201.435 173.719 202.237 173.158 202.928C172.596 203.6 171.87 204.113 170.979 204.468C170.108 204.823 169.207 205 168.278 205C167 205 165.809 204.795 164.705 204.384C163.601 203.973 162.701 203.311 162.004 202.396Z" fill="white"/>
</g>
</g>
<defs>
<filter id="filter0_d" x="48" y="4" width="135" height="186.491" filterUnits="userSpaceOnUse" color-interpolation-filters="sRGB">
<feFlood flood-opacity="0" result="BackgroundImageFix"/>
<feColorMatrix in="SourceAlpha" type="matrix" values="0 0 0 0 0 0 0 0 0 0 0 0 0 0 0 0 0 0 127 0" result="hardAlpha"/>
<feOffset/>
<feGaussianBlur stdDeviation="6.5"/>
<feColorMatrix type="matrix" values="0 0 0 0 0 0 0 0 0 0 0 0 0 0 0 0 0 0 0.1 0"/>
<feBlend mode="normal" in2="BackgroundImageFix" result="effect1_dropShadow"/>
<feBlend mode="normal" in="SourceGraphic" in2="effect1_dropShadow" result="shape"/>
</filter>
<filter id="filter1_d" x="51" y="179" width="128" height="31" filterUnits="userSpaceOnUse" color-interpolation-filters="sRGB">
<feFlood flood-opacity="0" result="BackgroundImageFix"/>
<feColorMatrix in="SourceAlpha" type="matrix" values="0 0 0 0 0 0 0 0 0 0 0 0 0 0 0 0 0 0 127 0" result="hardAlpha"/>
<feOffset/>
<feGaussianBlur stdDeviation="2.5"/>
<feColorMatrix type="matrix" values="0 0 0 0 0 0 0 0 0 0 0 0 0 0 0 0 0 0 0.15 0"/>
<feBlend mode="normal" in2="BackgroundImageFix" result="effect1_dropShadow"/>
<feBlend mode="normal" in="SourceGraphic" in2="effect1_dropShadow" result="shape"/>
</filter>
<linearGradient id="paint0_linear" x1="115" y1="0" x2="115" y2="230" gradientUnits="userSpaceOnUse">
<stop stop-color="#F7931E"/>
<stop offset="1" stop-color="#FF7676"/>
</linearGradient>
<clipPath id="clip0">
<rect width="230" height="230" rx="115" fill="white"/>
</clipPath>
</defs>
</svg>
