<svg width="104" height="104" viewBox="0 0 104 104" fill="none" xmlns="http://www.w3.org/2000/svg">
<circle cx="52" cy="52" r="52" fill="#FFC107"/>
<path d="M75.3395 44.2416L53.1804 24.5447C52.73 24.1441 52.1483 23.9227 51.5455 23.9227C50.9428 23.9227 50.361 24.1441 49.9107 24.5447L27.7516 44.2416C27.2632 44.6752 26.967 45.2851 26.9282 45.9371C26.8894 46.589 27.1112 47.2297 27.5448 47.7182C27.9784 48.2066 28.5882 48.5028 29.2402 48.5416C29.8922 48.5804 30.5329 48.3586 31.0213 47.925L31.8486 47.1888V70.7045C31.8486 71.3575 32.108 71.9838 32.5697 72.4455C33.0314 72.9072 33.6577 73.1666 34.3107 73.1666H68.7804C69.4334 73.1666 70.0596 72.9072 70.5214 72.4455C70.9831 71.9838 71.2425 71.3575 71.2425 70.7045V47.1888L72.0698 47.925C72.5582 48.3586 73.1989 48.5804 73.8509 48.5416C74.1737 48.5224 74.4896 48.4398 74.7805 48.2985C75.0714 48.1572 75.3316 47.96 75.5463 47.7182C75.761 47.4763 75.9259 47.1945 76.0317 46.8889C76.1375 46.5833 76.1821 46.2599 76.1629 45.9371C76.1437 45.6142 76.0611 45.2984 75.9198 45.0075C75.7785 44.7166 75.5813 44.4563 75.3395 44.2416V44.2416ZM44.6122 68.2424C45.1136 66.8032 46.0505 65.5557 47.2928 64.6729C48.5352 63.7901 50.0215 63.3158 51.5455 63.3158C53.0696 63.3158 54.5559 63.7901 55.7982 64.6729C57.0406 65.5557 57.9775 66.8032 58.4789 68.2424H44.6122ZM47.8524 54.7007C47.8524 53.9703 48.069 53.2563 48.4748 52.6489C48.8806 52.0416 49.4574 51.5682 50.1322 51.2887C50.8071 51.0091 51.5496 50.936 52.266 51.0785C52.9824 51.221 53.6405 51.5728 54.157 52.0893C54.6735 52.6058 55.0252 53.2638 55.1678 53.9802C55.3103 54.6966 55.2371 55.4392 54.9576 56.1141C54.6781 56.7889 54.2047 57.3657 53.5974 57.7715C52.99 58.1773 52.276 58.3939 51.5455 58.3939C50.5664 58.3926 49.6278 58.0031 48.9355 57.3108C48.2432 56.6184 47.8537 55.6798 47.8524 54.7007V54.7007ZM66.3183 68.2424H63.6075C63.267 66.61 62.5984 65.0638 61.6423 63.6976C60.6862 62.3314 59.4626 61.1737 58.0455 60.2947C59.4027 58.7463 60.1547 56.7597 60.163 54.7007C60.163 52.4153 59.2551 50.2234 57.639 48.6073C56.0229 46.9912 53.831 46.0833 51.5455 46.0833C49.2601 46.0833 47.0682 46.9912 45.4521 48.6073C43.836 50.2234 42.9281 52.4153 42.9281 54.7007C42.9364 56.7597 43.6884 58.7463 45.0455 60.2947C43.628 61.1734 42.4039 62.331 41.4474 63.6973C40.4909 65.0635 39.8219 66.6098 39.4811 68.2424H36.7728V42.8111L51.5455 29.6807L66.3183 42.8111V68.2424Z" fill="white"/>
</svg>
